<svg width="28" height="28" viewBox="0 0 28 28" fill="none" xmlns="http://www.w3.org/2000/svg">
<g clip-path="url(#clip0_491_8)">
<path d="M10.3593 16.0129H14.1393C15.4755 16.0129 16.7652 16.4005 17.8686 17.1329C18.2317 17.3744 18.72 17.2755 18.9606 16.9133C19.2003 16.551 19.1023 16.0619 18.7401 15.8213C18.0165 15.3409 17.2255 14.99 16.3986 14.7573C18.4303 13.4089 19.7735 11.1024 19.7735 8.48702C19.7735 4.33864 16.3986 0.962891 12.2493 0.962891C8.10009 0.962891 4.72521 4.33864 4.72521 8.48702C4.72521 11.1033 6.06921 13.4089 8.10096 14.7581C4.60796 15.746 2.03809 18.9546 2.03809 22.7591V23.8354C2.03809 25.0193 2.87459 26.0369 4.02346 26.253C6.69834 26.7736 9.46596 27.037 12.2493 27.037H12.3193C12.7542 27.037 13.0718 26.6844 13.0718 26.2495C13.0718 25.8146 12.6842 25.462 12.2493 25.462C9.56659 25.462 6.89959 25.2074 4.31921 24.706C3.91059 24.629 3.61396 24.2633 3.61396 23.8354V22.7591C3.61396 19.0386 6.63971 16.0129 10.3593 16.0129ZM6.30109 8.48702C6.30109 5.20664 8.96896 2.53789 12.2493 2.53789C15.5297 2.53789 18.1976 5.20664 18.1976 8.48702C18.1976 11.7674 15.5297 14.4361 12.2493 14.4361C8.96896 14.4361 6.30109 11.7674 6.30109 8.48702Z" fill="white"/>
<path d="M23.9916 18.751H16.3914C15.3055 18.751 14.4209 19.6347 14.4209 20.7215V25.0685C14.4209 26.1544 15.3046 27.0372 16.3896 27.0372H23.9916C25.0775 27.0372 25.9621 26.1535 25.9621 25.0667V20.7215C25.9621 19.6347 25.0775 18.751 23.9916 18.751ZM16.3914 20.326H23.9916C24.2095 20.326 24.3863 20.5036 24.3863 20.7215V21.3882H15.9968V20.7215C15.9968 20.5036 16.1735 20.326 16.3914 20.326ZM23.9916 25.4622H16.3896C16.1726 25.4622 15.9968 25.2855 15.9968 25.0685V22.9632H24.3863V25.0667C24.3863 25.2846 24.2095 25.4622 23.9916 25.4622Z" fill="white"/>
</g>
<defs>
<clipPath id="clip0_491_8">
<rect width="28" height="28" fill="white"/>
</clipPath>
</defs>
</svg>
