<svg width="292" height="342" viewBox="0 0 292 342" fill="none" xmlns="http://www.w3.org/2000/svg">
<path d="M44.2685 205.869L32.5623 207.349L26.3727 208.56L21.5288 210.174L17.0885 212.462L15.2047 214.48L14.6665 215.96L14.801 217.709L15.8775 219.324L18.434 221.073L27.1801 224.572L62.1643 235.067L69.6994 238.027L73.3323 240.046L74.5433 241.391L74.6779 242.064L74.1397 243.14L72.525 244.217L68.6229 245.697L56.513 248.253L34.0424 252.155L24.8926 254.174L19.1068 255.923L14.801 258.076L10.6298 261.171L6.05496 265.746L2.6911 270.724L0.941883 274.895L0 279.066V283.238L0.941883 287.14L2.55654 289.965L6.18952 293.598L13.3209 298.039L34.5806 308.534L42.3848 312.571L46.9596 315.531L48.9779 317.818L49.6507 319.971L49.1125 322.259L45.4795 327.91L43.8649 330.332L43.5957 332.081L43.9994 333.292L45.8832 334.772L49.247 336.118L57.1858 337.598L70.9104 338.809L87.9988 339.751L114.91 340.558L208.56 341.5L228.743 341.231L246.639 340.02L258.883 338.405L266.553 336.521L272.877 333.965L277.856 331.139L281.623 327.775L284.583 324.277L286.602 320.644L288.082 315.934L288.755 311.225L288.082 308.265L286.467 305.17L281.489 298.577L271.397 287.678L267.764 282.699L266.688 280.008L266.553 277.452L267.764 274.357L269.917 271.531L276.645 265.746L281.219 261.709L282.43 259.556L282.565 258.48L281.489 256.461L278.394 254.443L267.764 250.137L264.4 247.984L263.189 246.37L262.92 245.293L263.189 243.948L264.938 241.526L269.513 237.893L284.718 227.667L289.293 223.764L290.773 221.746L291.311 219.997L290.907 218.382L289.293 216.902L286.736 215.691L280.143 214.076L271.128 212.731L251.752 210.982L223.899 209.636L146.396 207.214L100.109 205.465L71.7177 204.927L53.8219 205.196L44.2685 205.869Z" fill="url(#paint0_linear_341_8783)"/>
<path d="M132.133 183.129L130.922 181.38L127.02 177.478L125.943 174.114L125.674 170.616L126.347 166.983L127.424 164.83L129.307 163.753L132.133 163.619L138.995 164.426L147.069 166.175L149.894 166.041L151.374 165.368L152.854 163.484L154.873 157.564L156.487 150.433L156.084 145.185L156.891 143.839L160.793 142.359L162.004 141.014L164.83 135.362L169.405 124.194L171.288 121.907L181.918 112.623L185.955 110.47L189.319 109.528L193.894 109.259L198.468 109.932L201.832 111.277L214.615 120.158L218.652 124.463L229.281 139.534L232.645 145.992L233.318 149.625V153.931L231.3 169.943L231.434 175.594L233.453 187.57L232.914 199.141L233.318 203.178L235.336 214.75L236.547 231.973L237.489 236.413L242.064 246.774L243.813 253.636L244.217 258.48L243.41 273.012L243.006 286.467L243.141 290.1L245.024 299.385L249.734 316.742L249.868 319.972L249.196 324.95L247.985 327.776L246.774 328.718H244.89L240.45 327.641L235.471 326.699L234.125 326.027V325.219L235.336 322.797L235.067 319.03L239.508 299.385V294.406L236.682 273.819L234.933 268.975L231.973 262.382L231.031 257.673L230.896 248.388L231.165 244.352L230.223 239.508L226.187 228.071L221.477 217.172L216.364 199.276L213.673 193.625L211.117 190.261L210.04 189.723L209.098 190.395L207.349 193.086L202.774 203.985L200.352 213.001L199.41 219.728L199.276 231.435L200.218 244.083L202.505 258.615V262.248L201.025 267.092L184.34 304.901L183.667 307.458V310.956L183.533 314.051L181.918 317.55L179.496 320.644L177.478 321.586L174.383 322.663L169.001 327.238L166.579 328.583L163.753 329.39H160.524L155.815 328.449L154.334 327.641L154.2 326.699L155.949 324.277L159.717 322.124L166.175 319.972L169.136 317.55L174.787 310.687L178.554 304.632L183.264 294.675L186.493 285.526L188.915 276.779L189.857 270.321L189.992 262.517L189.453 252.56L188.377 246.908L185.417 237.086L183.264 223.361L181.245 209.368L179.093 201.967L175.729 194.432L174.518 193.625L171.961 193.086L163.081 193.49L161.331 192.817L159.717 191.741H158.506L152.854 193.49L147.607 196.047L145.992 197.527L145.588 198.872L146.799 203.582L147.607 209.233L147.069 213.404L144.243 225.38L143.301 232.376L143.166 237.086L143.57 239.508L144.781 241.795L143.974 247.177L144.243 257.807L146.53 276.241L150.298 294.944L151.105 302.479L150.836 306.112L149.894 307.727L148.683 309.073V309.745L150.432 312.167L150.702 315.128L150.163 316.473L148.818 317.146L143.974 317.28L134.555 316.608L133.075 315.935L132.94 315.262L134.959 312.167L137.919 309.342L139.13 306.382L141.014 290.504L141.417 282.969L140.61 273.416L138.726 262.517L132.94 243.679L132.133 237.489L132.268 230.224L135.497 203.716V199.141L134.689 195.374L133.075 191.741L129.307 187.57L129.173 186.493L132.133 183.668V183.129Z" fill="#9E6928" stroke="black" stroke-linejoin="bevel"/>
<path d="M123.252 137.246V139.534L123.925 144.108L123.252 155.68L122.445 161.735L122.848 164.157L124.329 166.445L125.27 167.117L127.154 165.368L128.365 163.888L129.845 163.619L143.032 165.234L150.029 166.983L151.643 167.386L152.854 166.445L154.334 164.023L155.411 159.717L156.622 145.992L156.218 143.705L155.142 143.032L152.451 142.494L148.548 140.206L145.454 139.399H133.747L130.249 138.592L125.001 136.17L123.656 136.035L123.252 137.246Z" fill="#6A625D"/>
<path d="M143.839 8.61145L143.705 9.68789L143.974 10.7643L145.992 14.1282L151.105 18.9722L151.912 20.8559L151.778 23.4125L151.374 26.6418L151.912 28.5256L154.334 31.6203L157.295 34.9842L158.102 37.2716L158.506 41.1737L159.582 43.192L162.273 45.8831L169.405 50.3234L178.958 54.091L181.649 56.6475L182.995 57.8585L183.533 57.3203L183.802 54.3601L183.936 49.247L184.475 45.2103L184.071 41.1737L183.129 37.4062L180.707 32.9659L165.772 13.59L164.964 11.8408L165.233 11.3025L165.637 10.3607L164.561 6.99679L162.811 4.03659L160.255 1.74916L158.506 1.21094H156.622L151.778 2.82559L146.799 5.38213L144.108 7.93868L143.839 8.61145Z" fill="#CAB42E" stroke="black" stroke-linejoin="bevel"/>
<path d="M123.118 72.121L121.637 75.4849V78.0415L122.714 83.6928L122.445 87.3257L121.234 91.4969L117.332 99.5702L115.448 101.858L111.546 104.683L108.72 108.316L103.742 111.142V111.546L107.913 112.891L108.72 113.833L109.931 113.698L116.39 111.68L120.696 110.738L122.714 109.527L123.656 107.105L124.732 102.396L125.136 101.723H125.943L128.096 103.203L131.595 107.374L132.671 110.335L134.151 110.469L136.439 110.335L136.977 110.873L137.111 113.564H137.784L141.013 111.142L144.243 108.451L147.876 106.971L148.818 105.625L149.49 101.185L149.894 98.3592L151.105 94.8608L152.854 92.977L155.949 91.2278L161.466 88.8058L162.946 87.4603L164.964 83.4236L169.001 81.0017L175.325 78.8488L178.016 78.4451L181.918 78.9833L184.205 79.1179L186.358 77.9069L187.569 75.6195L187.704 72.9284L187.166 68.3535L185.686 62.164L184.34 59.3383L181.918 57.5891L179.227 55.8399L175.594 52.3415L173.845 51.8033H168.328L166.041 50.8614L162.004 47.363L159.178 43.8645L158.775 42.2499L159.044 39.8279L157.967 36.8677L155.545 33.7729L153.662 32.8311H151.509L149.221 33.9075L144.243 38.7515L142.897 41.1734L141.552 44.2682L139.802 45.7483L135.093 47.7666L133.747 49.3813L132.267 52.0724L130.653 52.6106L129.038 53.0143L126.078 56.6472L125.27 58.9347L125.54 60.6839L125.809 62.2985L125.405 67.1425L124.463 69.5645L123.118 72.121Z" fill="#D4AD82" stroke="black" stroke-linejoin="bevel"/>
<path d="M166.041 85.3073V85.4418L166.175 86.3837L168.597 87.8638L175.728 91.0931L181.245 93.1114L183.398 94.7261L184.34 96.7444L184.744 103.068L185.955 104.818L185.551 105.625L182.456 108.182L170.884 116.12L168.866 118.408L168.328 120.426L168.597 121.368L169.135 121.637L171.423 121.233L175.728 119.081L181.38 114.775L185.147 113.429L188.511 111.276L190.126 111.007L195.373 111.815L201.428 112.218L205.6 111.276L207.887 110.065L208.963 108.316V106.029L206.945 99.301L203.85 89.613L201.563 85.5764L199.276 83.6926L195.104 81.8088L184.475 79.3869L178.689 78.8486L174.921 79.2523L171.288 80.5978L166.713 83.4235L166.041 84.6345V85.3073Z" fill="#777359" stroke="black" stroke-linejoin="bevel"/>
<path d="M166.579 117.332H163.484L158.371 115.986L152.047 113.564L150.567 112.084L149.625 109.797L149.087 105.626L149.491 99.167L150.432 96.2068L152.316 94.1885L157.564 90.9592L165.233 87.3262H167.252L169.405 88.5372L172.903 91.3628L174.921 91.901L178.151 92.1701L181.111 94.1885L183.533 97.2832L184.744 100.513L184.878 103.204L184.206 105.895L182.726 107.644L180.035 109.124L175.325 110.739L172.634 112.757L168.463 116.525L166.579 117.332Z" fill="#9A8777" stroke="black" stroke-linejoin="bevel"/>
<path d="M152.854 121.638L154.334 118.005L155.545 116.794L156.756 116.659L158.506 117.063L163.619 119.888L164.561 121.369L164.83 123.252L163.619 129.576L162.139 136.035L162.004 139.668L161.062 141.148L158.775 142.359L155.276 142.628L153.662 141.955L152.316 139.803L151.105 135.362L150.836 131.595L151.105 128.5L152.854 121.638Z" fill="#675A56" stroke="black" stroke-linejoin="bevel"/>
<path d="M123.521 113.967L124.867 108.854L126.482 107.24L129.038 106.298L130.249 106.432L131.595 108.72L132.537 110.2L133.882 110.469L135.9 110.334L136.573 110.873L137.65 113.967L138.726 114.506L142.225 113.698L146.665 112.218L148.818 112.353L151.912 113.564L154.065 115.448L154.334 116.524L150.701 125.943L150.432 128.096L151.912 135.227L151.24 136.976L149.894 137.515H147.203L138.592 136.573L133.613 137.515L129.711 138.591L127.558 138.322L125.271 136.573L122.445 131.863L119.754 125.001L119.888 123.386L121.638 118.004L123.521 113.967Z" fill="#905745" stroke="black" stroke-linejoin="bevel"/>
<path d="M25.5656 85.8457L26.642 83.4237L29.3331 82.0782L33.1006 81.0017L42.3849 80.4635L51.131 78.4452L54.4949 78.3106L62.299 75.2159L67.2776 74.0049H70.2378L76.8309 76.1578L79.1184 77.7724L83.9623 83.6928L84.2315 85.3075L82.7514 92.9771V95.9373L83.9623 103.338L84.0969 107.24L82.4822 113.295L81.4058 115.717L81.944 116.793L83.9623 118.408L85.577 121.099V124.867L87.7299 129.711L89.7482 132.133L92.843 133.747H94.1885L95.9377 131.056L101.724 125.001L106.164 119.619L108.317 116.524L110.201 115.313L113.968 114.371L118.139 114.102L120.83 114.64L122.445 115.851L122.58 116.793L119.485 121.503V123.252L123.925 135.9L124.194 138.591L123.387 143.435L122.849 153.661V159.313L125.943 177.074L127.289 181.514L127.154 182.725L125.271 183.667L120.023 185.013L118.947 186.089L118.274 190.26L117.87 195.239L116.39 201.428L116.255 206.945L116.928 217.844L119.216 228.877L120.965 244.62L120.83 247.177L118.408 255.25V259.96L119.081 266.418L119.485 280.681L120.83 299.384L121.099 306.246L120.427 307.457L116.525 309.341L115.179 310.687L114.775 318.087L113.834 319.298L110.739 319.836L103.338 319.702L95.8032 318.895L93.9194 318.222L93.7848 317.549L94.8613 316.338L97.2833 314.992L104.28 312.57L105.895 310.956L107.509 306.65L110.335 296.155L112.219 284.179L112.353 275.568L111.546 257.538L110.739 252.828L108.855 247.446L108.451 242.737L108.72 228.608L107.779 218.651L106.298 212.596L101.858 201.697L97.5524 185.685L95.5341 181.514L93.7848 179.899L91.9011 179.092L87.8644 178.15L70.776 168.866L67.9503 166.175L64.8556 159.851L57.9933 141.955L57.5896 138.995V134.285L53.2839 121.234L53.1493 119.215L55.0331 116.793L54.764 115.582L53.0147 114.371L44.1341 111.68L42.654 110.469L42.2504 108.72L42.1158 106.433L41.3085 105.625L39.5593 104.952L32.8315 101.32L29.7368 100.378L26.642 100.243L23.1436 100.512L22.2017 99.8394L21.6635 97.1483L20.0488 94.9954V92.708L20.7216 90.6897L24.4891 87.864L25.5656 85.8457Z" fill="#9E6928"/>
<path d="M87.4606 332.754L86.9223 332.485L85.7113 331.947L83.2894 331.274L81.0019 331.139L83.8276 330.736H85.5768L87.1915 331.139L88.537 331.678L89.4789 332.216L90.0171 333.292V333.561L89.748 333.965H88.9407L87.4606 332.754ZM151.912 332.754L151.24 332.216L150.163 331.947H148.818L147.068 332.216L144.781 332.485H143.974V332.216V331.947L145.05 331.139L147.337 329.928L148.279 329.659L149.356 329.39L150.163 329.659L151.105 329.928L151.912 330.197L152.451 331.139L153.258 331.678L154.065 332.216L155.276 332.754L156.353 333.023L157.833 333.561L155.814 333.965L154.469 333.561H153.258L152.451 333.023L151.912 332.754ZM160.658 331.947L160.927 331.139L160.658 330.467L160.389 330.197L158.909 329.39L158.371 329.121L158.64 328.852H161.466L166.041 329.39L170.885 330.467L172.499 331.139L173.307 331.274L173.037 331.678H171.961L164.291 332.216H161.466L160.658 331.947ZM58.9349 330.467L59.2041 329.928L59.7423 329.659L62.4334 329.39H63.5098L64.5862 329.659L65.3936 329.928L65.7972 330.467L65.3936 330.736L64.5862 331.139L63.5098 331.274H62.4334L59.7423 331.139L59.2041 330.736L58.9349 330.467ZM176.536 326.564L176.67 323.739L176.132 322.797L175.594 322.662H172.499L170.885 321.99V321.451L171.961 320.644L173.037 320.375H176.67L178.42 319.164L178.689 317.818V316.338L179.9 313.513L182.322 310.149L182.86 308.534L182.725 308.13L181.245 309.072L180.976 308.669L182.86 305.305L182.725 305.036L182.86 303.421L185.686 297.366L186.089 295.482L185.686 295.213L186.358 293.733L187.166 293.195L188.377 291.58V290.907L187.973 290.638L188.377 289.831L189.991 287.813L190.26 286.736L189.722 285.929L189.453 284.449L189.722 283.641L190.799 283.103L193.086 280.278L194.028 278.259V277.452L193.624 276.51L192.548 275.703V275.434L193.086 275.165H195.373L196.45 274.223L196.181 273.146L196.45 272.339L198.737 269.782L198.468 269.513H196.988L196.854 269.11L198.468 267.764V267.495H195.373L194.028 266.957V265.342L197.392 264.4L201.025 264.131L201.563 263.862L201.832 262.651L199.276 249.734L198.737 244.082L198.468 237.086V217.441L198.737 211.251L199.006 209.367L200.756 205.061L203.581 199.679L206.676 192.01L210.04 181.649L210.578 178.554L213.135 176.805L213.807 175.729L213.135 175.056H212.596L212.058 175.459L211.52 174.921L211.789 172.903L213.135 170.885V170.346L212.866 170.077V169.27L213.807 167.521L216.229 163.753L217.171 160.928L217.44 159.582V157.967L216.768 153.662L215.691 149.625L214.884 149.49L213.942 149.625L213.135 150.298L215.422 143.166L213.807 137.246L213.942 136.169L214.346 135.9L214.884 136.169L216.768 139.264L221.073 150.298L221.881 153.931L222.419 158.102L222.823 162.677L222.419 188.377L221.612 196.585L221.343 197.123H220.804L220.266 198.065L221.343 199.41L223.899 200.487L224.168 200.89L223.899 202.236L223.092 203.716L224.437 205.331V206.003L224.168 206.138V207.349L225.11 207.618L225.245 208.156V212.193L226.456 215.019L228.07 215.288L229.012 215.019L230.896 213.538H231.3L226.456 220.939H225.917L224.437 219.19L223.63 218.652L223.361 218.921V219.728L226.187 226.321L228.743 230.761H229.012V229.147L228.743 227.128L229.012 225.379L229.82 223.495L233.722 218.113L234.26 216.902V216.364L233.452 216.633L230.358 220.266L229.012 220.939L229.281 219.728L232.376 215.557L232.914 214.077V213L232.376 212.193L230.627 211.655L229.82 211.789L227.936 213.538V213.269L230.627 208.425L230.896 207.349L230.089 207.618L229.281 208.156L226.187 211.655V210.713L229.82 206.138L230.089 205.331V204.523L229.012 203.716L228.743 202.774L229.82 201.967L230.358 200.487V198.872L230.089 198.603L228.743 199.948L227.532 203.178L227.936 205.061V205.6L227.532 206.542L226.187 207.08L226.725 204.523L225.11 204.792V203.985L226.187 201.698L230.627 195.508L231.838 193.759L231.3 192.682H230.896L229.55 193.759L226.456 198.065L225.245 198.334L224.706 197.661L224.168 195.508V191.875L224.706 186.358L225.648 181.111L226.187 170.077V164.426L225.648 153.931L225.11 149.49L223.361 142.09L223.092 139.264V137.246L223.63 135.362L225.11 133.075L227.263 134.689L229.82 137.515L232.107 141.821L233.183 145.185L233.722 150.298L234.125 159.313V185.82L234.663 203.985L236.951 222.015L237.489 229.685L238.835 235.875L240.584 242.064L243.41 249.195L244.217 252.021L244.486 255.923V270.051L244.217 283.911L244.486 293.733L245.428 299.115L246.235 300.192L246.773 300.595L250.137 299.653V299.384L248.254 298.577L247.581 297.77L247.85 297.232L248.792 296.828L251.617 296.559L261.171 296.828L270.993 298.577L276.106 300.192L277.586 301.403V301.941L276.51 302.883L262.516 307.592L261.709 308.669L263.189 309.88L268.168 312.167L263.727 314.724L259.691 317.549L253.905 322.662L251.214 323.739L251.079 322.662L249.868 321.72L247.85 321.451H246.504L245.562 321.182V320.913L247.043 319.837L247.312 318.626L247.043 316.607L245.966 313.243L244.486 307.054L243.41 300.057L242.737 294.406L240.853 286.467L239.911 285.525L239.777 287.544L241.122 293.733L241.929 305.843L242.199 315.531L241.929 316.069L241.66 315.531L239.911 301.672L238.835 308.534L236.278 318.895L236.951 320.375H238.566L239.104 320.644L239.777 321.451L239.104 322.259L238.566 322.662L236.951 322.797L235.202 324.546V325.488L240.584 327.103H241.391L241.66 326.564L241.391 324.815V323.47L242.199 323.201L242.737 324.008L243.14 324.815V325.623L243.679 326.564L244.755 327.103H245.428L246.773 326.026L247.85 323.201H248.388L249.061 324.546L248.792 328.448L247.85 329.928L247.043 330.197L244.486 329.928L235.471 326.834L232.914 325.084V324.546L234.26 321.99L229.281 322.259L221.612 323.739L217.171 325.084L212.596 326.026L199.814 327.91L180.976 330.197L177.074 330.467L176.536 329.39V326.564ZM180.976 323.201L180.438 322.797L179.9 322.662H179.227L178.958 322.797L178.689 323.47V323.739V324.277L178.958 324.546H179.227L179.9 324.277L180.438 323.739L180.976 323.201ZM189.722 321.72H187.704L186.358 321.99H186.089L186.358 322.259H188.377H189.991V321.99L189.722 321.72ZM201.025 321.72H197.93H194.835L194.028 321.99H194.162L197.93 322.259L201.294 321.99H201.563L201.025 321.72ZM223.899 321.451L224.168 321.182V320.913L223.361 320.644H221.612H218.517L213.807 321.182L212.327 321.451L212.058 321.72L212.596 322.259H213.942L217.44 322.662L221.343 322.259L222.823 321.99L223.899 321.451ZM206.945 317.146H205.869H205.331L204.927 317.549L204.658 317.818H204.927L206.407 318.087L207.483 317.818V317.549L206.945 317.146ZM182.053 313.782L181.783 312.974V312.436L181.514 312.705L180.976 313.513L180.034 314.993L179.9 316.069V316.338L180.034 316.607L180.976 316.338L181.245 316.069L181.514 315.262L182.053 313.782ZM196.988 311.494H193.355H190.26L189.453 311.898H189.991L194.028 312.167L197.661 311.898H197.93L196.988 311.494ZM210.982 310.149V309.341H210.578H209.502L207.483 310.149L206.138 310.687L205.869 310.956L206.407 311.36H207.483H208.694L209.502 310.956L210.309 310.687L210.982 310.149ZM192.548 308.13L195.643 307.592L198.737 305.843L202.639 305.708L204.12 305.036L204.389 304.228L203.85 303.69L199.276 301.941V301.672L199.679 301.403L201.294 300.864L207.753 300.057L238.296 298.577L237.758 290.1L237.489 282.7L235.74 272.877L232.107 264.131L230.089 257L229.82 254.847L230.089 248.523V246.101L229.82 243.275L228.07 236.682L225.648 229.685L222.419 222.957L219.593 215.557L217.171 206.542L213.942 199.141L211.52 195.777L208.694 193.221H207.753L204.389 202.236L200.756 216.095L200.217 220.939L199.814 226.321V231.972L201.025 244.351L202.101 251.214L203.85 259.287V262.113L201.563 268.302L192.817 287.813L184.609 308.534L184.34 310.149H184.878L188.915 308.669L192.548 308.13ZM212.596 292.118L212.058 291.715L212.596 291.58L215.96 291.715L219.593 292.388L221.343 292.926H221.612L221.343 293.195H220.804H217.979L214.615 292.926L213.404 292.657L212.596 292.118ZM206.676 228.205L208.156 227.936H210.04L210.309 228.205V228.609H208.694H206.676L206.407 228.205H206.676ZM212.596 302.479H211.52H210.982L210.578 302.883L210.309 303.017H210.578L212.058 303.421L213.135 303.017V302.883L212.596 302.479ZM255.519 301.403H254.443H253.905L253.501 301.672L253.232 301.941H253.501L254.981 302.21L256.058 301.941V301.672L255.519 301.403ZM273.684 301.134L273.281 300.595H273.012H272.742H272.473L271.666 301.134L271.397 301.672L271.666 302.21H272.473H272.742L273.012 301.941L273.281 301.672L273.684 301.134ZM241.391 275.972L241.66 270.321L241.929 268.302L242.199 267.495L242.602 266.957V266.284L241.929 266.149H241.391L240.853 266.284L240.315 266.688L239.373 267.764L238.566 269.11V271.397V271.935L238.835 272.339H239.104H239.777L240.315 271.935H240.584L239.911 273.415L239.777 274.223L239.373 275.703V279.067L239.777 281.892L240.315 282.7L240.584 283.103L240.853 282.43L241.122 281.085L241.391 275.972ZM236.951 261.574L236.278 258.48L236.547 257.403H236.951L237.489 257.807L238.835 260.498L239.373 262.113L240.315 263.055L241.929 262.651L242.737 261.844L242.602 261.574H240.853L239.777 260.633L237.489 254.847L234.26 249.465L233.183 248.388L232.914 247.177H234.663L236.009 246.101V244.89L234.26 245.159L233.722 242.333H233.452L232.914 243.275L231.434 249.465V254.847L231.838 257.403L232.914 261.036L233.722 261.844L234.125 261.036V260.229H234.26L236.547 265.88L236.951 266.149L237.085 265.477L236.951 261.574ZM242.199 252.828L239.373 245.159L238.296 242.737L237.489 240.988L236.951 240.718H236.547H236.009L235.74 241.257L235.471 241.526V242.064L235.74 242.333H236.278L236.951 242.737L237.085 243.275V244.351L236.951 245.697V247.177V248.388V248.926L237.489 249.195L237.758 249.465L238.296 249.734L239.104 250.81L239.911 253.098L241.122 256.192L241.391 257L241.929 257.672L242.602 257.807L243.14 257.672L243.41 257V255.923L243.14 254.578L242.199 252.828ZM235.202 235.875L234.933 234.798L234.663 233.587V231.972V230.492V228.609V228.205L234.26 228.609L234.125 229.416H233.452H232.914L232.107 228.609L231.3 227.936H230.896L230.627 228.205V229.147L231.3 231.031L231.838 234.798L232.107 237.624L232.376 238.7L232.645 239.238H233.183L234.26 238.969L235.202 238.162L235.471 237.624V236.682L235.202 235.875ZM232.376 224.572L233.722 223.092V223.495L233.452 224.572L233.183 225.379L233.452 225.917V226.59H233.722L234.26 226.321L234.663 225.783L234.933 224.572V223.092L234.663 221.477L234.26 220.67H234.125L233.183 221.208L231.838 222.554L230.358 224.572L229.82 225.917V226.59H230.089L231.3 225.917L232.376 224.572ZM231.838 189.049L231.434 188.646H230.896L229.55 189.857L227.936 191.471L227.263 192.413V192.952V193.221H227.936L229.55 192.01L230.896 190.395L231.434 189.588L231.838 189.049ZM232.376 183.936L232.107 183.533H231.434L230.358 184.475L229.281 185.551L228.07 187.3L227.532 188.646V189.184L228.07 188.646L229.82 187.031L231.838 185.013L232.376 184.205V183.936ZM231.434 164.964V164.695L231.3 164.964L229.82 166.041L228.743 168.059L228.474 169.27V170.077V170.346H229.012L230.089 168.866L231.3 166.982L231.434 165.771V164.964ZM229.55 159.582L229.012 159.313V159.851L229.281 160.928L229.55 162.139L229.82 162.677H230.089L230.358 162.408V161.6V160.928L230.089 160.12L229.55 159.582ZM231.3 148.548V147.203L230.896 146.261L230.627 145.992L230.358 146.261L229.82 146.799V147.741V148.548V149.625L230.627 151.374L230.896 151.643V151.912L231.3 150.836V148.548ZM230.358 142.359V142.09L229.82 142.359L228.743 143.435L227.936 144.915L227.263 145.185V144.646L227.936 143.166L228.07 141.821V141.148L227.936 141.013L227.263 141.148L226.456 141.552L226.187 141.148V140.61L226.456 139.533L226.994 137.515L226.725 137.784L226.187 138.726L225.648 139.533V141.013V142.359L226.187 143.974L226.994 145.992L227.532 146.665L227.936 146.799L228.07 146.665L229.012 145.454L230.089 143.839L230.358 142.359ZM224.437 326.834L225.11 326.564L225.648 326.295L227.936 326.026L229.82 326.295L230.627 326.564L230.896 326.834V327.372L230.358 327.641L227.936 327.91L225.245 327.641L224.437 327.372V326.834ZM153.931 325.623V324.815L154.469 324.008L155.276 322.797L156.083 321.99L157.564 321.451L158.909 320.913L161.735 320.375H163.215L164.022 320.644L164.56 320.913V321.451L164.022 321.99L162.946 322.259L161.735 322.662H160.658L158.909 322.797L157.564 323.201L156.353 324.008L155.545 325.084L154.738 326.295L154.065 326.834L153.931 326.564V325.623ZM100.243 321.182L95.1302 320.644H89.2098L84.3658 320.913L81.271 320.375L80.7328 319.971H79.9255L78.1763 320.644L77.0998 321.451V320.375L77.6381 319.433L81.0019 318.895H84.0967L87.1915 319.164L89.4789 318.895L92.8428 317.011L94.0537 315.8L95.3993 314.993L98.494 313.513L100.781 312.974L101.32 313.243L101.589 313.782L99.0323 315.531H97.9558L95.3993 316.607V317.549L97.4176 318.357L99.8396 318.626L109.797 318.895L108.72 321.451L107.509 322.259H104.145L100.243 321.182ZM115.448 320.913L115.717 320.644V319.837L113.161 316.069L113.43 314.993L115.179 312.705H115.717L117.197 313.782L121.637 314.724L124.463 314.993H131.325L132.402 314.185L133.747 311.494L135.497 309.88L136.304 309.611L137.515 308.13L138.053 305.843L138.322 302.479L139.802 296.828L140.341 288.889V282.43L139.13 269.11L138.053 262.651L136.573 257.403L132.94 248.926L132.402 246.101L131.864 237.893L132.671 196.854L132.402 194.701L131.325 192.682L128.634 190.933L125.674 189.857L122.31 189.184L119.619 189.857L119.081 190.664L117.466 206.138L117.735 212.193L118.543 217.441L120.561 223.765L120.292 231.569L121.907 240.449L122.445 245.697L121.637 253.636L120.023 257.807L119.619 260.498L121.907 303.959L121.099 308.13L118.004 309.88L116.794 310.149H114.641L113.161 309.341V308.534L112.353 307.054L111.142 306.516L111.815 305.305H112.353L113.161 305.708L114.641 307.054L116.659 307.592L120.023 306.785L120.561 305.708V303.017L118.543 286.736L117.735 284.718H117.466L117.197 284.449V278.797L117.466 274.223L117.197 273.684L115.986 274.626H115.717L115.448 273.415V271.801L116.255 267.226L117.466 265.342V264.669L117.197 264.131L116.255 264.4L114.91 265.477L113.968 267.226L113.43 269.782L113.161 273.415V278.528L112.622 287.813L110.335 300.864V301.941L110.604 302.479L108.989 305.036L108.72 307.323L107.24 310.687L106.164 312.167L105.491 312.436H104.414V312.167L106.702 306.785L111.142 289.562L111.546 286.736L111.815 280.278L111.142 263.324L110.066 252.559L108.317 246.37L107.778 242.737L107.509 238.162V226.321L106.971 221.208L105.491 215.557L95.1302 184.205L94.1883 182.994L91.7663 181.38L81.5401 177.343L76.6962 174.248L75.6197 173.979H73.8705L71.4485 174.921L66.6046 175.729L64.5862 175.459L56.3784 172.23L51.9381 169.404L49.9198 167.79L45.614 162.139L42.2502 154.2L38.079 140.072L36.5989 132.133L36.3297 129.711L36.5989 124.194L38.3481 135.9L41.981 149.087L44.2685 155.68L46.2868 159.313L48.4397 162.677L51.1308 165.771L54.091 168.328L57.5894 170.615L64.8554 173.172L68.6229 173.441H74.2742L70.2375 170.615L67.4119 167.521L65.3936 164.695L62.5679 155.949L62.0297 152.316L62.4334 151.912L62.9716 152.451L67.4119 163.753L68.0847 164.426L69.9684 161.869L71.4485 157.967H70.9103L68.0847 159.851L67.681 159.582V157.967L69.6993 150.567V149.49L68.6229 148.01L68.0847 146.665L67.1428 142.628L66.8737 138.995L67.1428 137.515L67.4119 137.246L68.0847 137.515L68.2192 138.322V141.013L68.0847 143.435L68.2192 143.839L69.6993 142.09H69.9684L69.6993 145.723L69.9684 146.665L71.0449 148.279L71.7177 152.451L72.525 155.142L73.736 157.295L75.0815 159.313L74.5433 160.928L73.8705 161.869H73.736V161.331L72.525 159.851L71.7177 160.389L71.4485 162.139L70.2375 164.964L69.1611 165.771V166.579L69.9684 167.521L73.3323 169.27H74.5433L74.8124 167.79L74.2742 166.444L73.736 166.041L73.0632 166.444H71.9868L71.7177 166.041L72.2559 164.695L73.8705 163.753H75.8888L76.5616 164.426L76.6962 165.233L76.5616 167.79L77.0998 169.404L77.9072 169.808L79.5218 169.27L82.0784 167.252L85.5768 162.139L90.5553 151.374L93.1119 144.377L94.592 135.497L86.9223 135.9L85.5768 135.497V135.362L86.9223 133.882L87.1915 133.075V131.595L85.7113 127.692L84.904 126.212L84.0967 125.943L82.8857 129.845V131.325L85.5768 131.864L84.904 132.536L81.8093 133.613H81.271L80.4637 133.075L81.271 130.518L82.0784 128.769L81.5401 128.231L77.0998 132.536L77.2344 131.595L83.2894 124.194L84.3658 122.31L84.6349 120.83L83.8276 119.216L82.3475 118.005L79.9255 119.485L73.0632 124.194L81.0019 114.372L81.271 113.564H80.7328L71.4485 120.023L82.0784 109.258L82.7511 108.451V107.913L82.0784 107.24L81.0019 107.106L78.1763 108.451L70.9103 114.641H70.2375L80.4637 104.415L82.3475 101.051L81.271 101.454L69.6993 110.739L66.8737 112.353V112.084L68.892 110.066L79.9255 100.782L80.4637 99.9742L80.06 99.7051L79.2527 99.9742L73.3323 104.28L68.892 108.182L64.8554 113.564L61.2224 119.754L61.4915 117.735L63.2407 113.564L62.9716 112.891L61.7606 112.353V111.546L61.4915 110.739L62.0297 108.451L61.7606 107.106L61.2224 106.702L59.2041 107.913L58.6658 108.989L57.3203 110.739L55.0329 111.277L52.2072 110.739L47.6323 109.258L44.2685 107.913L42.6538 107.644L43.192 109.258L44.5376 111.277H45.0758L48.3051 112.084L58.3967 112.891L58.6658 118.543V134.42L59.2041 142.628L59.7423 145.185L60.6842 147.203L61.7606 148.818L62.0297 150.567L61.7606 150.836H60.9533L60.4151 150.567L59.6077 149.625L58.1276 146.261L56.9166 142.628V138.995L57.3203 137.784L56.3784 132.133L54.7637 127.423L53.9564 126.481L53.2836 125.136V123.118L52.4763 120.023L51.9381 119.216L51.1308 118.543V117.466L52.7454 116.928L53.2836 116.121L52.2072 115.179L47.9015 114.102L45.0758 113.833L41.981 112.084L40.6355 109.258L40.3664 106.433L40.6355 105.895L39.8282 105.625L37.8098 106.164H37.0025L36.3297 105.895L36.0606 104.818L33.7732 103.338L28.6601 101.589L24.758 101.051H22.4706L21.1251 100.782L20.5868 99.9742L20.8559 97.1485L19.5104 94.8611V92.9773L20.3177 90.6899L21.9324 88.1334L26.2381 84.635H27.8528L28.5256 85.8459V86.3842L29.3329 86.6533H31.3512L33.7732 86.1151L36.0606 85.0386L37.0025 83.2894L34.9842 82.213L33.5041 81.8093H31.8894L28.1219 83.0203L27.3146 83.5585H26.2381V82.7512L27.5837 81.6748L32.9659 80.7329L44.8067 79.6564L49.6507 77.6381H50.7271L56.1093 76.8308L65.259 74.0051L67.681 73.3324H69.6993L75.3506 75.6198L69.4302 76.0234L68.6229 75.6198L67.4119 74.5433H66.6046L65.259 74.8125L59.2041 77.369H57.3203L56.7821 77.6381L59.6077 80.1946V80.4638L59.2041 80.7329L57.5894 80.4638L52.4763 78.9837H50.7271L49.1124 79.3873L42.6538 83.0203L42.2502 83.5585L41.1737 90.2863V91.7664L41.981 92.5737L45.614 94.0538L46.2868 94.8611L45.4795 95.3993H41.7119L39.9627 94.8611L40.3664 94.0538L39.8282 93.1119H39.1554L38.3481 93.5156L37.8098 94.0538L37.0025 98.225L35.7915 97.1485L33.5041 96.6103L33.235 96.8794L33.5041 97.4177L35.7915 98.7632L39.4245 99.9742H42.7884L44.5376 100.243L49.1124 102.531L50.7271 103.607L55.8402 108.182L56.7821 108.451L57.5894 108.182L66.6046 100.243L66.8737 99.7051L66.3355 99.436L61.4915 99.1669H55.8402L49.1124 97.9559L47.9015 97.1485V96.6103L50.458 95.9376L56.7821 96.3412L56.1093 95.9376L50.458 94.8611L55.0329 94.3229L62.4334 92.3046L62.9716 92.5737V94.3229L62.5679 96.3412L62.9716 96.6103L64.3171 96.3412L68.2192 94.0538L69.1611 92.9773L68.892 92.5737H68.2192L65.259 94.0538L64.048 94.3229L63.7789 93.7847V90.2863L62.9716 86.9224L63.2407 86.3842L64.8554 85.8459L66.0663 86.6533L67.1428 88.9407L69.1611 90.2863L70.5067 90.6899L72.525 89.748L73.3323 88.6716L73.0632 85.8459L72.2559 85.3077L69.1611 84.635H67.1428L66.0663 84.5004L65.259 83.8276L64.5862 83.0203L64.8554 82.213L65.3936 81.6748L68.2192 81.002H69.9684L72.7941 82.213L75.0815 84.0967L76.158 86.6533L76.6962 89.748L77.2344 90.1517H80.06V90.2863L79.2527 91.2281L75.0815 93.7847V94.0538L77.6381 94.8611L78.7145 94.592L78.9836 93.1119L81.0019 92.3046L81.5401 91.7664L82.3475 88.4025L82.0784 86.3842L81.271 85.5768L81.0019 83.5585L81.271 83.0203L81.0019 82.213L78.9836 80.4638L78.7145 78.9837L78.9836 78.1763L77.6381 77.369H76.6962L76.158 76.8308L76.6962 76.0234L77.6381 75.6198L79.2527 76.158L80.06 76.8308L81.5401 78.9837V79.6564L83.8276 82.213L85.5768 83.5585V85.8459L84.0967 92.3046L85.7113 97.6868L86.3841 102.262V106.433L85.7113 108.989L84.904 110.066H85.1731L85.5768 110.469V111.008L82.8857 115.717V116.39L84.904 117.735L86.115 121.234V122.579L86.6532 124.194L88.537 128.231L90.5553 131.325L92.3045 132.671L94.8611 130.787L99.3014 126.212L104.684 119.485L105.491 117.197L108.182 114.372L107.778 114.102L106.702 113.833H99.8396L99.0323 113.295L98.7632 112.353V111.546L99.3014 110.739L100.781 109.931L104.953 108.451L109.797 105.625L115.717 99.436L121.368 89.4789L121.907 88.9407H122.31L122.848 90.2863L122.445 93.7847L121.907 95.803L120.561 96.8794V98.6286L120.83 99.7051L119.081 99.436L118.004 100.243L117.735 100.782L119.619 100.243L119.081 103.338L120.023 103.069L122.445 97.6868L123.925 91.7664V90.6899L121.368 82.213L120.561 77.369V75.6198L120.83 74.2742L123.925 68.3538L124.463 66.3355L124.732 64.1826L123.656 58.6659V56.7821L126.212 53.9565L129.845 51.669L131.864 51.1308L132.402 50.0544V49.1125L133.478 47.2287L136.573 45.2104L138.86 44.5376H139.802L140.879 43.9994L143.704 38.7518L148.818 32.1586L150.701 28.5256L151.105 27.4492V26.5073L150.432 25.9691H149.625L145.588 27.5837H144.243L143.704 26.2382L143.974 20.856L143.435 19.1068L142.763 18.2994L142.628 17.223L142.763 9.55339L141.955 7.66962L142.763 6.45863L146.53 4.1712L153.931 0.807329L157.833 0L159.582 0.26911L161.197 1.34555L165.233 5.38219L166.31 6.99685L166.848 8.47695L166.579 12.379L167.386 14.3974L180.438 30.4094L183.264 36.0607L184.609 41.712L186.358 58.5313L187.435 64.7208L189.453 70.9104L189.722 74.0051L188.511 77.0999V77.6381L189.453 78.4454L198.199 80.7329L201.025 82.7512L203.043 85.0386L204.12 88.6716L204.389 90.6899L205.331 92.9773L208.694 99.7051L210.982 107.913L211.52 111.277L212.327 113.833L213.807 116.121L217.71 120.292L222.419 126.885L224.168 130.249V131.595L223.361 131.325L217.71 124.598H217.44L217.171 124.867L217.44 126.212L218.517 128.231L219.997 129.845L220.804 132.536L221.881 133.075V134.689L221.343 135.497H221.073L217.71 129.307L216.633 128.5L215.96 126.885V125.674L215.422 124.194H215.153L213.942 124.867L213.135 125.674H212.866V124.867L213.404 122.041L213.135 120.83L212.596 120.023L209.233 118.408L204.389 115.179L199.814 113.564L197.392 112.891L194.566 112.757L192.548 112.891L191.202 113.564L189.722 114.641L187.704 117.197L188.377 117.466L191.337 117.197L192.01 117.466L192.817 119.485L196.181 123.387L195.643 123.656H193.355L192.279 124.867V125.405L193.355 125.943H194.566L196.854 125.136L202.505 122.041L204.389 121.368L205.331 122.041V123.656L204.927 125.405L205.465 125.943H206.407L207.483 126.481V128.231L207.214 129.038L207.753 130.518L210.04 131.325L213.404 130.518L213.135 131.325L211.116 133.613L210.578 134.958V136.169L211.116 138.995L210.982 139.264L209.771 138.322L209.233 136.708L209.502 134.151L209.233 133.344L207.214 132.671H205.869L204.927 132.536L204.658 131.595L205.331 129.307L204.927 128.5L200.487 129.038L203.312 124.194V123.387L203.043 123.118H202.505L196.45 127.962L195.373 128.5H193.086L192.279 128.769L190.53 129.845L191.202 126.481L190.799 125.943L189.184 127.02L188.377 127.962H187.973L192.279 121.234L191.741 120.292H191.202L188.511 121.772L183.264 126.212L183.533 125.405L187.435 120.561H187.166L186.897 120.292H185.686L184.609 120.561L182.725 122.041L181.245 124.194L176.132 128.769L176.536 127.962L186.089 116.659L188.377 113.564V112.891H187.435L181.514 117.197L181.783 116.39L182.322 115.717H181.783L176.67 120.292L175.594 120.83H174.518L173.71 121.234L169.943 125.674L166.579 134.151L164.83 139.533L163.484 141.821L161.735 142.897V142.359H160.927L158.64 143.435L158.102 143.974L156.756 153.123L155.007 159.313L155.814 148.279V145.992L155.545 144.646L155.007 143.974L154.469 144.377L153.527 148.279L153.258 151.374L152.72 147.203L152.181 145.723L151.24 145.454L150.701 147.203L150.432 148.818V156.756L135.228 156.218L128.634 156.756L128.096 157.295L127.827 154.2L128.096 151.912L128.5 151.643L129.038 152.854L131.325 153.931H132.133L132.94 152.854L134.286 148.279L135.497 142.359L134.689 151.643V153.662L134.958 155.142L135.497 155.276L136.035 155.142L136.977 151.105L137.111 147.472L137.515 145.723L138.322 143.974H138.591L138.86 145.723L138.591 151.912L138.86 153.662L139.802 154.469L143.435 155.142L144.243 154.469L144.781 152.854L145.05 143.435L146.261 153.931L147.068 155.276H147.876L148.818 153.931L149.894 143.435L142.628 141.821L141.955 152.451L141.417 144.377L140.879 142.628L139.802 141.821L130.922 141.148L124.732 139.802L124.463 140.072V141.013L125.136 141.821H125.674L126.212 142.09L126.481 142.628V143.839L124.732 152.451L123.656 162.677L124.194 164.695L125.27 165.502L125.943 163.753L128.5 162.946L129.038 162.408V162.139H131.325L137.111 162.946L152.451 165.771L153.527 166.579L154.065 168.059V172.23L154.469 173.441L155.007 173.979L156.756 173.71L157.294 174.921L158.102 174.518L162.004 168.328L163.484 166.579L162.946 169.808H163.215L168.193 163.753L170.481 160.793L171.692 158.775V157.967L169.943 158.506L169.674 157.967L169.943 156.756L171.423 155.142L171.961 153.931L171.423 153.662L169.943 154.738L169.135 156.218L168.597 156.487V155.949L169.943 151.912L170.885 150.298L172.23 150.029L173.71 151.912H174.248L174.518 151.643L173.845 148.818L172.499 145.992L170.212 142.897L169.943 141.013H171.019L173.307 143.974L174.248 142.359L174.518 141.148L175.056 141.013L175.594 141.552L177.612 145.185L178.42 145.723L179.496 145.454L179.227 146.261L175.056 152.854L174.518 154.2L174.787 155.276L176.67 157.967H177.074L177.343 153.931L178.42 151.105L183.264 145.185V145.454L181.245 150.029L180.438 152.451L178.958 164.426L177.612 168.866L175.863 172.903L174.787 174.518L172.23 177.074L171.961 178.823H172.23L173.307 177.343H173.845L174.248 178.285V181.649L174.518 182.187L174.787 181.918L175.056 180.169L175.594 178.823H176.132L176.67 180.169L178.42 188.377L178.689 190.933V194.701L178.958 196.046L179.496 196.585H179.9L180.976 194.028V192.952L181.245 191.875L183.533 188.646L181.514 196.046L181.245 198.334V200.487L182.322 205.061L183.264 215.019V218.382L183.533 221.477L184.609 227.936L186.627 234.26L191.202 244.621L192.01 248.926V252.828L191.741 254.578L190.799 256.192L190.26 259.018L191.741 267.226V270.051L189.453 279.067L185.551 291.715L185.686 292.118L187.166 291.58L184.878 294.002L184.609 295.482L184.878 295.751V296.29L183.533 298.039L177.074 308.669L168.597 318.626L167.655 320.644L166.848 321.182L164.83 319.837L162.542 318.895L160.389 318.626H156.353L131.325 319.971L116.659 321.451L115.448 321.182V320.913ZM146.53 314.32L147.068 315.8L147.607 316.338H148.279L149.894 314.32V313.513L149.625 312.436L147.607 310.149L147.337 309.341L149.087 307.861L149.894 304.767L150.163 302.21L149.894 299.115L144.781 271.935V268.302L143.974 262.113L143.704 261.305L143.166 261.036L142.224 258.48L140.61 249.734V247.984L141.148 245.562L143.435 242.737L143.704 242.064L143.435 241.795H142.763L139.802 244.082H139.13V243.275L139.399 242.737L141.955 239.911L142.224 238.162V237.22L141.955 237.086L141.417 237.22L139.13 239.911V239.507H138.322L135.766 241.526L134.958 243.813L134.689 245.697L134.958 246.908L137.515 250.81L138.053 253.098L138.322 257L140.61 266.149L141.686 275.434L142.224 284.987L141.955 294.002L140.879 300.864V305.036L141.955 306.785V307.592L141.417 309.072L140.341 309.88H139.399L138.86 309.611L138.053 309.88L136.304 310.956L134.689 313.513V314.32L134.958 314.993L136.035 315.531L139.399 316.069H141.686L143.435 315.8L144.243 315.262L145.05 312.974L145.588 312.705L146.53 314.32ZM153.931 312.974L153.258 312.705L152.72 312.436H152.181L151.912 312.705L151.643 313.243V313.513V314.185L151.912 314.32H152.181L152.72 314.185L153.258 313.513L153.931 312.974ZM176.536 307.054L178.958 303.017L183.264 292.926L186.089 284.718L189.184 273.146L189.453 270.59L188.915 254.578L188.377 249.465L187.166 244.89L184.34 236.413L183.264 231.569L181.514 213.269L180.707 208.425L179.496 204.792L176.536 198.334L174.248 194.835L173.307 194.701L168.193 195.239L158.909 195.508L157.294 195.239L156.756 194.701L154.469 194.835L151.105 196.585L150.163 197.123L149.356 199.41V201.967L148.414 209.636L146.53 221.477L145.05 228.609L144.512 233.587V237.086L144.781 239.238L145.454 240.988L145.588 243.275L145.454 248.388L144.512 255.385L146.799 270.59L149.894 286.063L150.701 289.562L152.181 300.192V305.843L151.643 308.13L150.432 309.88L152.181 310.687L162.542 311.36H173.845L176.536 307.054ZM164.291 226.859H167.386H171.019L171.961 227.128H171.692L168.059 227.398L164.022 227.128H163.484L164.291 226.859ZM151.912 225.783H154.738H157.564L158.102 225.917L157.564 226.321H154.469L151.24 225.917H151.105L151.912 225.783ZM165.368 218.921H168.597H171.692L172.23 219.19H171.961L168.597 219.459L164.83 219.19H164.56L165.368 218.921ZM158.64 218.113L158.909 217.844H159.582H160.658L161.197 218.113V218.382L160.12 218.652L158.64 218.382H158.371L158.64 218.113ZM117.735 259.825L117.197 259.691L114.91 261.036L114.641 260.229V258.749L115.448 255.654L116.255 254.847L115.986 257.807L116.794 257V252.828L116.659 250.003L116.794 249.465L117.466 249.734H118.274L118.812 249.465L120.292 247.446L120.561 246.101V243.275L119.081 238.969L118.543 236.413V234.394L116.255 237.22L115.717 240.988L115.986 243.544V247.177L115.448 246.37L114.91 243.544L114.641 239.911L114.91 238.162L114.641 236.682L113.43 236.413H112.891L113.161 234.798L115.986 230.223L117.466 228.743L116.659 231.031L115.986 231.972V233.318H116.794L117.735 232.242L118.274 229.685L117.735 227.398L116.794 225.917H116.659L115.717 227.128L114.372 229.954L112.353 233.049L111.142 234.26V233.049L113.43 229.147L113.968 227.667V226.859L112.353 227.398L112.084 226.859L112.353 225.783L113.968 223.765V222.957L112.622 221.208V220.67L113.833 218.921L114.372 219.19V226.59L114.91 226.321L115.986 223.092L115.179 218.921L114.372 206.003L113.833 203.716L113.43 203.178L114.372 200.89L117.466 195.508L117.735 194.028V190.126L116.255 174.921L115.717 172.634L114.641 175.998H113.968L113.833 175.459L113.161 165.233L112.084 155.68L112.353 154.469L112.891 154.2L113.43 154.469L114.372 158.102V159.851L115.448 163.215L118.812 167.252L118.004 164.426L117.466 161.6L120.292 164.426L123.118 166.444V165.502L122.31 163.619L121.637 158.775L122.848 142.628V138.188L122.31 135.362L121.368 132.536L119.081 129.038L118.543 128.769L118.004 129.038L117.466 127.02L118.274 122.579L119.485 120.023L120.83 118.408L121.099 117.735L120.83 117.466L119.081 118.408L115.179 121.772L113.833 124.194V127.02L113.161 127.692H112.353L111.546 126.481L111.142 125.405H111.815L113.161 125.943L111.815 124.194L111.008 124.06L109.258 124.598L107.778 125.943L101.32 137.784L96.2066 149.49L95.9375 150.836L96.8794 152.451L97.4176 155.276L99.705 162.139L100.781 163.753L101.589 164.695V165.502L101.051 166.041L99.705 166.444H98.494L97.6867 165.771L95.6684 163.619L94.0537 159.582L93.6501 157.025H93.381L92.3045 158.775L90.8244 161.6L90.5553 163.753L91.3626 163.619L93.381 161.6L93.6501 160.928L93.1119 164.964L94.1883 165.771L96.2066 168.866L96.8794 170.615L99.0323 172.903L101.32 173.979L102.127 175.056V175.729L101.858 176.267L101.32 176.536H100.512L98.2249 175.998L97.6867 176.536L97.4176 177.881V182.187L97.6867 184.205L100.781 195.239L102.665 201.159L104.953 206.811L106.971 210.982L108.72 213.808L110.066 214.077V220.67L109.528 233.318V241.526L109.797 246.639L111.815 255.385L112.622 260.633L113.161 266.284L115.448 263.458L117.735 259.825ZM106.433 206.811L104.684 202.774L104.145 201.159V200.352V199.948L104.414 200.352L104.953 201.159L106.971 205.061L108.72 209.367L109.258 211.251H108.989L108.317 210.444L106.433 206.811ZM108.989 196.585L108.72 195.239V193.49L108.989 190.126L109.797 185.013L110.335 184.205L111.008 183.533H111.142L111.815 183.936V184.205L112.084 184.744L111.546 186.224L110.604 188.377L110.335 189.857L110.066 191.471V193.221L110.604 195.508L111.008 196.854L111.142 198.334L111.008 199.141L110.604 199.41L110.335 199.141L109.797 198.603L108.989 196.585ZM113.161 191.471L113.43 190.126V189.857L113.833 190.126L113.968 191.471L113.833 192.952L113.43 193.221L113.161 191.471ZM105.491 145.992L105.895 144.377L104.953 141.552L104.414 141.148L104.953 139.264L107.24 135.362H106.971L104.145 137.246L104.414 134.958L106.702 130.787L107.509 129.845H108.72L108.989 130.249L110.335 129.307L110.604 128.5L108.989 129.038L108.72 128.5V127.423L109.528 126.885L110.604 127.02L111.815 127.962L112.891 129.307V130.249L112.084 131.864L108.317 136.439L107.24 138.322L106.971 141.821L107.24 143.166L106.433 147.472L105.356 149.087L105.491 145.992ZM143.435 247.984L142.763 246.908L142.628 246.37L142.224 246.639L141.955 246.908L141.686 247.446L141.955 248.523L142.628 250.003L143.166 250.272L143.435 249.734V247.984ZM136.304 240.046L136.573 238.969V238.431H136.304L135.766 238.7L134.689 239.507L134.151 240.449L133.747 240.988V241.257H134.286L135.497 240.988L136.304 240.046ZM136.977 235.336L136.573 234.798L136.304 234.394L135.497 233.856H134.151H133.478L132.94 234.394L132.671 235.067L132.402 235.336L132.671 235.605H133.209H134.151V235.875V236.413L133.209 237.624L132.402 238.431V238.969L134.286 237.893L136.035 236.413L136.573 235.875L136.977 235.336ZM141.417 234.26L140.879 233.587L138.86 233.856H137.784L137.515 232.78V232.242L138.591 231.031L139.937 230.223L139.399 231.434V231.972L140.341 232.242H140.61L141.148 231.434L140.879 229.954V228.743L141.148 228.205H141.955L142.628 228.609L143.166 229.416V226.859L142.628 226.321L141.417 226.859L136.304 231.031L135.766 232.511L137.515 235.336L139.13 237.086H139.802L141.148 235.336L141.417 234.26ZM141.686 223.765L142.224 222.554V222.015L139.13 224.572L138.322 224.841L137.515 223.765V221.746L138.591 219.19L140.61 216.364L144.243 213L145.588 210.175L145.992 208.964L145.454 208.829L144.243 208.964L143.435 208.829L142.763 207.887L143.166 208.964V210.444L141.148 213.808L135.766 219.459L134.958 221.208L134.689 223.092L135.228 224.034L135.497 223.765H136.035L136.977 224.303L137.515 225.379L137.111 225.917H136.035L134.958 225.783L134.689 225.917V227.128L135.228 227.398L136.035 226.859L136.977 227.398L136.304 228.609L133.747 230.223L133.478 231.569L134.286 231.434L136.977 229.416L140.879 225.11L141.686 223.765ZM145.992 215.019L145.588 214.615H145.05L143.435 216.095L141.417 218.113L139.937 220.266L139.399 221.208L139.802 221.477L142.224 219.19L144.781 216.633L145.588 215.557L145.992 215.019ZM141.148 210.175L140.879 210.444L139.937 210.982L138.053 213.269L135.497 216.902L138.591 213.808L140.61 211.655L141.148 210.713V210.175ZM149.625 192.682H151.24L152.72 192.413L153.931 192.01L154.469 191.471V191.202L154.065 190.664L153.258 190.395H152.451L149.087 190.664L145.454 191.875L142.628 192.952L141.686 193.49L141.417 193.759V194.297H141.955H142.628L143.435 193.759L144.512 193.49L146.261 192.952L149.625 192.682ZM176.67 188.108L176.536 187.3L175.863 186.762L175.594 186.358L175.056 186.762L174.787 187.3L174.518 188.108L174.787 189.588L175.056 190.395L175.325 190.933H175.863H176.536L176.67 190.664V189.857V188.108ZM136.304 189.184V189.049V188.646H135.766L135.228 189.049L134.151 189.588L133.478 189.857V190.126V190.395H134.286L135.497 190.126L136.304 189.184ZM150.701 188.646L152.181 188.108L152.989 187.569L153.527 186.358L153.931 185.282L153.527 184.205L153.258 183.398L152.989 182.725L152.451 182.456L151.105 182.725L149.356 182.994L144.781 184.475L141.148 186.224L139.937 186.762L139.802 187.031L140.341 187.3H141.686L145.454 186.358L149.625 185.282L151.105 185.013L151.912 185.282H152.181V185.551L151.24 185.82L148.414 187.031L145.05 188.377L143.974 189.049L143.704 189.588V189.857L144.243 190.126H144.781H145.588L150.701 188.646ZM166.31 186.224H166.041L165.368 186.358L164.022 187.031L162.946 187.569L162.408 188.108L161.735 189.049V189.588V189.857H162.408L162.946 189.588L164.022 188.646L165.368 187.3L166.31 186.224ZM164.022 184.475L163.753 184.205H163.215L161.735 185.282L160.12 187.031L159.582 187.838V188.377V188.646H160.12L161.735 187.569L163.215 185.82L163.753 185.013L164.022 184.475ZM162.408 179.092L162.004 178.285L162.542 176.536L163.215 175.729L164.56 174.921L165.233 176.267L167.386 174.921L169.404 172.096L169.674 171.154L169.135 170.346L167.117 170.615L164.291 172.903L162.946 173.979L160.927 177.074L160.658 177.881L159.582 179.092H158.64L157.564 179.631L158.371 181.38L158.909 183.398V184.475L158.64 185.282H158.909L161.466 182.456L162.408 180.169V179.092ZM159.582 181.38L159.716 180.573L160.658 179.631H160.927H161.197V180.169L160.927 180.707L160.389 181.918L159.716 182.456L159.582 182.187V181.38ZM165.233 173.71L165.368 172.634L166.31 171.692H166.579H166.848H167.117L167.386 172.23L166.848 173.172L166.31 173.979L165.771 174.248H165.368L165.233 173.979V173.71ZM145.588 182.456L148.279 181.649L150.163 180.707L151.912 179.9L152.451 179.092V178.823H151.912L149.356 179.362L145.05 181.111L138.591 183.533L137.111 184.205L136.977 184.744H137.111H138.053L141.417 183.936L145.588 182.456ZM155.545 177.747V177.074L155.276 177.343V180.169V182.994L155.545 183.398V182.725L155.814 180.169L155.545 177.747ZM152.451 175.459V175.056L152.181 174.921H151.24L146.261 176.805L137.515 180.707L135.228 181.111L134.689 180.707L134.958 179.9L137.111 179.092L142.628 177.881L144.781 176.805L145.588 175.729L145.05 174.518L144.243 173.71H141.686L136.573 175.459L134.689 175.729L134.151 175.459L136.304 173.979L139.802 172.634L136.035 172.23L132.94 172.903L132.133 173.71L131.46 175.056V177.881L132.671 180.707L134.689 183.533L143.435 180.573L149.625 177.747L152.181 175.998L152.451 175.459ZM124.463 176.536L124.194 176.267L123.925 175.998L123.387 175.729L122.848 175.998L122.445 176.536L122.31 177.343V178.285V179.362V179.9H122.848L123.387 179.092L123.925 177.747L124.463 176.536ZM118.274 175.998H118.004L117.735 176.267V177.343L118.004 178.823L118.274 178.285L118.543 176.805V176.536L118.274 175.998ZM130.114 172.23H130.384L130.653 171.692L130.922 171.154L131.325 170.615L130.922 170.077L130.653 169.404H130.384L129.845 169.808H129.307L129.038 169.404V168.597L129.307 167.521L129.576 165.233V164.695L129.307 164.426L129.038 164.695L128.634 165.233L127.558 167.521L127.289 169.27L127.02 170.885V172.903L127.289 174.518L127.827 176.805L128.096 177.747L128.5 177.074L128.634 175.459L129.038 174.248L129.307 173.172L129.576 172.634L130.114 172.23ZM123.387 173.441L123.118 173.172L122.848 172.634L122.445 172.23H122.31H121.637L121.368 172.634L121.099 173.172V173.441V173.979L121.368 174.248L121.637 174.518H122.31H122.445L122.848 174.248L123.118 173.979L123.387 173.441ZM87.9988 164.964L90.5553 159.313L91.2281 157.564V156.756L90.8244 157.025L90.0171 157.967L88.4024 160.793L86.3841 164.157L85.1731 167.252L84.3658 169.27L84.0967 169.808L83.5585 170.077H83.2894V169.404V168.059L83.5585 167.521L83.2894 167.252L82.0784 168.866L81.0019 170.077L80.7328 171.154V171.692L81.5401 172.23L82.3475 172.903H82.8857H83.5585L84.0967 172.23L85.7113 169.808L87.9988 164.964ZM152.989 171.692L153.258 171.154V170.615L152.989 169.404L152.181 168.328L151.912 168.059L151.24 167.79L151.105 168.059L150.701 168.328L150.432 169.27V170.077V171.423L151.105 172.23H151.643H151.912L152.989 171.692ZM147.607 168.059L147.337 167.79H146.799H146.53L146.261 168.059V169.27L146.53 170.346L147.068 170.885L147.337 171.154L147.607 170.885L147.876 170.346V168.866L147.607 168.059ZM121.099 169.808L120.561 169.27L119.081 168.597L118.543 168.328H118.274L118.004 168.597L118.274 168.866L118.812 169.808L119.619 170.077H120.561H120.83L121.099 169.808ZM138.053 167.521L137.784 166.444V165.771L137.515 166.041L136.977 166.579L136.035 168.059L135.766 169.27L136.035 169.808L136.977 170.077L137.111 169.808L137.515 169.404L137.784 168.597L138.053 167.521ZM141.417 168.328L141.148 167.79L140.879 167.252L140.61 166.982L140.341 166.579L139.802 166.982L139.399 167.252L139.13 167.79V168.328V168.866L139.399 169.404L139.802 170.077H140.341H140.61L140.879 169.404L141.148 168.866L141.417 168.328ZM90.5553 167.252L90.2862 166.579L90.0171 166.041L89.748 165.771L89.4789 165.502L88.9407 165.771L88.537 166.041L88.4024 166.579V167.252V167.79L88.537 168.328L88.9407 168.866H89.4789H89.748L90.0171 168.328L90.2862 167.79L90.5553 167.252ZM175.325 166.444H175.594V166.041L175.325 164.695L174.518 162.946L173.71 161.331L172.499 162.139L170.885 164.695L169.404 166.982V167.252L169.943 166.982L170.885 166.041L171.423 165.771L171.692 166.444L171.961 167.521V168.597V168.866L172.499 168.597L173.037 167.521L173.71 166.982L174.248 166.444L174.787 166.041L175.325 166.444ZM134.689 166.579L134.286 166.444L134.151 165.771L133.209 165.502H132.671H131.46L131.325 165.771L131.46 166.041L132.402 166.579L133.478 167.521L134.151 167.79L134.286 167.521L134.689 166.579ZM99.8396 137.784L104.414 128.5L105.895 125.405L106.433 123.656V123.387L106.702 122.849L107.24 122.579H107.778L108.317 122.31L109.258 122.041L110.066 121.234L110.604 120.023L111.815 118.005L110.066 119.485L108.182 120.83L107.24 121.368H106.433L105.895 121.772L105.356 122.31L104.414 123.387L103.876 124.598L103.069 125.943L102.127 127.02L101.051 128.231L99.8396 128.769L98.7632 129.307L97.9558 130.518L97.4176 131.864L96.8794 133.344L94.8611 143.435L93.1119 148.818L92.8428 150.298V150.836H93.1119L93.6501 150.029L95.3993 147.203L99.8396 137.784ZM177.612 147.472L177.074 146.665L176.536 145.723H175.863H175.594L175.325 146.261V146.799V147.472L175.594 148.01L175.863 148.548H176.536H176.67L177.074 148.279L177.343 148.01L177.612 147.472ZM154.738 138.322L153.931 134.42L154.469 133.344L157.294 139.533L158.102 140.341L159.716 140.61L160.12 140.341L158.909 136.708V134.689L159.582 133.075L161.735 130.249L162.408 127.692V125.405L160.658 125.674V124.598L162.004 121.234L161.197 119.754L158.64 118.543H155.276L155.007 120.561L152.72 125.943L151.912 129.845V133.882L152.989 137.784L153.931 139.802L155.276 141.821V140.61L154.738 138.322ZM154.065 129.711L153.527 129.038L153.258 128.5V127.962L153.931 127.02L154.469 126.212L154.738 125.943V126.212L155.007 127.02V127.962V128.231L155.545 127.962L156.083 127.02L156.756 125.674L156.891 124.598V124.194L156.756 124.06L156.083 124.194H155.545V124.06L156.083 122.041L156.756 120.83L157.294 120.292L157.833 120.023L158.102 120.292L158.371 120.561L158.64 120.83H159.178H159.582H159.716V121.772L158.909 124.598L157.564 127.692L156.756 128.769L156.083 129.711L155.814 129.845H155.276H154.738L154.065 129.711ZM146.53 134.958L145.588 134.151L145.05 133.882L144.781 134.151V134.958V135.497L145.05 135.9L145.454 136.169H145.992H146.261L146.53 135.9V135.497V134.958ZM149.894 133.075H149.625L149.356 133.344V134.42L149.625 135.9L149.894 135.362L150.163 133.882V133.613L149.894 133.075ZM136.977 133.882L136.573 133.613L136.304 133.075L136.035 132.671H135.497H135.228L134.958 133.075V133.613L135.228 133.882L135.766 134.689L136.304 134.958L136.573 134.689L136.977 133.882ZM129.038 131.056L128.5 129.845V128.5L129.307 127.423H130.922L136.304 128.5L146.261 128.769L146.53 128.231L146.261 127.692V126.885L147.876 123.656L147.337 127.02H147.607L149.356 124.867L149.894 122.849L148.279 123.387L148.414 122.579L149.087 121.368L150.163 121.234H150.432L151.105 120.292V118.543L151.24 118.005L152.181 117.735H152.72L153.258 116.928L152.451 115.179L151.912 114.641L150.163 116.659L143.704 125.943L143.166 126.481H142.763V125.943L143.435 124.598V124.06L142.763 124.194L141.148 126.212L140.61 126.481L139.802 125.405L139.399 124.194H140.341L140.879 124.06L144.243 119.754L146.799 114.641L146.53 114.102H146.261L141.955 120.292H141.686L142.224 117.466L142.628 116.928L141.686 117.197L140.341 119.216L136.035 126.885H135.766L136.304 124.867L138.053 121.368L139.802 116.659V116.121H139.399L138.053 118.005L136.304 119.216H134.286L133.747 118.946L133.478 118.408L133.747 116.39L133.209 115.717H132.402L129.576 116.928L127.558 118.543H126.751V118.005L131.46 113.295L132.133 112.353V111.815L131.46 111.546L128.096 113.564L126.212 114.91L127.289 112.757L127.02 112.353L125.943 112.891L124.194 116.121V118.946L122.848 118.543L122.31 118.946L121.368 121.234V124.194L122.31 127.02L123.387 129.711L124.732 131.325H125.136L124.463 128.5L124.732 128.231L125.27 128.5L126.751 131.056L127.02 132.133L127.558 133.075L128.634 133.882H129.307L129.038 131.056ZM56.9166 122.849L56.7821 121.234L56.1093 119.754L55.8402 118.946L55.5711 118.543H55.302L55.0329 119.216L54.7637 119.485V120.561L55.8402 125.405L56.7821 127.692L56.9166 127.962L57.3203 126.212L56.9166 122.849ZM148.818 116.659L149.625 114.372V113.833L149.356 113.564L149.087 113.833L148.414 114.641L146.799 117.197L145.05 120.292L143.704 123.118V123.656L143.974 123.387L145.454 122.041L147.068 119.485L148.818 116.659ZM117.197 118.005L117.466 117.466V116.928H117.197H116.659L115.179 117.735L113.43 119.485L112.353 120.83L112.084 121.368L112.353 121.234L113.833 120.561L115.717 119.216L117.197 118.005ZM174.248 118.543L173.71 118.408L172.499 118.946L171.019 119.754L170.885 120.023V120.561V120.83L171.019 121.234L171.692 120.83L172.499 120.292L173.71 119.216L174.248 118.543ZM164.56 112.084L164.022 108.451L167.117 115.179L167.655 106.164L169.404 112.891L169.135 107.106L169.404 105.625L169.674 105.087H171.423L171.961 103.876L173.037 106.164L173.307 108.182L173.71 108.451L174.248 105.087L174.518 100.512L175.325 105.087L175.863 109.528L176.536 99.9742L177.074 99.7051L177.881 100.782V104.818L177.612 107.106L177.881 107.644L178.42 107.913L178.958 107.644L179.496 106.433L179.9 104.818L180.034 97.1485L180.707 101.993V103.876L181.514 105.895L182.053 106.164L182.725 104.818L183.264 101.051L182.86 98.6286L182.322 96.8794L179.496 94.3229L177.612 93.1119L175.863 92.5737L172.23 92.3046L170.481 92.5737L164.83 95.9376L159.178 101.051L157.294 103.876L156.353 107.106V108.72L156.891 111.815L158.102 113.833L160.658 114.91L164.291 115.717L164.56 115.583L164.83 114.641L164.56 112.084ZM136.035 112.891L136.304 111.815L136.035 111.546L135.766 111.277L135.228 111.546L134.958 111.815L134.151 112.891V114.102V114.641H134.286H134.958L135.228 114.102L136.035 112.891ZM183.264 113.564H183.802H184.34L185.551 112.757L186.897 111.815L187.973 110.739L188.511 109.931L188.915 109.258L188.377 108.989L187.704 109.258L186.897 109.528L186.089 110.066L185.551 110.739L184.071 111.815H183.533H183.264H182.725L182.053 112.084L181.245 112.757L180.707 113.295L179.9 114.641L180.976 113.833L181.783 113.295L182.322 112.891L182.86 113.295L183.264 113.564ZM154.738 108.182V107.106V105.895L155.007 104.818L155.814 103.607L158.102 100.782L162.004 97.1485L167.386 92.0355L168.866 90.1517L169.674 89.4789L169.404 88.9407L168.597 88.6716H167.386L166.041 88.9407L163.215 89.748L161.735 90.2863L160.658 91.2281L157.294 93.7847L153.931 95.803L152.451 96.6103L151.643 97.4177L150.701 98.6286L150.432 99.7051V101.454V103.338L151.643 108.451L152.181 110.469L152.72 111.815L153.258 112.757H153.931L154.065 112.353L154.469 111.546L154.738 110.066V108.182ZM109.797 110.739H110.604L111.815 109.931L112.622 108.72L113.43 107.24L113.968 105.625L114.372 104.415L114.641 103.607L114.372 103.338L113.833 103.607L113.161 104.28L112.622 105.087L112.353 106.164L111.815 108.182L111.546 108.451H111.142H110.604H110.066L108.317 109.258L106.971 110.469L106.433 111.008V111.546V112.084V112.353L107.24 111.815L107.509 111.277L108.317 111.008L108.989 110.739H109.797ZM144.512 103.876L143.704 104.28L141.417 106.164L139.937 107.644L138.86 108.989L138.322 110.066L138.053 111.277V111.546H138.322L138.86 111.008L141.148 108.989L143.704 106.164L144.243 105.087L144.512 103.876ZM118.812 108.72L118.543 108.182L118.274 107.644L117.735 107.24L117.197 107.106L116.659 107.24L116.255 107.644L115.986 108.451L116.255 109.258L116.659 109.931L116.794 110.469L117.197 110.739H117.735L118.004 110.469L118.274 110.066L118.543 109.258L118.812 108.72ZM199.679 110.066V109.931V109.258L199.276 108.989H199.006L198.468 108.72L198.199 108.182L197.93 107.24V106.164L197.661 105.087V104.28L196.988 103.338L196.854 103.069L196.181 102.8L195.643 103.069L195.104 103.338L194.162 104.28L193.355 105.356L193.624 105.625L194.028 105.356H194.566L195.104 105.625L195.912 106.164L196.45 107.24L196.988 108.72V109.528L196.854 110.066L195.643 110.469L195.104 110.739L194.835 111.008L196.181 111.277H197.392L198.199 111.008L199.006 110.739L199.679 110.066ZM129.038 108.451L128.5 108.182L127.827 107.913H127.289L127.02 108.182L126.751 108.72V108.989V109.528L127.02 109.931H127.289L127.827 109.528L128.5 108.989L129.038 108.451ZM138.86 105.087H138.322L138.053 105.356L136.573 107.106L136.035 108.451L135.766 108.989L136.304 108.72L137.515 107.644L138.591 106.164L138.86 105.356V105.087ZM193.355 108.182H192.279H191.741L191.337 108.451L191.202 108.72H191.337L192.817 108.989L194.028 108.72V108.451L193.355 108.182ZM48.8433 106.433L47.9015 105.895L46.5559 105.356L45.4795 105.087L44.8067 105.356H44.2685V105.895V106.164L44.8067 106.433L45.4795 106.702H46.5559H47.9015L48.8433 106.433ZM136.035 103.607L134.958 103.069L134.689 102.262V101.589L135.497 101.051H136.304L137.784 100.243L140.61 96.6103L141.686 96.3412H142.224L140.61 94.592L139.399 94.8611L138.053 97.1485H137.515L136.977 96.6103L136.035 94.8611L134.958 91.4972L131.864 98.7632L131.325 101.589L132.133 102.8L133.478 103.338L134.151 103.876L134.958 106.702L136.977 104.415L136.573 103.876L136.035 103.607ZM132.402 101.589L132.94 99.9742L134.151 97.6868L135.228 95.9376L135.497 95.803V95.9376L135.228 97.6868L134.151 99.9742L132.94 101.589L132.402 101.993V101.589ZM206.407 101.589L205.465 101.051L204.927 100.512H204.389V100.782L204.12 101.051L204.389 101.993L205.465 103.607L206.407 104.28L206.945 104.818H207.483L207.753 104.415V103.876L207.483 103.338L206.407 101.589ZM43.192 103.338L42.7884 103.069L42.6538 102.531L42.2502 102.262H41.981H41.4428L41.1737 102.531L40.9046 103.069V103.338V103.876L41.1737 104.28L41.4428 104.415H41.981H42.2502L42.6538 104.28L42.7884 103.876L43.192 103.338ZM145.454 101.993L145.588 102.262L145.05 100.782V100.243L146.261 99.436L146.799 99.9742L147.068 100.782V102.262L147.607 101.993L149.356 97.6868L149.894 93.7847V90.1517L149.356 88.6716L148.818 88.9407L148.279 91.4972V93.1119L147.337 97.4177L145.992 97.9559L143.704 99.9742L140.879 103.876V104.28L141.955 103.069L143.974 101.993H145.454ZM187.166 99.1669L186.627 98.7632H186.358H186.089L185.686 99.1669V100.243L186.089 101.993L186.627 103.069L186.897 103.338L187.166 103.069L187.435 101.993V100.243V99.7051L187.166 99.1669ZM141.955 99.1669H141.686H141.148L140.341 99.436L139.399 100.243L139.13 101.454V101.589L139.399 101.993L139.937 101.589L140.879 101.051L141.686 99.9742L141.955 99.436V99.1669ZM191.202 97.4177V95.3993L191.741 94.0538L192.548 93.1119L196.45 91.2281H197.93L198.468 91.4972L199.276 96.6103L199.814 97.4177L200.487 95.1302L200.756 91.2281L199.814 86.1151L199.679 85.5768L196.181 83.5585L187.435 81.2711L179.496 79.9255H177.074L174.518 80.4638L171.019 82.213L169.674 83.0203L168.193 85.0386L168.059 85.8459L168.193 86.6533L169.135 87.326L178.689 90.959L184.878 94.8611L186.089 96.3412L187.166 96.8794H187.973L189.184 95.803L189.453 95.9376L188.915 101.589L189.184 101.993H189.722L190.53 100.243L191.202 97.4177ZM181.514 85.3077L183.264 84.0967L185.147 83.5585H186.897L187.435 83.8276L187.704 84.0967L187.435 85.0386L186.897 85.3077L183.264 85.8459H181.783L181.514 85.5768V85.3077ZM76.5616 99.9742V99.7051V99.1669L76.158 98.7632H75.8888L75.0815 99.1669L74.2742 99.9742L73.8705 100.512V100.782L74.2742 101.051H74.5433L75.6197 100.782L76.5616 99.9742ZM196.988 98.225L196.45 97.1485L196.181 96.8794L195.912 96.6103L195.643 97.4177V98.7632V99.7051L195.912 100.512L196.181 100.782L196.45 100.512L196.988 100.243V99.7051L197.392 98.7632L196.988 98.225ZM25.8345 97.9559L27.0455 96.6103L27.3146 96.3412H27.5837L29.0638 96.6103H29.8711L30.1402 96.3412V95.803L29.8711 95.3993L29.0638 95.1302H27.8528L26.5072 95.3993L25.1617 95.9376L23.9507 96.8794L22.8743 97.4177L22.336 98.225L21.9324 98.6286L22.336 98.7632L23.1434 99.7051L23.4125 99.9742H23.9507L25.1617 99.436L25.8345 97.9559ZM203.581 96.3412L202.639 95.803H202.505V96.3412V97.1485L203.043 97.9559L203.85 98.6286H204.12L204.389 98.225V97.9559V97.4177L203.581 96.3412ZM134.286 89.4789V89.2098L134.151 88.9407L132.94 89.4789L132.671 88.9407L132.94 88.4025V86.6533L129.038 81.2711L128.5 78.8491V77.369L130.384 73.1978L132.133 70.9104L134.151 69.4303L134.286 68.3538L134.151 67.6811H133.478L132.94 67.5465L131.46 67.6811L129.576 71.1795L128.096 72.7941L128.634 69.6994H128.5L127.289 71.9868V74.2742L126.212 77.369V81.8093L126.481 83.2894L127.289 84.5004L128.634 83.0203H129.038L130.114 96.8794L130.384 97.4177L131.325 96.6103L133.747 91.2281L134.286 89.4789ZM73.736 92.3046H73.3323H73.0632L71.9868 93.1119L70.5067 94.3229L70.2375 95.1302V95.3993L70.5067 95.1302L71.9868 94.3229L73.0632 93.1119L73.736 92.3046ZM27.0455 92.9773L27.5837 92.3046H28.5256H29.0638L29.602 92.9773L30.4093 93.5156L31.3512 94.0538L32.1585 94.3229H32.9659H33.7732L34.1769 93.7847L34.3114 92.5737L34.1769 90.959L33.7732 88.9407L33.5041 88.4025L33.235 88.1334L32.9659 87.8643H32.4277L30.6784 88.1334L25.1617 89.2098L24.2198 89.4789L23.1434 89.748L21.6633 90.959L21.1251 91.4972L20.8559 92.0355V92.9773L21.1251 93.5156L21.6633 93.7847L22.336 94.0538L23.9507 94.3229L25.6999 94.0538L26.2381 93.5156L27.0455 92.9773ZM145.454 83.2894L144.243 82.4821H143.974V82.7512L143.704 84.5004V87.4606V90.959L143.974 92.0355V92.3046L144.243 91.7664L144.781 89.748L145.588 85.8459L145.992 90.2863L146.261 94.8611L146.799 90.1517V87.4606L146.53 85.8459L146.261 84.5004L145.454 83.2894ZM37.8098 88.6716V86.6533V85.8459L37.5407 86.1151L36.5989 86.9224L35.5224 88.9407L35.2533 90.2863V91.2281V91.7664L35.5224 92.0355H36.0606L36.5989 91.7664L37.0025 90.959L37.8098 88.6716ZM141.955 83.8276L141.686 77.9072L141.148 74.5433L140.879 73.1978L140.341 72.7941H139.937L139.802 73.3324L139.399 75.0816V80.1946L139.802 85.3077L139.937 86.9224L140.341 87.4606L140.61 87.8643V88.1334V89.748L140.341 90.6899L140.61 91.4972L140.879 92.0355H141.148H141.686L141.955 91.7664L142.224 90.2863V87.8643L141.955 83.8276ZM138.053 89.2098L137.515 88.9407L136.977 88.6716H136.304L136.035 88.9407L135.766 89.4789V89.748V90.2863L136.035 90.6899H136.304L136.977 90.2863L137.515 89.748L138.053 89.2098ZM162.946 85.8459L162.408 85.5768L161.735 85.3077H161.197L160.927 85.5768L160.658 86.1151V86.3842V86.9224L160.927 87.326H161.197L161.735 86.9224L162.408 86.3842L162.946 85.8459ZM160.12 81.8093L160.389 81.002L161.197 80.1946H161.735L162.004 80.4638H162.542L163.215 79.6564L164.291 78.9837H164.83L165.368 79.3873H166.31L167.655 78.4454L169.135 76.158L169.943 75.6198L173.037 76.8308L173.845 77.0999L175.056 76.8308L176.536 75.6198H177.074L178.15 77.369L178.689 77.0999L179.227 75.6198L178.689 75.0816H178.42L180.034 70.9104L182.322 67.6811L182.86 65.5282H182.322L178.42 66.6046H177.343L176.132 66.3355H175.594L175.325 66.6046V67.6811H176.67L177.074 67.5465L174.248 71.4486L171.692 73.3324L169.135 74.0051L168.597 73.736L169.943 71.7177L171.692 70.3721L173.307 69.6994L173.845 68.3538V67.1428L173.71 66.6046H173.037L171.423 67.6811H169.674L167.655 69.6994V70.5067H169.135V71.4486L168.059 73.3324L168.193 75.3507L167.386 76.8308L166.041 77.9072H164.83L164.56 76.8308V76.0234L165.771 74.0051V72.7941L164.291 69.9685V69.4303L166.041 69.1612L167.386 68.6229L168.193 67.5465L167.386 66.0664L165.771 65.7973L164.022 67.0083L162.946 68.3538L163.484 65.5282L162.946 64.99L162.004 65.5282L161.197 67.1428V68.892H162.542L163.215 69.9685V70.9104L162.542 72.2559L161.197 74.2742L160.927 75.6198L160.658 77.6381L160.389 78.8491L158.64 81.002L156.891 82.213H156.353L155.814 81.8093L156.083 80.1946L158.64 76.5617L159.582 75.0816L158.64 74.5433H157.294L155.007 75.0816L153.527 76.5617L152.181 77.0999H151.24L151.105 76.8308V76.0234L152.181 73.1978H151.912L150.163 74.0051L147.607 74.5433H146.261L145.05 74.2742L143.974 71.9868L143.435 68.892L142.763 67.6811L142.628 68.6229V73.3324L143.974 76.5617L146.799 78.8491L147.876 78.9837L148.279 77.0999L148.414 76.8308L151.105 78.1763L151.643 78.9837L151.912 79.9255L151.643 81.002H152.181L157.294 75.6198L154.469 80.4638L153.931 81.6748L154.065 82.4821L157.564 84.0967H158.371L159.582 83.2894L160.12 81.8093ZM162.408 74.8125L162.946 73.736L163.484 73.3324H163.753V73.736V74.2742L162.946 75.3507L162.408 76.0234L162.004 76.158V75.6198L162.408 74.8125ZM175.056 73.1978L177.343 70.3721L179.227 68.3538L179.9 68.0847L179.496 68.6229L177.612 71.4486L175.056 74.8125L173.307 76.158V75.6198L175.056 73.1978ZM40.9046 81.2711L40.3664 81.002L39.8282 80.7329H39.1554L38.8863 81.002L38.6172 81.6748V81.8093V82.4821L38.8863 82.7512H39.1554L39.8282 82.4821L40.3664 81.8093L40.9046 81.2711ZM139.13 69.9685L139.937 71.7177V68.6229L139.13 67.5465L138.591 67.1428H137.784L136.977 66.3355V65.5282L135.766 63.2407H134.286L133.747 64.3172L134.286 65.7973L135.766 67.1428L136.035 68.6229L134.958 69.9685L134.689 71.9868L135.228 72.525L136.035 72.2559L136.573 73.1978L136.977 74.5433L137.111 78.9837L138.322 69.4303H138.591L139.13 69.9685ZM125.27 73.3324L126.481 71.4486L127.289 69.9685L128.096 68.892H128.5H128.634H129.307H129.576L130.384 67.6811L130.653 66.3355V65.5282L130.384 64.99L130.114 64.3172H129.845H129.307H129.038L128.096 65.2591L127.289 66.6046L125.136 70.3721L123.118 74.2742L122.31 76.0234V77.0999V78.1763L122.445 78.4454L122.848 78.1763L123.925 76.5617L125.27 73.3324ZM184.609 75.3507V76.8308L185.147 77.369L185.686 77.0999L186.358 75.6198L186.089 72.7941L185.551 71.9868H184.609L182.322 74.0051L182.053 73.736L182.322 71.9868L183.802 70.3721L184.071 68.892H183.533L180.976 71.7177L180.438 72.7941V73.3324L181.245 74.0051L182.322 77.0999L183.802 75.6198L184.878 74.2742L184.609 75.3507ZM152.989 65.7973L151.24 57.3203L149.356 53.9565L147.337 53.0146L145.992 52.88L145.05 52.2073V51.9381L147.607 50.5926H148.279L149.356 51.3999L151.643 55.0329L153.258 58.5313L154.065 58.1277L155.545 53.6874L156.353 59.3387L156.891 60.9533H157.564L157.833 59.8769V55.7057L157.564 51.3999L158.371 53.0146L158.64 54.4947L158.909 54.7638V50.1889L157.833 44.4031L157.294 43.1921L156.756 42.923L155.814 43.7303L155.276 45.4795L154.738 48.5743L154.065 49.6507L153.931 49.3816V47.2287L153.258 44.4031L152.72 43.7303L150.432 43.1921L151.912 42.1156L151.643 40.9047L149.356 38.8863L149.625 41.712L149.356 42.3848H148.818L148.414 42.923L150.163 44.4031L151.105 45.4795L153.527 52.4764V53.6874L153.258 54.4947H152.989L151.24 48.5743L150.163 46.2868L148.414 44.9413L147.607 44.5376L147.337 44.9413L149.894 48.8434L149.356 49.1125L145.992 46.8251L146.261 48.3052L146.53 49.1125L146.261 49.6507L144.512 49.3816L142.628 51.3999L141.955 52.4764V53.6874L142.763 55.0329L145.588 57.8586L147.876 59.3387L149.625 59.6078H150.163L149.894 62.4334V62.9716L150.432 63.2407L151.24 66.0664L151.912 69.6994L152.72 69.9685L153.258 68.6229V67.1428L152.989 65.7973ZM156.083 46.2868V45.2104L156.353 44.9413H156.756L156.891 45.4795V45.7486L156.756 47.2287L156.353 47.7669L156.083 46.2868ZM133.209 64.7208V57.3203V54.7638L132.94 53.6874L132.402 53.0146H131.46H130.653L129.845 53.4182L129.038 53.9565L128.096 54.7638L127.289 55.7057L126.751 56.7821L125.943 59.0695V59.8769V60.146H126.212L126.751 59.6078L128.096 57.3203L129.576 55.302L129.845 55.0329L129.576 56.513L128.634 58.5313L128.096 60.146V60.6842V61.357H128.5L129.038 60.6842L130.384 58.5313L132.133 55.302L131.864 59.8769L131.46 62.7025L131.864 65.2591L132.402 66.6046L132.671 67.1428H132.94L133.209 66.6046V64.7208ZM157.294 63.779L156.891 63.2407L156.756 62.9716L156.353 62.7025H156.083L155.545 62.9716L155.276 63.2407L155.007 63.779V64.3172V65.2591L155.276 65.5282L155.545 65.7973L156.083 65.5282L156.756 64.7208L157.294 63.779ZM145.05 63.2407L145.454 62.7025V62.1643L144.781 61.4915H144.243L142.763 63.2407L143.435 58.6659L143.166 58.5313L141.955 59.0695L141.148 61.8952L140.61 62.4334L139.399 60.9533V59.8769L139.937 57.3203V56.513H139.399L137.111 57.5894V58.1277L139.937 63.2407L141.148 64.3172L142.224 64.7208H143.435L144.781 63.779L145.05 63.2407ZM171.961 60.9533V62.4334H172.23L175.325 57.5894L174.787 60.4151L174.248 61.8952L174.518 62.4334L175.863 60.146L176.67 57.8586L177.074 54.7638L176.132 53.9565L175.325 53.6874L173.037 56.2439L172.23 57.8586L172.768 53.4182L172.23 53.0146L171.692 53.6874L167.117 54.7638L166.848 55.7057L166.31 56.513V57.8586H166.579L168.193 55.8402L168.866 57.8586L170.212 55.302H170.481V57.3203L169.943 58.6659L169.135 59.8769H167.655L168.866 62.4334L170.212 60.9533L171.019 59.8769L171.692 59.6078L171.961 59.8769V60.9533ZM178.958 59.8769L179.227 59.3387V58.6659H178.958H178.689L177.881 59.6078L177.612 60.4151V61.357L177.881 61.4915L178.42 60.9533L178.958 59.8769ZM137.111 54.2256L137.515 53.4182V52.4764L137.111 50.8617L136.977 50.1889L136.573 50.0544L136.035 49.6507H135.497L135.228 50.1889L134.958 51.1308V53.0146L135.228 55.0329L135.497 55.7057L135.766 55.8402H136.035L136.573 55.302L137.111 54.2256ZM183.533 54.2256V52.88L182.725 49.3816V48.0361L183.802 43.7303V42.1156L181.514 36.7335L178.42 31.0822L174.518 25.7L171.019 22.3361L169.674 21.7979L170.212 24.6235L170.885 24.7581L171.692 26.5073V27.4492L170.481 27.5837L169.943 27.4492L168.597 23.6816L166.31 15.4738L164.291 14.6665L161.735 14.9356H159.716L157.294 14.3974L155.814 12.379L152.989 11.0335L148.414 6.72774L147.607 6.45863H146.53L145.05 7.66962L144.781 9.28428L145.992 11.5717L148.414 14.6665L152.181 17.4921H152.72L152.989 16.2811H153.258L152.72 26.7764L153.258 29.8712L154.469 31.6204L158.102 33.1005H158.909L159.582 31.0822H159.716L160.927 33.235L161.735 36.7335L161.466 37.2717L160.12 38.079L159.582 39.8282V40.9047L160.389 43.4612L163.215 45.2104L166.848 46.2868L171.961 48.3052L176.536 50.5926L179.496 52.4764L180.976 53.9565L181.245 54.4947L181.783 54.7638H182.725L183.533 54.2256ZM176.536 38.8863L175.325 36.0607V35.5225V35.2533H175.594L176.132 35.9261L177.612 38.7518L178.689 41.1738V42.1156V42.3848L178.15 42.1156L177.612 41.5774L176.536 38.8863ZM171.961 36.7335L172.23 35.2533V34.9842L172.499 35.2533L172.768 36.7335L172.499 38.079L172.23 38.3481L171.961 36.7335ZM160.927 24.7581V22.3361L161.197 21.9324V22.3361L161.466 24.6235L161.197 26.7764V27.4492H160.927V24.7581ZM157.294 24.2199L157.564 22.8743V22.6052L157.833 22.8743L158.102 24.2199L157.833 25.7L157.564 25.9691L157.294 24.2199ZM143.704 44.9413L146.799 38.7518V38.3481V38.079L145.992 37.8099L145.454 38.079L144.781 38.7518L143.704 40.6355L142.224 43.7303L140.879 47.7669L140.341 50.0544L140.61 50.1889L140.879 50.0544L141.955 48.3052L143.704 44.9413ZM154.469 40.0973L153.527 38.7518L152.989 38.079L152.72 37.8099L152.451 38.079V38.7518L152.989 40.6355L153.931 42.3848L154.469 42.923H154.738V42.6539V42.1156L154.469 40.0973ZM157.294 38.8863L156.891 38.079L156.756 37.2717L155.545 35.2533L154.065 33.9078L153.527 33.6387L152.72 33.235L152.451 33.6387L151.912 34.1769L150.432 35.9261L149.356 37.8099L149.625 37.5408L150.701 37.0026L151.643 36.4643L152.451 36.0607L153.258 37.0026L154.469 38.3481L155.814 40.3664L156.756 41.1738L156.891 40.9047V40.6355L157.294 38.8863ZM163.215 5.6513L162.408 4.84397L161.466 3.90209L160.389 3.09476L158.909 2.55654L157.564 2.15288L156.353 2.01832H155.007L153.527 2.15288L152.989 2.55654L152.181 3.09476L151.912 3.63298L151.643 4.1712L151.912 5.6513L152.451 6.99685L153.527 8.47695L155.276 9.8225L157.294 11.0335L159.582 11.8408L161.466 12.1099H162.542L163.484 11.5717L164.291 10.4953V9.28428V8.20784L164.022 6.99685L163.215 5.6513ZM50.458 313.513L50.7271 312.974L51.669 312.705L53.2836 312.436L54.7637 312.705L55.5711 312.974L55.8402 313.513V313.782L55.302 314.185L54.4946 314.32H53.0145H51.9381L51.1308 314.185L50.458 313.782V313.513ZM34.3114 302.479L33.235 302.21L32.4277 301.941L31.8894 301.403V300.864V300.595L32.1585 300.192H32.6968L33.5041 300.595L34.7151 300.864L37.0025 301.134H42.7884L47.9015 301.403L49.1124 301.672H49.3816L46.5559 302.21L41.981 302.479H37.5407H34.3114ZM23.9507 298.846L23.4125 298.577L22.4706 298.039L20.8559 297.77H19.1067H17.223L16.012 297.366L15.4738 297.232L15.2046 296.828H15.4738L16.2811 296.29L17.7612 296.021H19.5104L21.3942 296.29L23.1434 296.559L24.758 297.232L25.6999 297.77L25.8345 298.039L26.2381 298.577L25.8345 299.115L25.6999 299.653L25.2963 300.057H25.1617H24.4889L24.2198 299.653L23.9507 299.384V298.846ZM68.0847 295.482L62.9716 294.54H68.0847L73.0632 294.944L78.7145 295.482L84.3658 296.29H78.7145L73.0632 296.021L68.0847 295.482ZM115.448 295.482V295.213L115.717 294.54L115.986 294.406H116.659H116.794L117.197 294.54L117.466 295.213L117.735 295.482L117.466 296.021L117.197 296.29L116.794 296.559H116.659H115.986L115.717 296.29L115.448 296.021V295.482ZM31.3512 287.544L31.4858 287.274L32.4277 286.736L34.1769 286.467H34.9842L35.5224 286.736L36.0606 287.274L36.3297 287.544L36.0606 288.082L35.5224 288.351L34.3114 288.755H33.235H32.1585L31.4858 288.351L30.9476 288.082L31.3512 287.544ZM17.223 281.892V281.623L17.4921 281.085L17.7612 280.816H18.0303L19.1067 281.085L20.0486 281.892V282.43L19.645 282.7L19.5104 283.103H18.8376H18.0303L17.4921 282.7L17.223 282.43V281.892ZM13.9937 276.241L14.6664 275.972L15.4738 275.434L16.6847 275.165H17.7612L19.645 275.434H20.3177V275.703L19.1067 275.972L16.6847 276.779L15.4738 277.048H14.3973L13.9937 276.779V276.241ZM16.012 269.513L16.8193 269.11L18.0303 268.975L20.5868 268.706H23.4125L20.5868 269.513L18.0303 270.321L16.012 270.59H15.2046L14.9355 270.321L16.012 269.513ZM195.912 257.807V255.385L193.624 250.003L193.355 248.523L193.624 246.37V245.159L192.817 243.544V242.064L193.355 241.257L194.162 238.162V237.086L193.624 237.22L193.086 236.413L192.817 233.587V219.459L193.355 213.808L193.624 213L194.162 214.077L195.104 220.266V225.783L195.643 234.26L197.93 252.021L199.006 258.749L198.199 259.825L196.181 260.498L195.643 260.229L195.912 257.807ZM27.0455 257.807L27.5837 257.672L28.1219 257.403H29.0638H29.602L29.8711 257.672V257.807L29.3329 258.211L28.5256 258.48L27.3146 258.749H26.7764L26.5072 258.48L27.0455 257.807ZM33.235 257.403H35.2533H37.8098L38.3481 257.672L38.079 257.807H35.7915H32.9659L32.6968 257.672L33.235 257.403ZM56.3784 254.039H61.2224H66.0663L66.8737 254.174H66.6046L61.2224 254.578L55.8402 254.174H55.302L56.3784 254.039ZM243.679 227.936H248.792H253.905L255.25 228.205H254.712L249.33 228.609L243.41 228.205H242.737L243.679 227.936ZM261.44 227.936H263.458H265.342L265.746 228.205L265.342 228.609H263.458H261.171L260.902 228.205L261.44 227.936ZM274.761 224.841L272.742 223.765L272.473 223.495L272.742 223.092L274.223 223.765L277.048 224.841L279.336 225.917L279.47 226.321L279.336 226.59L277.048 225.917L274.761 224.841ZM55.5711 224.303L50.458 223.495H55.5711H57.8585H59.6077L60.9533 224.034L61.7606 224.303V225.11L61.4915 225.379L55.5711 224.303ZM81.5401 224.303L70.9103 223.765L81.0019 223.495L89.748 223.765L97.4176 224.303L103.607 225.11H97.9558L81.5401 224.303ZM241.929 220.939L243.679 220.132L245.428 219.728L245.966 220.132V220.266L244.755 220.939L242.602 221.746L241.391 222.015L241.122 221.746L241.929 220.939ZM96.8794 219.19L92.5736 218.382L87.1915 216.902L80.4637 215.557L72.7941 214.077L66.8737 213L65.259 212.462L64.5862 211.789H64.8554H66.0663L70.9103 212.462L77.6381 213.808L86.6532 215.826L92.5736 216.902L96.4757 217.441H97.6867L98.7632 217.844L99.705 218.382L100.243 218.652L100.512 219.459V219.728L96.8794 219.19ZM258.076 219.19L258.345 218.921H258.883H260.094L260.633 219.19V219.459L259.556 219.728L258.076 219.459H257.807L258.076 219.19ZM251.886 218.113L253.232 217.844H255.25L255.519 218.113V218.382H253.905H251.886L251.617 218.113H251.886ZM52.4763 214.615L52.7454 214.48H53.2836H54.4946L55.0329 214.615V215.019L53.9564 215.288L52.4763 215.019H52.2072L52.4763 214.615ZM187.704 211.655L187.435 209.905L186.897 207.887L186.358 206.003L185.551 204.254L184.609 202.774L184.071 201.428L183.264 198.334V197.123V196.046L183.533 195.239L184.071 194.701H184.34L184.609 195.239L184.34 197.123V198.603V199.679L184.609 200.352L184.878 200.487L185.551 200.89L186.089 201.967L186.897 203.178L187.435 204.792L188.511 209.636L189.453 212.731V214.615L189.184 215.288H188.915L188.377 215.019L187.973 214.077L187.704 213V211.655ZM60.4151 212.462L60.6842 212.193H61.2224H62.4334L62.9716 212.462V212.731L61.7606 213L60.4151 212.731H60.1459L60.4151 212.462ZM196.988 201.698L198.199 196.315L198.468 195.508L196.854 194.701L198.737 192.413V190.933L196.181 191.202V190.933L200.487 184.475L201.025 182.456L200.487 182.187L199.814 182.456L195.104 189.049L194.835 189.184L195.104 188.108L197.661 183.533L200.217 173.71L201.294 167.521L204.12 162.946L213.942 153.392H214.615L213.135 155.276L204.12 165.233L203.312 166.579L203.043 167.521L204.927 166.444L215.422 156.756L215.96 156.487L213.807 159.044L204.927 167.79L202.101 171.692L201.563 175.056V177.747L202.505 179.092L204.927 177.343H205.331L204.12 178.554L202.505 181.918V182.187H202.639L205.465 180.169V180.707L203.312 184.205L199.814 187.838L198.737 189.857L199.276 190.126L199.814 189.857H200.487L200.756 190.126V191.875L200.217 194.028L198.737 197.661V201.698L197.661 204.254H197.392L196.988 203.178V201.698ZM179.9 187.569V186.358L180.438 185.282L180.707 184.205L181.514 182.994L182.725 181.649H182.86L182.725 182.994L181.514 186.224L180.707 187.569L180.034 188.377H179.9V187.569ZM206.945 175.459L207.214 174.518L208.694 173.441L209.771 172.634H210.04H210.309L209.771 173.441L208.694 174.518L207.214 175.459L206.945 175.729V175.459ZM205.331 171.154L206.676 169.404L207.753 168.866V169.27L207.483 169.404L206.407 171.154L204.658 172.903L203.581 173.441L203.85 172.903L205.331 171.154ZM158.371 167.79L159.178 166.041L159.716 165.771H160.12L160.389 166.444V166.982L159.716 168.328L158.909 169.404L158.64 170.077H158.102L157.833 169.808V169.404V168.597L158.371 167.79ZM212.058 164.426L214.346 162.139L215.691 160.928V161.331L215.153 162.139L213.135 164.426L210.578 166.982L209.233 167.79V167.521L209.771 166.982L212.058 164.426ZM162.542 165.502L161.735 164.695L162.408 164.157L160.12 159.582L159.582 155.142L159.716 151.643L160.927 145.992L162.004 143.974L163.753 143.166L164.83 142.897L165.368 143.166L165.771 143.974V147.203L165.368 150.298L166.31 149.49L166.579 148.818L167.386 148.548L168.059 149.49V150.836L166.31 157.025L166.579 157.295L168.193 157.025L168.866 158.102V159.044L168.193 160.928L166.579 162.946L168.059 159.044L165.771 162.139V163.753L166.041 165.233L164.83 166.041H164.022L162.542 165.502ZM165.233 155.949L165.368 153.392L165.233 152.854L164.83 152.451L164.56 153.123L164.291 153.931L163.753 156.487L163.484 158.775L163.753 159.582L164.022 159.851L164.291 159.582L164.56 158.775L165.233 155.949ZM162.408 149.49L162.004 149.087V149.49L161.735 150.836L162.004 152.451L162.408 152.316L162.542 150.836L162.408 149.49ZM83.2894 160.389L84.904 157.967L85.1731 157.025H85.7113V157.295L85.5768 158.506L84.3658 160.928L82.8857 163.215L82.3475 164.157L82.0784 164.426L81.8093 164.157L82.0784 163.215L83.2894 160.389ZM199.006 162.408L199.276 161.331L200.217 160.389H200.487H200.756H201.025L201.294 160.928L200.756 161.869L200.217 162.677L199.679 162.946H199.276L199.006 162.677V162.408ZM80.4637 161.6L81.271 158.775L82.8857 153.662L84.904 149.49L85.5768 148.548L85.7113 148.279V148.548L85.5768 149.625L84.904 151.643L83.2894 156.487L81.271 160.389L80.7328 161.6H80.4637ZM147.068 160.928L143.166 160.389L138.322 160.12L133.747 159.582L132.402 159.313L131.864 158.775L132.133 158.506L132.94 158.102L137.515 158.506L143.166 159.044L149.356 160.12L151.643 160.389L153.527 160.793H155.276L156.083 160.389L156.891 160.12V160.389L156.756 160.928L156.083 161.331L155.276 161.6L152.989 162.139L150.163 161.869L147.068 160.928ZM208.694 155.276L210.982 153.123L212.327 151.912V152.316L211.789 153.123L209.771 155.276L207.214 157.967L205.869 158.775V158.506L206.407 157.967L208.694 155.276ZM131.325 149.087L131.46 147.203V146.799L131.864 147.203L132.133 148.818L131.864 150.567V151.105H131.46L131.325 149.087ZM89.2098 146.261L89.4789 145.185L89.748 144.915L90.0171 144.646L90.2862 145.185V145.723V146.665L90.0171 147.203L89.4789 147.741L88.9407 148.01V147.472L89.2098 146.261ZM197.392 147.203L197.93 145.992L198.468 145.723H198.737V145.992V146.665L197.93 147.741L197.392 148.279L196.988 148.548V148.01L197.392 147.203ZM192.279 142.359L192.548 141.148L193.355 139.533L194.028 138.726H194.162V138.995L194.028 140.341L193.355 141.821L192.548 142.628H192.279V142.359ZM169.404 130.787L170.212 129.038V128.5L169.943 128.231V127.962L170.212 127.02L171.961 124.598L173.037 123.387L173.845 122.579L174.518 122.31L175.056 122.579L175.325 122.849H176.132L177.074 122.041L178.15 120.83L180.034 118.946L180.707 118.408V118.543L180.034 119.754L178.958 121.368L174.518 126.481L170.212 130.518L169.404 131.325V131.056V130.787ZM173.71 125.943L174.787 124.194L175.056 124.06V123.656L173.845 124.194L172.499 125.943L171.019 127.692L170.885 128.231L171.961 127.692L173.71 125.943ZM63.5098 127.02V126.212L63.7789 125.136L64.8554 123.118L66.3355 121.772L66.6046 121.368V121.772L66.3355 123.118L65.259 125.674L64.3171 126.885L63.7789 127.423H63.5098V127.02ZM75.8888 126.481V125.943L76.6962 125.136L78.7145 123.118L81.0019 121.234L81.8093 120.561L82.3475 120.292V120.561L81.8093 121.368L79.9255 123.656L77.6381 125.674L76.5616 126.885L75.8888 127.02V126.481ZM35.5224 119.754V117.197L35.7915 116.928V117.197L36.0606 119.485L35.7915 121.772V122.31H35.5224V119.754ZM62.4334 123.387L62.5679 121.772L64.048 119.216L65.259 116.928L65.7972 116.121L66.3355 115.717V116.121V116.39L66.0663 117.735L64.8554 120.023L63.7789 122.041L62.5679 123.387L62.4334 123.656V123.387ZM48.4397 89.4789L47.0941 88.9407L46.2868 88.4025L45.4795 87.8643L44.8067 86.9224V86.3842V85.8459L45.4795 85.5768L46.5559 85.3077L47.3632 85.5768L47.9015 85.8459L48.3051 86.1151L48.4397 86.6533V87.326L49.1124 87.8643H50.1889L51.9381 88.1334H54.4946L55.302 88.4025L55.5711 88.6716L55.302 89.2098L54.7637 89.4789L53.0145 90.1517H51.1308L48.4397 89.4789ZM68.892 87.8643H70.2375H71.7177L71.9868 88.1334L71.7177 88.4025L70.2375 88.6716L68.6229 88.4025L68.2192 88.1334L68.892 87.8643ZM48.8433 85.0386L48.3051 84.0967L47.9015 83.2894L48.3051 83.0203L48.8433 82.4821L49.3816 82.213L50.458 82.4821L52.7454 83.0203L54.7637 84.0967L55.302 85.0386L55.5711 85.5768L55.302 86.1151L54.7637 86.3842H53.5528H52.7454L50.458 85.8459L49.3816 85.5768L48.8433 85.0386Z" fill="black"/>
<defs>
<linearGradient id="paint0_linear_341_8783" x1="199.702" y1="368.087" x2="107.395" y2="170.134" gradientUnits="userSpaceOnUse">
<stop stop-color="#3E3716"/>
<stop offset="0.5275" stop-color="#9E7E2E"/>
<stop offset="1" stop-color="#AF9860"/>
</linearGradient>
</defs>
</svg>
