<svg version="1.2" xmlns="http://www.w3.org/2000/svg" viewBox="0 0 123 89" width="123" height="89">
	<title>envelope-line-icon-svg</title>
	<style>
		.s0 { fill: #ffffff } 
	</style>
	<g id="Layer">
		<path id="Layer" fill-rule="evenodd" class="s0" d="m7 0h108.8c2 0 3.7 0.8 5 2.1 1.3 1.2 2.1 3 2.1 4.9v74.8c0 1.5-0.5 2.8-1.2 4q-0.3 0.5-0.7 1-0.3 0.2-0.7 0.4c-1.2 1-2.8 1.7-4.5 1.7h-108.8c-1.9 0-3.7-0.8-4.9-2.1-1.3-1.3-2.1-3.1-2.1-5v-74.8c0-1.9 0.8-3.7 2.1-4.9 1.2-1.3 3-2.1 4.9-2.1zm-1.6 78.8l38.1-38.2-38.1-31.1zm42.3-34.8l-39.3 39.4h105.7l-37.5-39.4-12.4 10.6c-1 0.8-2.4 0.9-3.5 0zm33-3.5l36.8 38.6v-69.9zm-18.3 8.5l51.2-43.6h-104.7z"/>
	</g>
</svg>