<svg width="2086" height="1103" viewBox="0 0 2086 1103" fill="none" xmlns="http://www.w3.org/2000/svg">
<g opacity="0.6">
<path opacity="0.0144928" d="M268.128 1099.4C258.484 1104.52 246.616 1102.64 239.026 1094.79L7.71259 855.557C3.2241 850.915 0.749817 844.689 0.827609 838.232L6.56359 362.379C6.62474 357.301 8.26234 352.368 11.2497 348.262L256.526 11.1034C261.942 3.65763 271.076 -0.122528 280.17 1.31784L566.9 46.7314C575.994 48.1718 583.513 54.5895 586.364 63.3446L715.447 459.795C717.02 464.624 717.053 469.822 715.542 474.67L573.95 929.006C572.029 935.171 567.752 940.328 562.048 943.356L268.128 1099.4Z" stroke="url(#paint0_linear_341_6923)" stroke-opacity="0.5"/>
<path opacity="0.0289855" d="M320.394 1097.86C311.047 1103.45 299.134 1102.19 291.153 1094.79L49.0193 869.995C44.28 865.595 41.4725 859.5 41.2088 853.039L21.9837 381.912C21.7761 376.822 23.1598 371.795 25.9423 367.529L251.749 21.3068C256.773 13.6045 265.686 9.36382 274.832 10.325L561.83 40.4898C570.976 41.451 578.813 47.4523 582.125 56.0308L731.014 441.635C732.849 446.386 733.157 451.592 731.896 456.526L615.138 913.361C613.537 919.626 609.523 925.004 603.973 928.323L320.394 1097.86Z" stroke="url(#paint1_linear_341_6923)" stroke-opacity="0.5"/>
<path opacity="0.0434783" d="M372.256 1094.73C363.229 1100.77 351.304 1100.14 342.958 1093.2L90.8782 883.32C85.901 879.176 82.7671 873.23 82.1616 866.782L38.4864 401.679C38.0087 396.592 39.1332 391.483 41.7025 387.067L247.768 32.886C252.386 24.9481 261.056 20.2597 270.227 20.7403L556.69 35.7532C565.861 36.2339 573.993 41.8028 577.756 50.18L745.671 423.961C747.765 428.621 748.349 433.819 747.342 438.828L655.29 896.819C654.014 903.168 650.275 908.754 644.892 912.355L372.256 1094.73Z" stroke="url(#paint2_linear_341_6923)" stroke-opacity="0.5"/>
<path opacity="0.057971" d="M423.629 1090.05C414.944 1096.52 403.041 1096.52 394.356 1090.05L133.224 895.514C128.022 891.639 124.57 885.859 123.623 879.443L56.0751 421.619C55.3271 416.549 56.1878 411.372 58.536 406.817L244.649 45.7843C248.851 37.6326 257.255 32.5102 266.426 32.5102L551.559 32.5103C560.731 32.5103 569.134 37.6324 573.336 45.7843L759.449 406.817C761.797 411.372 762.658 416.549 761.91 421.619L694.362 879.443C693.416 885.859 689.963 891.639 684.762 895.514L423.629 1090.05Z" stroke="url(#paint3_linear_341_6923)" stroke-opacity="0.5"/>
<path opacity="0.0724638" d="M474.435 1083.87C466.112 1090.75 454.263 1091.37 445.266 1085.4L175.991 906.56C170.58 902.966 166.817 897.37 165.531 891.003L74.7522 441.672C73.7341 436.633 74.327 431.401 76.4469 426.718L242.457 59.9414C246.234 51.5976 254.349 46.0569 263.495 45.5775L546.519 30.7449C555.665 30.2656 564.315 34.9277 568.943 42.8311L772.383 390.245C774.98 394.681 776.117 399.822 775.631 404.94L732.317 861.299C731.704 867.766 728.547 873.724 723.541 877.864L474.435 1083.87Z" stroke="url(#paint4_linear_341_6923)" stroke-opacity="0.5"/>
<path opacity="0.0869565" d="M524.595 1076.23C516.654 1083.5 504.893 1084.74 495.613 1079.27L219.117 916.449C213.511 913.147 209.448 907.752 207.825 901.451L94.5173 461.778C93.2303 456.784 93.552 451.511 95.4367 446.71L241.256 75.2958C244.598 66.7825 252.405 60.8396 261.5 59.8836L541.648 30.4389C550.744 29.4829 559.615 33.6729 564.654 41.3053L784.508 374.286C787.35 378.59 788.761 383.681 788.541 388.833L769.122 842.457C768.844 848.957 765.992 855.079 761.195 859.474L524.595 1076.23Z" stroke="url(#paint5_linear_341_6923)" stroke-opacity="0.5"/>
<path opacity="0.101449" d="M574.036 1067.17C566.496 1074.82 554.855 1076.66 545.32 1071.72L262.538 925.17C256.753 922.172 252.4 916.993 250.442 910.778L115.367 481.878C113.812 476.943 113.86 471.642 115.504 466.736L241.103 91.7815C244.003 83.1213 251.481 76.7936 260.501 75.3649L537.025 31.5679C546.045 30.1392 555.112 33.8466 560.547 41.1865L795.866 358.977C798.945 363.136 800.628 368.162 800.675 373.335L804.748 822.984C804.807 829.5 802.268 835.771 797.692 840.41L574.036 1067.17Z" stroke="url(#paint6_linear_341_6923)" stroke-opacity="0.5"/>
<path opacity="0.115942" d="M622.688 1056.76C615.564 1064.75 604.075 1067.19 594.316 1062.79L306.187 932.72C300.239 930.035 295.607 925.087 293.321 918.974L137.291 501.91C135.472 497.049 135.244 491.735 136.641 486.735L242.049 109.329C244.503 100.545 251.632 93.8507 260.552 91.9546L532.723 34.103C541.643 32.2069 550.879 35.4225 556.693 42.4491L806.493 344.354C809.802 348.353 811.756 353.3 812.072 358.481L839.167 802.951C839.564 809.466 837.345 815.869 833.003 820.742L622.688 1056.76Z" stroke="url(#paint7_linear_341_6923)" stroke-opacity="0.5"/>
<path opacity="0.130435" d="M670.482 1045.04C663.792 1053.36 652.486 1056.39 642.533 1052.53L350.001 939.099C343.906 936.736 339.009 932.035 336.398 926.042L160.28 521.821C158.199 517.046 157.695 511.733 158.839 506.652L244.146 127.869C246.146 118.985 252.91 111.944 261.706 109.587L528.815 38.015C537.611 35.6581 546.989 38.3744 553.164 45.0678L816.433 330.45C819.964 334.278 822.184 339.132 822.77 344.307L872.358 782.432C873.093 788.927 871.202 795.447 867.106 800.541L670.482 1045.04Z" stroke="url(#paint8_linear_341_6923)" stroke-opacity="0.5"/>
<path opacity="0.144928" d="M717.357 1032.09C711.115 1040.71 700.022 1044.31 689.905 1041.01L393.916 944.308C387.693 942.275 382.542 937.835 379.613 931.98L184.319 541.55C181.982 536.876 181.2 531.577 182.087 526.427L247.437 147.328C248.981 138.368 255.362 130.999 264.01 128.189L525.373 43.2673C534.021 40.4574 543.514 42.6681 550.031 49.0096L825.728 317.296C829.473 320.94 831.955 325.687 832.811 330.842L904.304 761.497C905.376 767.956 903.819 774.575 899.979 779.878L717.357 1032.09Z" stroke="url(#paint9_linear_341_6923)" stroke-opacity="0.5"/>
<path opacity="0.15942" d="M763.253 1017.95C757.472 1026.85 746.621 1031.01 736.372 1028.27L437.87 948.353C431.535 946.657 426.145 942.492 422.905 936.791L209.393 561.041C206.802 556.482 205.743 551.212 206.37 546.006L251.962 167.631C253.048 158.617 259.03 150.943 267.506 147.689L522.464 49.82C530.94 46.5664 540.521 48.2668 547.359 54.2387L834.423 304.919C838.373 308.368 841.111 312.993 842.237 318.115L934.992 740.219C936.4 746.624 935.181 753.326 931.608 758.825L763.253 1017.95Z" stroke="url(#paint10_linear_341_6923)" stroke-opacity="0.5"/>
<path opacity="0.173913" d="M808.114 1002.7C802.807 1011.85 792.227 1016.56 781.877 1014.39L481.8 951.244C475.372 949.891 469.757 946.014 466.214 940.483L235.48 580.24C232.642 575.809 231.306 570.582 231.669 565.333L257.758 188.701C258.384 179.658 263.953 171.7 272.234 168.013L520.153 57.6321C528.434 53.945 538.075 55.1319 545.215 60.7175L842.563 293.345C846.707 296.588 849.698 301.078 851.091 306.152L964.413 718.671C966.153 725.005 965.276 731.772 961.981 737.454L808.114 1002.7Z" stroke="url(#paint11_linear_341_6923)" stroke-opacity="0.5"/>
<path opacity="0.188406" d="M851.89 986.413C847.067 995.788 836.786 1001.03 826.366 999.418L525.647 952.993C519.144 951.99 513.319 948.412 509.482 943.068L262.558 599.094C259.479 594.804 257.868 589.635 257.965 584.355L264.856 210.462C265.023 201.413 270.165 193.193 278.229 189.084L518.503 66.6579C526.568 62.549 536.24 63.2207 543.659 68.4047L850.196 282.599C854.524 285.623 857.76 289.965 859.42 294.978L992.562 696.926C994.631 703.172 994.101 709.987 991.091 715.838L851.89 986.413Z" stroke="url(#paint12_linear_341_6923)" stroke-opacity="0.5"/>
<path opacity="0.202899" d="M894.533 969.147C890.203 978.723 880.248 984.47 869.79 983.433L569.347 953.617C562.789 952.966 556.769 949.701 552.648 944.558L290.6 617.551C287.286 613.416 285.402 608.317 285.231 603.021L273.28 232.833C272.989 223.801 277.692 215.343 285.518 210.825L517.571 76.8487C525.396 72.3307 535.073 72.4868 542.749 77.255L857.366 272.699C861.867 275.495 865.341 279.675 867.265 284.613L1019.44 675.057C1021.83 681.197 1021.65 688.043 1018.93 694.048L894.533 969.147Z" stroke="url(#paint13_linear_341_6923)" stroke-opacity="0.5"/>
<path opacity="0.217391" d="M936.003 950.98C932.174 960.73 922.57 966.967 912.106 966.499L612.848 953.133C606.253 952.839 600.055 949.895 595.66 944.969L319.58 635.561C316.039 631.593 313.886 626.58 313.445 621.279L283.057 255.734C282.31 246.744 286.563 238.07 294.129 233.157L517.415 88.1531C524.981 83.2398 534.635 82.8818 542.544 87.2212L864.126 263.663C868.789 266.221 872.493 270.228 874.678 275.077L1045.04 653.136C1047.76 659.154 1047.93 666.013 1045.51 672.158L936.003 950.98Z" stroke="url(#paint14_linear_341_6923)" stroke-opacity="0.5"/>
<path opacity="0.231884" d="M976.26 931.986C972.938 941.883 963.71 948.587 953.271 948.688L656.088 951.564C649.475 951.628 643.118 949.016 638.46 944.322L349.466 653.075C345.706 649.286 343.286 644.372 342.575 639.081L294.199 279.085C293 270.159 296.794 261.295 304.08 256.001L518.086 100.517C525.372 95.2228 534.975 94.3534 543.094 98.2524L870.522 255.506C875.334 257.817 879.259 261.636 881.701 266.383L1069.39 631.233C1072.41 637.114 1072.93 643.968 1070.83 650.237L976.26 931.986Z" stroke="url(#paint15_linear_341_6923)" stroke-opacity="0.5"/>
<path opacity="0.246377" d="M1015.27 912.239C1012.46 922.257 1003.63 929.407 993.249 930.073L699.014 948.934C692.403 949.358 685.903 947.086 680.994 942.638L380.223 670.047C376.253 666.449 373.571 661.648 372.59 656.381L306.72 302.805C305.073 293.966 308.4 284.936 315.387 279.278L519.633 113.883C526.62 108.225 536.145 106.848 544.448 110.297L876.602 248.24C881.551 250.295 885.689 253.916 888.383 258.547L1092.48 609.421C1095.81 615.147 1096.68 621.978 1094.89 628.356L1015.27 912.239Z" stroke="url(#paint16_linear_341_6923)" stroke-opacity="0.5"/>
<path opacity="0.26087" d="M1053.01 891.819C1050.71 901.93 1042.3 909.503 1032.01 910.727L741.574 945.271C734.985 946.055 728.359 944.132 723.213 939.943L411.818 686.435C407.647 683.039 404.709 678.365 403.458 673.134L320.629 326.814C318.541 318.085 321.393 308.913 328.063 302.908L522.102 128.195C528.771 122.189 538.191 120.311 546.654 123.3L882.419 241.875C887.49 243.667 891.832 247.077 894.773 251.58L1114.34 587.768C1117.97 593.324 1119.19 600.115 1117.72 606.586L1053.01 891.819Z" stroke="url(#paint17_linear_341_6923)" stroke-opacity="0.5"/>
<path opacity="0.275362" d="M1089.45 870.803C1087.67 880.98 1079.7 888.949 1069.52 890.726L783.714 940.606C777.166 941.749 770.433 940.181 765.063 936.263L444.209 702.195C439.847 699.013 436.658 694.479 435.138 689.298L335.925 351.031C333.403 342.434 335.775 333.146 342.11 326.811L525.531 143.391C531.866 137.056 541.153 134.684 549.75 137.205L888.017 236.419C893.199 237.938 897.733 241.127 900.915 245.489L1134.98 566.343C1138.9 571.714 1140.47 578.446 1139.33 584.995L1089.45 870.803Z" stroke="url(#paint18_linear_341_6923)" stroke-opacity="0.5"/>
<path opacity="0.289855" d="M1124.57 849.267C1123.31 859.484 1115.8 867.825 1105.77 870.144L825.389 934.969C818.9 936.469 812.081 935.263 806.5 931.629L477.36 717.288C472.818 714.33 469.385 709.949 467.598 704.831L352.611 375.375C349.664 366.931 351.551 357.553 357.535 350.907L529.962 159.408C535.946 152.762 545.075 149.905 553.781 151.953L893.452 231.873C898.729 233.114 903.445 236.071 906.861 240.279L1154.43 545.211C1158.63 550.382 1160.54 557.038 1159.73 563.648L1124.57 849.267Z" stroke="url(#paint19_linear_341_6923)" stroke-opacity="0.5"/>
<path opacity="0.304348" d="M1158.35 827.292C1157.61 837.521 1150.58 846.207 1140.73 849.058L866.55 928.396C860.141 930.251 853.253 929.412 847.478 926.072L511.228 731.678C506.517 728.955 502.846 724.739 500.796 719.698L370.679 399.767C367.316 391.498 368.716 382.055 374.334 375.118L535.428 176.184C541.045 169.247 549.991 165.914 558.778 167.484L898.771 228.24C904.128 229.198 909.014 231.912 912.658 235.954L1172.71 524.438C1177.18 529.394 1179.43 535.957 1178.95 542.611L1158.35 827.292Z" stroke="url(#paint20_linear_341_6923)" stroke-opacity="0.5"/>
<path opacity="0.318841" d="M1190.8 804.956C1190.57 815.171 1184.03 824.175 1174.38 827.545L907.152 920.925C900.843 923.13 893.906 922.661 887.95 919.627L545.769 745.33C540.9 742.85 537 738.813 534.688 733.861L390.118 424.129C386.35 416.055 387.261 406.573 392.498 399.365L541.957 193.652C547.194 186.445 555.931 182.648 564.773 183.737L904.021 225.519C909.444 226.187 914.489 228.649 918.352 232.513L1189.86 504.086C1194.58 508.813 1197.17 515.265 1197.03 521.947L1190.8 804.956Z" stroke="url(#paint21_linear_341_6923)" stroke-opacity="0.5"/>
<path opacity="0.333333" d="M1221.89 782.339C1222.18 792.514 1216.14 801.806 1206.73 805.683L947.154 912.595C940.962 915.145 933.997 915.05 927.877 912.331L580.936 758.212C575.922 755.985 571.8 752.138 569.232 747.289L410.912 448.384C406.75 440.526 407.173 431.03 412.015 423.573L549.576 211.749C554.418 204.291 562.922 200.043 571.793 200.649L909.251 223.706C914.726 224.08 919.916 226.28 923.99 229.955L1205.9 484.216C1210.87 488.701 1213.79 495.025 1213.98 501.719L1221.89 782.339Z" stroke="url(#paint22_linear_341_6923)" stroke-opacity="0.5"/>
<path opacity="0.347826" d="M1251.64 759.518C1252.43 769.627 1246.91 779.18 1237.76 783.547L986.518 903.446C980.463 906.336 973.488 906.616 967.222 904.222L616.686 770.296C611.538 768.33 607.204 764.685 604.384 759.952L433.045 472.456C428.502 464.833 428.436 455.349 432.873 447.664L558.307 230.406C562.744 222.72 570.991 218.035 579.864 218.158L914.512 222.794C920.022 222.87 925.344 224.802 929.621 228.276L1220.87 464.886C1226.08 469.116 1229.32 475.296 1229.85 481.985L1251.64 759.518Z" stroke="url(#paint23_linear_341_6923)" stroke-opacity="0.5"/>
<path opacity="0.362319" d="M1280.03 736.572C1281.33 746.589 1276.34 756.373 1267.48 761.213L1025.21 893.522C1019.31 896.744 1012.34 897.4 1005.95 895.338L652.968 781.555C647.702 779.857 643.165 776.427 640.097 771.822L456.492 496.272C451.581 488.902 451.03 479.455 455.05 471.564L568.169 249.556C572.19 241.665 580.157 236.558 589.006 236.199L919.85 222.775C925.379 222.55 930.821 224.204 935.29 227.467L1234.82 446.152C1240.25 450.115 1243.81 456.135 1244.67 462.801L1280.03 736.572Z" stroke="url(#paint24_linear_341_6923)" stroke-opacity="0.5"/>
<path opacity="0.376812" d="M1307.09 713.578C1308.88 723.477 1304.43 733.462 1295.88 738.758L1063.18 882.868C1057.46 886.413 1050.53 887.446 1044.02 885.723L689.734 791.966C684.362 790.544 679.632 787.338 676.322 782.874L481.224 519.761C475.96 512.661 474.927 503.277 478.522 495.203L579.175 269.132C582.77 261.058 590.435 255.546 599.233 254.708L925.31 223.637C930.843 223.11 936.39 224.479 941.042 227.52L1247.78 428.067C1253.41 431.753 1257.29 437.595 1258.48 444.222L1307.09 713.578Z" stroke="url(#paint25_linear_341_6923)" stroke-opacity="0.5"/>
<path opacity="0.391304" d="M1332.82 690.61C1335.09 700.367 1331.2 710.523 1322.98 716.255L1100.42 871.527C1094.89 875.387 1088.01 876.795 1081.4 875.418L726.933 801.508C721.468 800.368 716.557 797.397 713.011 793.086L507.21 542.85C501.608 536.039 500.099 526.742 503.26 518.508L591.335 289.065C594.495 280.832 601.837 274.932 610.559 273.619L930.939 225.365C936.458 224.534 942.096 225.612 946.92 228.422L1259.8 410.681C1265.63 414.078 1269.8 419.728 1271.33 426.299L1332.82 690.61Z" stroke="url(#paint26_linear_341_6923)" stroke-opacity="0.5"/>
<path opacity="0.405797" d="M1357.24 667.743C1359.99 677.334 1356.64 687.631 1348.78 693.777L1136.89 859.548C1131.56 863.713 1124.75 865.493 1118.07 864.467L764.513 810.163C758.971 809.312 753.888 806.585 750.114 802.439L534.416 565.475C528.492 558.967 526.513 549.781 529.233 541.412L604.654 309.289C607.373 300.919 614.373 294.651 622.991 292.868L936.779 227.945C942.269 226.809 947.983 227.59 952.967 230.159L1270.92 394.042C1276.93 397.139 1281.39 402.582 1283.25 409.081L1357.24 667.743Z" stroke="url(#paint27_linear_341_6923)" stroke-opacity="0.5"/>
<path opacity="0.42029" d="M1380.37 645.049C1383.58 654.451 1380.79 664.858 1373.31 671.397L1172.56 846.978C1167.46 851.438 1160.74 853.587 1154 852.916L802.424 817.917C796.82 817.359 791.578 814.887 787.583 810.917L562.803 587.569C556.574 581.38 554.133 572.331 556.406 563.849L619.137 329.736C621.409 321.254 628.047 314.637 636.536 312.391L942.875 231.357C948.321 229.916 954.096 230.396 959.229 232.715L1281.2 378.194C1287.38 380.983 1292.12 386.203 1294.31 392.614L1380.37 645.049Z" stroke="url(#paint28_linear_341_6923)" stroke-opacity="0.5"/>
<path opacity="0.434783" d="M1402.24 622.6C1405.89 631.79 1403.66 642.276 1396.58 649.184L1207.41 833.868C1202.56 838.609 1195.95 841.123 1189.17 840.811L840.614 824.758C834.961 824.498 829.573 822.289 825.364 818.506L592.328 609.071C585.811 603.215 582.918 594.325 584.74 585.755L634.779 350.338C636.601 341.768 642.86 334.824 651.195 332.124L949.269 235.58C954.652 233.837 960.473 234.01 965.743 236.071L1290.69 363.177C1297.02 365.65 1302.03 370.633 1304.54 376.94L1402.24 622.6Z" stroke="url(#paint29_linear_341_6923)" stroke-opacity="0.5"/>
<path opacity="0.449275" d="M1422.86 600.464C1426.95 609.42 1425.28 619.955 1418.63 627.209L1241.43 820.266C1236.83 825.276 1230.36 828.15 1223.56 828.198L879.031 830.678C873.346 830.719 867.823 828.782 863.41 825.198L622.948 629.924C616.163 624.414 612.827 615.706 614.194 607.072L651.579 371.031C652.947 362.398 658.81 355.147 666.966 352.004L956.002 240.594C961.307 238.549 967.158 238.413 972.552 240.209L1299.45 349.032C1305.9 351.18 1311.17 355.913 1314 362.099L1422.86 600.464Z" stroke="url(#paint30_linear_341_6923)" stroke-opacity="0.5"/>
<path opacity="0.463768" d="M1442.28 578.707C1446.79 587.409 1445.68 597.961 1439.46 605.535L1274.59 806.223C1270.27 811.488 1263.95 814.714 1257.14 815.126L917.62 835.671C911.918 836.016 906.274 834.358 901.665 830.983L654.612 650.069C647.577 644.917 643.81 636.414 644.721 627.742L669.525 391.75C670.437 383.078 675.889 375.543 683.842 371.967L963.11 246.372C968.32 244.029 974.185 243.58 979.691 245.103L1307.52 335.79C1314.09 337.607 1319.61 342.077 1322.74 348.127L1442.28 578.707Z" stroke="url(#paint31_linear_341_6923)" stroke-opacity="0.5"/>
<path opacity="0.478261" d="M1460.53 557.393C1465.44 565.82 1464.89 576.361 1459.12 584.228L1306.89 791.789C1302.85 797.295 1296.7 800.866 1289.91 801.641L956.33 839.734C950.626 840.385 944.875 839.013 940.08 835.857L687.27 669.455C680.004 664.673 675.819 656.396 676.274 647.708L688.604 412.43C689.06 403.743 694.087 395.949 701.814 391.952L970.632 252.888C975.731 250.25 981.594 249.487 987.198 250.731L1314.97 323.484C1321.64 324.963 1327.39 329.158 1330.83 335.056L1460.53 557.393Z" stroke="url(#paint32_linear_341_6923)" stroke-opacity="0.5"/>
<path opacity="0.492754" d="M1477.64 536.583C1482.95 544.717 1482.95 555.215 1477.64 563.349L1338.31 777.015C1334.57 782.747 1328.61 786.654 1321.86 787.791L995.11 842.866C989.421 843.825 983.576 842.745 978.605 839.818L720.87 688.033C713.393 683.63 708.803 675.599 708.803 666.922L708.803 433.01C708.803 424.332 713.393 416.302 720.87 411.898L978.605 260.114C983.576 257.186 989.421 256.107 995.11 257.066L1321.86 312.14C1328.61 313.278 1334.57 317.185 1338.31 322.917L1477.64 536.583Z" stroke="url(#paint33_linear_341_6923)" stroke-opacity="0.5"/>
<path opacity="0.507246" d="M1493.67 516.336C1499.34 524.158 1499.89 534.585 1495.06 542.957L1368.84 761.952C1365.41 767.893 1359.66 772.128 1352.97 773.626L1033.9 845.072C1028.25 846.339 1022.32 845.558 1017.19 842.868L755.354 705.757C747.686 701.742 742.706 693.979 742.253 685.335L730.099 453.428C729.646 444.784 733.787 436.543 740.993 431.748L987.059 268.02C991.887 264.808 997.697 263.412 1003.46 264.081L1328.24 301.784C1335.05 302.575 1341.22 306.184 1345.24 311.734L1493.67 516.336Z" stroke="url(#paint34_linear_341_6923)" stroke-opacity="0.5"/>
<path opacity="0.521739" d="M1508.65 496.707C1514.67 504.201 1515.76 514.526 1511.42 523.109L1398.48 746.652C1395.38 752.785 1389.85 757.335 1383.23 759.192L1072.67 846.356C1067.05 847.931 1061.07 847.454 1055.77 845.01L790.664 722.585C782.826 718.966 777.472 711.489 776.57 702.903L752.472 473.626C751.569 465.04 755.252 456.613 762.166 451.444L996.029 276.574C1000.7 273.084 1006.46 271.372 1012.27 271.746L1334.17 292.435C1341.03 292.875 1347.39 296.176 1351.69 301.531L1508.65 496.707Z" stroke="url(#paint35_linear_341_6923)" stroke-opacity="0.5"/>
<path opacity="0.536232" d="M1522.63 477.747C1528.99 484.896 1530.6 495.093 1526.76 503.856L1427.23 731.163C1424.46 737.471 1419.17 742.326 1412.65 744.538L1111.34 846.727C1105.79 848.609 1099.75 848.44 1094.32 846.251L826.741 738.478C818.754 735.261 813.043 728.088 811.696 719.585L775.895 493.545C774.548 485.042 777.763 476.455 784.365 470.928L1005.54 285.743C1010.04 281.981 1015.73 279.955 1021.59 280.03L1339.73 284.108C1346.61 284.196 1353.14 287.178 1357.72 292.324L1522.63 477.747Z" stroke="url(#paint36_linear_341_6923)" stroke-opacity="0.5"/>
<path opacity="0.550725" d="M1535.66 459.508C1542.33 466.298 1544.46 476.337 1541.13 485.253L1455.08 715.538C1452.66 722.003 1447.63 727.149 1441.22 729.711L1149.88 846.199C1144.41 848.386 1138.34 848.529 1132.77 846.603L863.519 753.404C855.405 750.595 849.354 743.744 847.569 735.345L800.336 513.134C798.551 504.736 801.293 496.015 807.563 490.149L1015.63 295.494C1019.93 291.47 1025.54 289.13 1031.42 288.903L1344.96 276.82C1351.85 276.554 1358.54 279.209 1363.38 284.132L1535.66 459.508Z" stroke="url(#paint37_linear_341_6923)" stroke-opacity="0.5"/>
<path opacity="0.565217" d="M1547.8 442.033C1554.76 448.451 1557.4 458.305 1554.58 467.344L1482.04 699.825C1479.98 706.428 1475.23 711.852 1468.95 714.759L1188.24 844.784C1182.86 847.274 1176.77 847.732 1171.08 846.075L900.942 767.33C892.722 764.934 886.349 758.42 884.133 750.15L825.77 532.338C823.554 524.068 825.816 515.24 831.737 509.055L1026.31 305.79C1030.41 301.512 1035.91 298.862 1041.81 298.331L1349.93 270.577C1356.82 269.957 1363.65 272.277 1368.74 276.965L1547.8 442.033Z" stroke="url(#paint38_linear_341_6923)" stroke-opacity="0.5"/>
<path opacity="0.57971" d="M1559.09 425.365C1566.32 431.397 1569.46 441.041 1567.15 450.172L1508.12 684.073C1506.43 690.794 1501.96 696.482 1495.84 699.728L1226.36 842.5C1221.09 845.288 1215 846.064 1209.2 844.682L938.939 780.231C930.634 778.25 923.959 772.09 921.321 763.97L852.158 551.107C849.519 542.987 851.298 534.079 856.853 527.596L1037.62 316.596C1041.49 312.073 1046.88 309.117 1052.78 308.279L1354.71 265.386C1361.58 264.411 1368.53 266.389 1373.85 270.83L1559.09 425.365Z" stroke="url(#paint39_linear_341_6923)" stroke-opacity="0.5"/>
<path opacity="0.594203" d="M1569.6 409.542C1577.08 415.179 1580.69 424.586 1578.9 433.78L1533.33 668.33C1532.01 675.15 1527.85 681.087 1521.89 684.663L1264.2 839.366C1259.06 842.448 1252.98 843.543 1247.09 842.444L977.446 792.084C969.078 790.521 962.121 784.727 959.071 776.78L879.462 569.393C876.411 561.446 877.704 552.485 882.877 545.725L1049.56 327.873C1053.2 323.117 1058.46 319.858 1064.34 318.713L1359.36 261.249C1366.18 259.921 1373.24 261.551 1378.79 265.732L1569.6 409.542Z" stroke="url(#paint40_linear_341_6923)" stroke-opacity="0.5"/>
<path opacity="0.608696" d="M1579.39 394.598C1587.09 399.829 1591.16 408.977 1589.89 418.203L1557.67 652.643C1556.73 659.541 1552.89 665.71 1547.12 669.608L1301.72 835.403C1296.72 838.775 1290.67 840.19 1284.7 839.378L1016.4 802.87C1007.99 801.726 1000.77 796.312 997.32 788.559L907.647 587.151C904.195 579.398 905.001 570.411 909.778 563.396L1062.17 339.583C1065.56 334.604 1070.67 331.049 1076.52 329.596L1363.93 258.164C1370.69 256.485 1377.84 257.76 1383.6 261.672L1579.39 394.598Z" stroke="url(#paint41_linear_341_6923)" stroke-opacity="0.5"/>
<path opacity="0.623188" d="M1588.5 380.565C1596.41 385.382 1600.93 394.246 1600.18 403.475L1581.17 637.056C1580.6 644.012 1577.1 650.397 1571.53 654.607L1338.86 830.635C1334.03 834.291 1328.02 836.027 1321.98 835.507L1055.73 812.575C1047.3 811.849 1039.84 806.826 1036 799.289L936.668 604.338C932.828 596.8 933.148 587.814 937.515 580.569L1075.46 351.687C1078.59 346.498 1083.53 342.652 1089.33 340.891L1368.5 256.126C1375.17 254.098 1382.4 255.015 1388.36 258.646L1588.5 380.565Z" stroke="url(#paint42_linear_341_6923)" stroke-opacity="0.5"/>
<path opacity="0.637681" d="M1597.01 367.471C1605.1 371.867 1610.04 380.425 1609.8 389.627L1603.83 621.617C1603.65 628.609 1600.49 635.192 1595.15 639.705L1375.6 825.092C1370.95 829.025 1364.99 831.08 1358.9 830.857L1095.37 821.191C1086.94 820.882 1079.27 816.26 1075.05 808.957L966.484 620.918C962.268 613.615 962.104 604.657 966.05 597.204L1089.44 364.147C1092.3 358.76 1097.05 354.63 1102.79 352.563L1373.11 255.127C1379.69 252.755 1386.97 253.309 1393.12 256.649L1597.01 367.471Z" stroke="url(#paint43_linear_341_6923)" stroke-opacity="0.5"/>
<path opacity="0.652174" d="M1604.98 355.337C1613.22 359.306 1618.57 367.538 1618.84 376.683L1625.68 606.365C1625.89 613.373 1623.08 620.135 1617.98 624.939L1411.89 818.8C1407.42 823.002 1401.54 825.376 1395.41 825.452L1135.25 828.707C1126.85 828.812 1118.98 824.602 1114.4 817.553L997.05 636.851C992.473 629.802 991.828 620.898 995.342 613.263L1104.13 376.92C1106.7 371.349 1111.26 366.943 1116.91 364.571L1377.84 255.153C1384.3 252.441 1391.62 252.63 1397.94 255.671L1604.98 355.337Z" stroke="url(#paint44_linear_341_6923)" stroke-opacity="0.5"/>
<path opacity="0.666667" d="M1612.46 344.185C1620.84 347.721 1626.57 355.607 1627.35 364.668L1646.73 591.344C1647.33 598.347 1644.9 605.269 1640.04 610.352L1447.69 811.79C1443.43 816.254 1437.64 818.944 1431.48 819.324L1175.31 835.125C1166.95 835.64 1158.91 831.849 1153.98 825.072L1028.32 652.106C1023.39 645.329 1022.27 636.506 1025.35 628.714L1119.53 389.969C1121.8 384.228 1126.15 379.553 1131.71 376.879L1382.73 256.19C1389.06 253.145 1396.4 252.966 1402.87 255.7L1612.46 344.185Z" stroke="url(#paint45_linear_341_6923)" stroke-opacity="0.5"/>
<path opacity="0.681159" d="M1619.53 334.028C1628.02 337.129 1634.11 344.651 1635.38 353.597L1667.02 576.593C1668.01 583.568 1665.95 590.631 1661.36 595.979L1482.96 804.095C1478.92 808.811 1473.24 811.815 1467.07 812.501L1215.48 840.443C1207.19 841.365 1198.99 837.999 1193.74 831.511L1060.24 666.651C1054.99 660.163 1053.4 651.448 1056.02 643.524L1135.66 403.249C1137.62 397.354 1141.74 392.421 1147.19 389.448L1387.85 258.219C1394.03 254.846 1401.37 254.299 1407.99 256.717L1619.53 334.028Z" stroke="url(#paint46_linear_341_6923)" stroke-opacity="0.5"/>
<path opacity="0.695652" d="M1626.24 324.879C1634.82 327.543 1641.24 334.684 1643 343.489L1686.56 562.15C1687.93 569.075 1686.26 576.259 1681.96 581.86L1517.68 795.751C1513.87 800.709 1508.31 804.023 1502.14 805.016L1255.7 844.67C1247.49 845.991 1239.17 843.056 1233.6 836.874L1092.77 680.46C1087.2 674.278 1085.15 665.696 1087.32 657.667L1152.52 416.724C1154.15 410.689 1158.03 405.508 1163.36 402.239L1393.25 261.217C1399.27 257.525 1406.59 256.609 1413.33 258.705L1626.24 324.879Z" stroke="url(#paint47_linear_341_6923)" stroke-opacity="0.5"/>
<path opacity="0.710145" d="M1632.66 316.745C1641.3 318.972 1648.04 325.715 1650.27 334.351L1705.37 548.051C1707.14 554.905 1705.86 562.189 1701.85 568.027L1551.8 786.792C1548.24 791.981 1542.82 795.602 1536.66 796.904L1295.9 847.812C1287.79 849.527 1279.36 847.026 1273.5 841.166L1125.85 693.508C1119.99 687.648 1117.49 679.223 1119.2 671.116L1170.11 430.349C1171.41 424.193 1175.03 418.773 1180.22 415.214L1398.99 265.159C1404.82 261.155 1412.11 259.872 1418.96 261.639L1632.66 316.745Z" stroke="url(#paint48_linear_341_6923)" stroke-opacity="0.5"/>
<path opacity="0.724638" d="M1638.85 309.631C1647.53 311.421 1654.56 317.754 1657.25 326.194L1723.5 534.331C1725.65 541.092 1724.77 548.455 1721.07 554.514L1585.3 777.258C1582 782.667 1576.74 786.589 1570.61 788.2L1336.01 849.885C1328.02 851.984 1319.52 849.922 1313.38 844.397L1159.43 705.776C1153.29 700.252 1150.35 692.009 1151.61 683.85L1188.43 444.087C1189.39 437.825 1192.74 432.179 1197.78 428.334L1405.11 270.019C1410.75 265.712 1417.98 264.062 1424.93 265.496L1638.85 309.631Z" stroke="url(#paint49_linear_341_6923)" stroke-opacity="0.5"/>
<path opacity="0.73913" d="M1644.88 303.536C1653.57 304.891 1660.86 310.8 1664 319.02L1740.97 521.021C1743.5 527.668 1743.02 535.088 1739.65 541.353L1618.15 767.187C1615.13 772.805 1610.03 777.022 1603.95 778.942L1375.97 850.905C1368.13 853.38 1359.57 851.756 1353.18 846.581L1193.47 717.246C1187.07 712.071 1183.71 704.034 1184.5 695.849L1207.49 457.897C1208.1 451.547 1211.17 445.687 1216.04 441.562L1411.67 275.763C1417.1 271.164 1424.26 269.151 1431.29 270.246L1644.88 303.536Z" stroke="url(#paint50_linear_341_6923)" stroke-opacity="0.5"/>
<path opacity="0.753623" d="M1650.8 298.457C1659.48 299.38 1667.02 304.856 1670.58 312.83L1757.8 508.153C1760.71 514.665 1760.64 522.12 1757.6 528.572L1650.32 756.62C1647.59 762.434 1642.68 766.94 1636.65 769.169L1415.73 850.892C1408.05 853.733 1399.46 852.548 1392.83 847.734L1227.9 727.904C1221.27 723.09 1217.49 715.283 1217.82 707.099L1227.27 471.739C1227.53 465.319 1230.3 459.258 1234.99 454.86L1418.72 282.36C1423.92 277.479 1430.99 275.105 1438.08 275.859L1650.8 298.457Z" stroke="url(#paint51_linear_341_6923)" stroke-opacity="0.5"/>
<path opacity="0.768116" d="M1656.67 294.387C1665.33 294.882 1673.08 299.914 1677.05 307.62L1774.04 495.754C1777.32 502.108 1777.66 509.576 1774.97 516.2L1681.8 745.599C1679.36 751.595 1674.66 756.384 1668.7 758.92L1455.23 849.869C1447.72 853.066 1439.12 852.319 1432.28 847.877L1262.68 737.738C1255.84 733.296 1251.66 725.741 1251.53 717.586L1247.78 485.573C1247.68 479.102 1250.14 472.853 1254.63 468.19L1426.3 289.772C1431.26 284.621 1438.22 281.891 1445.35 282.299L1656.67 294.387Z" stroke="url(#paint52_linear_341_6923)" stroke-opacity="0.5"/>
<path opacity="0.782609" d="M1662.57 291.314C1671.17 291.387 1679.11 295.969 1683.47 303.383L1789.72 483.849C1793.36 490.026 1794.11 497.484 1791.77 504.26L1712.56 734.167C1710.43 740.331 1705.94 745.394 1700.08 748.236L1494.39 847.866C1487.09 851.406 1478.5 851.095 1471.46 847.034L1297.76 746.743C1290.72 742.682 1286.16 735.4 1285.57 727.3L1269.01 499.361C1268.54 492.859 1270.68 486.437 1274.95 481.516L1434.45 297.962C1439.15 292.552 1445.99 289.472 1453.15 289.533L1662.57 291.314Z" stroke="url(#paint53_linear_341_6923)" stroke-opacity="0.5"/>
<path opacity="0.797101" d="M1668.54 289.225C1677.07 288.883 1685.16 293.007 1689.9 300.11L1804.87 472.464C1808.86 478.441 1810.02 485.868 1808.05 492.778L1742.58 722.368C1740.78 728.685 1736.52 734.014 1730.75 737.159L1533.19 844.911C1526.09 848.782 1517.54 848.902 1510.33 845.231L1333.07 754.913C1325.87 751.242 1320.94 744.253 1319.9 736.235L1290.95 513.066C1290.1 506.552 1291.91 499.972 1295.96 494.802L1443.22 306.888C1447.65 301.232 1454.34 297.807 1461.52 297.52L1668.54 289.225Z" stroke="url(#paint54_linear_341_6923)" stroke-opacity="0.5"/>
<path opacity="0.811594" d="M1674.64 288.1C1683.08 287.351 1691.31 291.013 1696.39 297.784L1819.53 461.617C1823.86 467.375 1825.43 474.747 1823.83 481.771L1771.86 710.245C1770.39 716.699 1766.37 722.285 1760.72 725.73L1571.55 841.037C1564.68 845.226 1556.18 845.772 1548.83 842.499L1368.58 762.246C1361.23 758.972 1355.95 752.296 1354.47 744.386L1313.58 526.65C1312.36 520.145 1313.82 513.421 1317.63 508.011L1452.64 316.507C1456.79 310.619 1463.32 306.856 1470.5 306.219L1674.64 288.1Z" stroke="url(#paint55_linear_341_6923)" stroke-opacity="0.5"/>
<path opacity="0.826087" d="M1680.94 287.919C1689.26 286.772 1697.59 289.97 1703.01 296.391L1833.73 451.328C1838.39 456.849 1840.37 464.142 1839.15 471.261L1800.37 697.843C1799.24 704.419 1795.48 710.251 1789.96 713.993L1609.43 836.281C1602.8 840.773 1594.39 841.74 1586.91 838.869L1404.23 768.745C1396.75 765.874 1391.15 759.528 1389.22 751.752L1336.89 540.077C1335.29 533.6 1336.4 526.751 1339.96 521.11L1462.75 326.774C1466.61 320.668 1472.96 316.575 1480.12 315.59L1680.94 287.919Z" stroke="url(#paint56_linear_341_6923)" stroke-opacity="0.5"/>
<path opacity="0.84058" d="M1687.47 288.66C1695.66 287.125 1704.07 289.857 1709.79 295.911L1847.51 441.617C1852.49 446.879 1854.88 454.072 1854.05 461.265L1828.1 685.209C1827.33 691.89 1823.84 697.959 1818.46 701.993L1646.78 830.683C1640.4 835.465 1632.1 836.844 1624.51 834.38L1439.96 774.415C1432.38 771.952 1426.47 765.954 1424.12 758.337L1360.87 553.314C1358.89 546.887 1359.64 539.927 1362.94 534.067L1473.58 337.644C1477.13 331.335 1483.29 326.921 1490.41 325.587L1687.47 288.66Z" stroke="url(#paint57_linear_341_6923)" stroke-opacity="0.5"/>
<path opacity="0.855072" d="M1694.31 290.291C1702.34 288.38 1710.8 290.646 1716.8 296.318L1860.92 432.493C1866.19 437.479 1868.99 444.549 1868.54 451.796L1855.06 672.386C1854.64 679.155 1851.44 685.45 1846.22 689.772L1683.56 824.283C1677.45 829.337 1669.26 831.12 1661.6 829.067L1475.73 779.264C1468.07 777.211 1461.88 771.576 1459.11 764.143L1385.5 566.324C1383.14 559.968 1383.51 552.916 1386.54 546.847L1485.15 349.067C1488.39 342.569 1494.35 337.844 1501.41 336.164L1694.31 290.291Z" stroke="url(#paint58_linear_341_6923)" stroke-opacity="0.5"/>
<path opacity="0.869565" d="M1701.48 292.786C1709.35 290.511 1717.83 292.313 1724.09 297.59L1873.98 423.972C1879.54 428.664 1882.73 435.588 1882.69 442.867L1881.23 659.423C1881.18 666.262 1878.28 672.771 1873.22 677.375L1719.72 817.126C1713.89 822.438 1705.85 824.614 1698.14 822.974L1511.5 783.303C1503.78 781.662 1497.33 776.406 1494.16 769.18L1410.77 579.076C1408.02 572.813 1408.02 565.687 1410.75 559.42L1497.51 360.995C1500.42 354.325 1506.15 349.298 1513.15 347.275L1701.48 292.786Z" stroke="url(#paint59_linear_341_6923)" stroke-opacity="0.5"/>
<path opacity="0.884058" d="M1709.05 296.11C1716.73 293.484 1725.2 294.826 1731.69 299.695L1886.74 416.061C1892.57 420.442 1896.15 427.198 1896.5 434.488L1906.61 646.363C1906.94 653.254 1904.35 659.964 1899.48 664.845L1755.23 809.257C1749.69 814.809 1741.82 817.369 1734.07 816.141L1547.2 786.545C1539.45 785.317 1532.76 780.451 1529.2 773.456L1436.64 591.539C1433.51 585.391 1433.12 578.208 1435.56 571.756L1510.66 373.376C1513.24 366.55 1518.73 361.232 1525.64 358.869L1709.05 296.11Z" stroke="url(#paint60_linear_341_6923)" stroke-opacity="0.5"/>
<path opacity="0.898551" d="M1717.06 300.228C1724.53 297.265 1732.97 298.153 1739.66 302.604L1899.23 408.769C1905.32 412.822 1909.28 419.387 1910.03 426.667L1931.21 633.253C1931.92 640.177 1929.65 647.076 1924.97 652.227L1790.05 800.724C1784.81 806.5 1777.12 809.43 1769.36 808.614L1582.81 789.007C1575.04 788.191 1568.14 783.727 1564.2 776.986L1463.11 603.683C1459.6 597.671 1458.82 590.451 1460.95 583.826L1524.62 386.159C1526.87 379.194 1532.11 373.596 1538.91 370.898L1717.06 300.228Z" stroke="url(#paint61_linear_341_6923)" stroke-opacity="0.5"/>
<path opacity="0.913043" d="M1725.54 305.102C1732.79 301.817 1741.18 302.257 1748.05 306.281L1911.49 402.099C1917.82 405.81 1922.15 412.163 1923.3 419.41L1955.03 620.137C1956.12 627.074 1954.19 634.149 1949.72 639.564L1824.15 791.576C1819.21 797.558 1811.73 800.846 1803.98 800.44L1618.26 790.707C1610.51 790.301 1603.42 786.249 1599.13 779.783L1490.14 615.479C1486.26 609.626 1485.07 602.388 1486.89 595.603L1539.42 399.292C1541.32 392.204 1546.29 386.339 1552.98 383.31L1725.54 305.102Z" stroke="url(#paint62_linear_341_6923)" stroke-opacity="0.5"/>
<path opacity="0.927536" d="M1734.55 310.693C1741.56 307.102 1749.87 307.102 1756.88 310.693L1923.57 396.056C1930.12 399.409 1934.81 405.528 1936.35 412.721L1978.06 607.06C1979.55 613.992 1977.96 621.229 1973.71 626.901L1857.5 781.867C1852.87 788.037 1845.61 791.668 1837.9 791.668L1653.53 791.668C1645.81 791.668 1638.55 788.037 1633.93 781.867L1517.72 626.901C1513.46 621.229 1511.87 613.992 1513.36 607.06L1555.07 412.721C1556.62 405.528 1561.31 399.409 1567.86 396.056L1734.55 310.693Z" stroke="url(#paint63_linear_341_6923)" stroke-opacity="0.5"/>
<path opacity="0.942029" d="M1744.1 316.958C1750.86 313.077 1759.07 312.647 1766.2 315.8L1935.49 390.638C1942.24 393.621 1947.28 399.485 1949.22 406.602L2000.33 594.067C2002.21 600.973 2000.98 608.357 1996.96 614.278L1890.07 771.646C1885.76 777.986 1878.74 781.946 1871.09 782.347L1688.56 791.913C1680.91 792.314 1673.51 789.11 1668.56 783.255L1545.81 637.922C1541.19 632.453 1539.19 625.239 1540.34 618.174L1571.58 426.393C1572.76 419.113 1577.17 412.754 1583.56 409.082L1744.1 316.958Z" stroke="url(#paint64_linear_341_6923)" stroke-opacity="0.5"/>
<path opacity="0.956522" d="M1754.25 323.853C1760.75 319.7 1768.83 318.851 1776.05 321.562L1947.3 385.846C1954.22 388.445 1959.6 394.034 1961.94 401.052L2021.84 581.201C2024.12 588.06 2023.26 595.576 2019.48 601.738L1921.84 760.97C1917.86 767.461 1911.09 771.733 1903.52 772.529L1723.33 791.468C1715.75 792.263 1708.24 789.493 1703 783.971L1574.39 648.519C1569.41 643.277 1567 636.105 1567.81 628.922L1588.95 440.255C1589.77 432.904 1593.87 426.319 1600.1 422.337L1754.25 323.853Z" stroke="url(#paint65_linear_341_6923)" stroke-opacity="0.5"/>
<path opacity="0.971014" d="M1765.01 331.334C1771.24 326.925 1779.16 325.67 1786.45 327.938L1959.03 381.672C1966.11 383.877 1971.81 389.171 1974.54 396.069L2042.6 568.503C2045.28 575.295 2044.8 582.928 2041.27 589.323L1952.8 749.89C1949.15 756.515 1942.64 761.082 1935.17 762.265L1757.78 790.36C1750.31 791.543 1742.72 789.21 1737.2 784.038L1603.43 658.67C1598.11 653.677 1595.28 646.568 1595.73 639.281L1607.18 454.252C1607.64 446.85 1611.43 440.053 1617.48 435.768L1765.01 331.334Z" stroke="url(#paint66_linear_341_6923)" stroke-opacity="0.5"/>
<path opacity="0.985507" d="M1776.42 339.353C1782.36 334.707 1790.12 333.06 1797.44 334.886L1970.72 378.114C1977.93 379.914 1983.94 384.894 1987.05 391.65L2062.64 556.018C2065.72 562.72 2065.62 570.455 2062.36 577.074L1982.92 738.465C1979.6 745.204 1973.37 750.048 1966.03 751.61L1791.9 788.622C1784.55 790.183 1776.9 788.289 1771.13 783.482L1632.91 668.355C1627.24 663.634 1624 656.61 1624.09 649.233L1626.29 468.331C1626.38 460.896 1629.84 453.904 1635.7 449.325L1776.42 339.353Z" stroke="url(#paint67_linear_341_6923)" stroke-opacity="0.5"/>
<path d="M1788.5 347.861C1794.15 342.998 1801.71 340.973 1809.04 342.359L1982.4 375.162C1989.73 376.548 1996.02 381.194 1999.51 387.786L2081.95 543.782C2085.44 550.374 2085.73 558.194 2082.75 565.028L2012.19 726.748C2009.21 733.582 2003.28 738.686 1996.08 740.616L1825.65 786.283C1818.44 788.213 1810.76 786.758 1804.76 782.33L1662.79 677.555C1656.79 673.128 1653.14 666.209 1652.86 658.759L1646.26 482.439C1645.98 474.988 1649.11 467.816 1654.76 462.953L1788.5 347.861Z" stroke="url(#paint68_linear_341_6923)" stroke-opacity="0.5"/>
</g>
<defs>
<linearGradient id="paint0_linear_341_6923" x1="251.745" y1="1108.67" x2="439.348" y2="-75.8119" gradientUnits="userSpaceOnUse">
<stop stop-color="#EDB936"/>
<stop offset="1" stop-color="#F78F94"/>
</linearGradient>
<linearGradient id="paint1_linear_341_6923" x1="304.555" y1="1107.91" x2="428.804" y2="-74.237" gradientUnits="userSpaceOnUse">
<stop stop-color="#EDB936"/>
<stop offset="1" stop-color="#F78F94"/>
</linearGradient>
<linearGradient id="paint2_linear_341_6923" x1="357" y1="1105.54" x2="418.656" y2="-70.9227" gradientUnits="userSpaceOnUse">
<stop stop-color="#EDB936"/>
<stop offset="1" stop-color="#F78F94"/>
</linearGradient>
<linearGradient id="paint3_linear_341_6923" x1="408.993" y1="1101.58" x2="408.993" y2="-65.9075" gradientUnits="userSpaceOnUse">
<stop stop-color="#EDB936"/>
<stop offset="1" stop-color="#F78F94"/>
</linearGradient>
<linearGradient id="paint4_linear_341_6923" x1="460.45" y1="1096.08" x2="399.903" y2="-59.2352" gradientUnits="userSpaceOnUse">
<stop stop-color="#EDB936"/>
<stop offset="1" stop-color="#F78F94"/>
</linearGradient>
<linearGradient id="paint5_linear_341_6923" x1="511.295" y1="1089.09" x2="391.472" y2="-50.9517" gradientUnits="userSpaceOnUse">
<stop stop-color="#EDB936"/>
<stop offset="1" stop-color="#F78F94"/>
</linearGradient>
<linearGradient id="paint6_linear_341_6923" x1="561.452" y1="1080.64" x2="383.784" y2="-41.1094" gradientUnits="userSpaceOnUse">
<stop stop-color="#EDB936"/>
<stop offset="1" stop-color="#F78F94"/>
</linearGradient>
<linearGradient id="paint7_linear_341_6923" x1="610.846" y1="1070.8" x2="376.914" y2="-29.7651" gradientUnits="userSpaceOnUse">
<stop stop-color="#EDB936"/>
<stop offset="1" stop-color="#F78F94"/>
</linearGradient>
<linearGradient id="paint8_linear_341_6923" x1="659.408" y1="1059.61" x2="370.937" y2="-16.976" gradientUnits="userSpaceOnUse">
<stop stop-color="#EDB936"/>
<stop offset="1" stop-color="#F78F94"/>
</linearGradient>
<linearGradient id="paint9_linear_341_6923" x1="707.074" y1="1047.14" x2="365.924" y2="-2.80681" gradientUnits="userSpaceOnUse">
<stop stop-color="#EDB936"/>
<stop offset="1" stop-color="#F78F94"/>
</linearGradient>
<linearGradient id="paint10_linear_341_6923" x1="753.781" y1="1033.45" x2="361.942" y2="12.6751" gradientUnits="userSpaceOnUse">
<stop stop-color="#EDB936"/>
<stop offset="1" stop-color="#F78F94"/>
</linearGradient>
<linearGradient id="paint11_linear_341_6923" x1="799.472" y1="1018.6" x2="359.052" y2="29.4012" gradientUnits="userSpaceOnUse">
<stop stop-color="#EDB936"/>
<stop offset="1" stop-color="#F78F94"/>
</linearGradient>
<linearGradient id="paint12_linear_341_6923" x1="844.094" y1="1002.66" x2="357.313" y2="47.2987" gradientUnits="userSpaceOnUse">
<stop stop-color="#EDB936"/>
<stop offset="1" stop-color="#F78F94"/>
</linearGradient>
<linearGradient id="paint13_linear_341_6923" x1="887.595" y1="985.702" x2="356.774" y2="66.2923" gradientUnits="userSpaceOnUse">
<stop stop-color="#EDB936"/>
<stop offset="1" stop-color="#F78F94"/>
</linearGradient>
<linearGradient id="paint14_linear_341_6923" x1="929.936" y1="967.796" x2="357.488" y2="86.3047" gradientUnits="userSpaceOnUse">
<stop stop-color="#EDB936"/>
<stop offset="1" stop-color="#F78F94"/>
</linearGradient>
<linearGradient id="paint15_linear_341_6923" x1="971.071" y1="949.016" x2="359.496" y2="107.256" gradientUnits="userSpaceOnUse">
<stop stop-color="#EDB936"/>
<stop offset="1" stop-color="#F78F94"/>
</linearGradient>
<linearGradient id="paint16_linear_341_6923" x1="1010.97" y1="929.438" x2="362.836" y2="129.064" gradientUnits="userSpaceOnUse">
<stop stop-color="#EDB936"/>
<stop offset="1" stop-color="#F78F94"/>
</linearGradient>
<linearGradient id="paint17_linear_341_6923" x1="1049.59" y1="909.139" x2="367.544" y2="151.649" gradientUnits="userSpaceOnUse">
<stop stop-color="#EDB936"/>
<stop offset="1" stop-color="#F78F94"/>
</linearGradient>
<linearGradient id="paint18_linear_341_6923" x1="1086.92" y1="888.197" x2="373.645" y2="174.925" gradientUnits="userSpaceOnUse">
<stop stop-color="#EDB936"/>
<stop offset="1" stop-color="#F78F94"/>
</linearGradient>
<linearGradient id="paint19_linear_341_6923" x1="1122.92" y1="866.69" x2="381.166" y2="198.808" gradientUnits="userSpaceOnUse">
<stop stop-color="#EDB936"/>
<stop offset="1" stop-color="#F78F94"/>
</linearGradient>
<linearGradient id="paint20_linear_341_6923" x1="1157.59" y1="844.698" x2="390.124" y2="223.212" gradientUnits="userSpaceOnUse">
<stop stop-color="#EDB936"/>
<stop offset="1" stop-color="#F78F94"/>
</linearGradient>
<linearGradient id="paint21_linear_341_6923" x1="1190.92" y1="822.299" x2="400.533" y2="248.053" gradientUnits="userSpaceOnUse">
<stop stop-color="#EDB936"/>
<stop offset="1" stop-color="#F78F94"/>
</linearGradient>
<linearGradient id="paint22_linear_341_6923" x1="1222.88" y1="799.573" x2="412.401" y2="273.245" gradientUnits="userSpaceOnUse">
<stop stop-color="#EDB936"/>
<stop offset="1" stop-color="#F78F94"/>
</linearGradient>
<linearGradient id="paint23_linear_341_6923" x1="1253.48" y1="776.601" x2="425.734" y2="298.703" gradientUnits="userSpaceOnUse">
<stop stop-color="#EDB936"/>
<stop offset="1" stop-color="#F78F94"/>
</linearGradient>
<linearGradient id="paint24_linear_341_6923" x1="1282.72" y1="753.46" x2="440.53" y2="324.343" gradientUnits="userSpaceOnUse">
<stop stop-color="#EDB936"/>
<stop offset="1" stop-color="#F78F94"/>
</linearGradient>
<linearGradient id="paint25_linear_341_6923" x1="1310.61" y1="730.228" x2="456.781" y2="350.081" gradientUnits="userSpaceOnUse">
<stop stop-color="#EDB936"/>
<stop offset="1" stop-color="#F78F94"/>
</linearGradient>
<linearGradient id="paint26_linear_341_6923" x1="1337.15" y1="706.981" x2="474.478" y2="375.834" gradientUnits="userSpaceOnUse">
<stop stop-color="#EDB936"/>
<stop offset="1" stop-color="#F78F94"/>
</linearGradient>
<linearGradient id="paint27_linear_341_6923" x1="1362.35" y1="683.795" x2="493.605" y2="401.521" gradientUnits="userSpaceOnUse">
<stop stop-color="#EDB936"/>
<stop offset="1" stop-color="#F78F94"/>
</linearGradient>
<linearGradient id="paint28_linear_341_6923" x1="1386.25" y1="660.745" x2="514.144" y2="427.064" gradientUnits="userSpaceOnUse">
<stop stop-color="#EDB936"/>
<stop offset="1" stop-color="#F78F94"/>
</linearGradient>
<linearGradient id="paint29_linear_341_6923" x1="1408.86" y1="637.9" x2="536.069" y2="452.383" gradientUnits="userSpaceOnUse">
<stop stop-color="#EDB936"/>
<stop offset="1" stop-color="#F78F94"/>
</linearGradient>
<linearGradient id="paint30_linear_341_6923" x1="1430.2" y1="615.334" x2="559.355" y2="477.406" gradientUnits="userSpaceOnUse">
<stop stop-color="#EDB936"/>
<stop offset="1" stop-color="#F78F94"/>
</linearGradient>
<linearGradient id="paint31_linear_341_6923" x1="1450.31" y1="593.113" x2="583.965" y2="502.057" gradientUnits="userSpaceOnUse">
<stop stop-color="#EDB936"/>
<stop offset="1" stop-color="#F78F94"/>
</linearGradient>
<linearGradient id="paint32_linear_341_6923" x1="1469.22" y1="571.303" x2="609.865" y2="526.266" gradientUnits="userSpaceOnUse">
<stop stop-color="#EDB936"/>
<stop offset="1" stop-color="#F78F94"/>
</linearGradient>
<linearGradient id="paint33_linear_341_6923" x1="1486.97" y1="549.966" x2="637.017" y2="549.966" gradientUnits="userSpaceOnUse">
<stop stop-color="#EDB936"/>
<stop offset="1" stop-color="#F78F94"/>
</linearGradient>
<linearGradient id="paint34_linear_341_6923" x1="1503.59" y1="529.163" x2="665.375" y2="573.092" gradientUnits="userSpaceOnUse">
<stop stop-color="#EDB936"/>
<stop offset="1" stop-color="#F78F94"/>
</linearGradient>
<linearGradient id="paint35_linear_341_6923" x1="1519.13" y1="508.951" x2="694.894" y2="595.583" gradientUnits="userSpaceOnUse">
<stop stop-color="#EDB936"/>
<stop offset="1" stop-color="#F78F94"/>
</linearGradient>
<linearGradient id="paint36_linear_341_6923" x1="1533.65" y1="489.384" x2="725.524" y2="617.378" gradientUnits="userSpaceOnUse">
<stop stop-color="#EDB936"/>
<stop offset="1" stop-color="#F78F94"/>
</linearGradient>
<linearGradient id="paint37_linear_341_6923" x1="1547.17" y1="470.515" x2="757.209" y2="638.427" gradientUnits="userSpaceOnUse">
<stop stop-color="#EDB936"/>
<stop offset="1" stop-color="#F78F94"/>
</linearGradient>
<linearGradient id="paint38_linear_341_6923" x1="1559.77" y1="452.389" x2="789.899" y2="658.675" gradientUnits="userSpaceOnUse">
<stop stop-color="#EDB936"/>
<stop offset="1" stop-color="#F78F94"/>
</linearGradient>
<linearGradient id="paint39_linear_341_6923" x1="1571.48" y1="435.052" x2="823.533" y2="678.075" gradientUnits="userSpaceOnUse">
<stop stop-color="#EDB936"/>
<stop offset="1" stop-color="#F78F94"/>
</linearGradient>
<linearGradient id="paint40_linear_341_6923" x1="1582.37" y1="418.543" x2="858.05" y2="696.585" gradientUnits="userSpaceOnUse">
<stop stop-color="#EDB936"/>
<stop offset="1" stop-color="#F78F94"/>
</linearGradient>
<linearGradient id="paint41_linear_341_6923" x1="1592.5" y1="402.9" x2="893.392" y2="714.164" gradientUnits="userSpaceOnUse">
<stop stop-color="#EDB936"/>
<stop offset="1" stop-color="#F78F94"/>
</linearGradient>
<linearGradient id="paint42_linear_341_6923" x1="1601.92" y1="388.155" x2="929.492" y2="730.776" gradientUnits="userSpaceOnUse">
<stop stop-color="#EDB936"/>
<stop offset="1" stop-color="#F78F94"/>
</linearGradient>
<linearGradient id="paint43_linear_341_6923" x1="1610.7" y1="374.34" x2="966.286" y2="746.392" gradientUnits="userSpaceOnUse">
<stop stop-color="#EDB936"/>
<stop offset="1" stop-color="#F78F94"/>
</linearGradient>
<linearGradient id="paint44_linear_341_6923" x1="1618.89" y1="361.478" x2="1003.71" y2="760.981" gradientUnits="userSpaceOnUse">
<stop stop-color="#EDB936"/>
<stop offset="1" stop-color="#F78F94"/>
</linearGradient>
<linearGradient id="paint45_linear_341_6923" x1="1626.56" y1="349.592" x2="1041.69" y2="774.522" gradientUnits="userSpaceOnUse">
<stop stop-color="#EDB936"/>
<stop offset="1" stop-color="#F78F94"/>
</linearGradient>
<linearGradient id="paint46_linear_341_6923" x1="1633.77" y1="338.699" x2="1080.17" y2="786.994" gradientUnits="userSpaceOnUse">
<stop stop-color="#EDB936"/>
<stop offset="1" stop-color="#F78F94"/>
</linearGradient>
<linearGradient id="paint47_linear_341_6923" x1="1640.59" y1="328.813" x2="1119.07" y2="798.385" gradientUnits="userSpaceOnUse">
<stop stop-color="#EDB936"/>
<stop offset="1" stop-color="#F78F94"/>
</linearGradient>
<linearGradient id="paint48_linear_341_6923" x1="1647.07" y1="319.944" x2="1158.33" y2="808.681" gradientUnits="userSpaceOnUse">
<stop stop-color="#EDB936"/>
<stop offset="1" stop-color="#F78F94"/>
</linearGradient>
<linearGradient id="paint49_linear_341_6923" x1="1653.28" y1="312.098" x2="1197.88" y2="817.878" gradientUnits="userSpaceOnUse">
<stop stop-color="#EDB936"/>
<stop offset="1" stop-color="#F78F94"/>
</linearGradient>
<linearGradient id="paint50_linear_341_6923" x1="1659.3" y1="305.277" x2="1237.64" y2="825.973" gradientUnits="userSpaceOnUse">
<stop stop-color="#EDB936"/>
<stop offset="1" stop-color="#F78F94"/>
</linearGradient>
<linearGradient id="paint51_linear_341_6923" x1="1665.16" y1="299.481" x2="1277.56" y2="832.967" gradientUnits="userSpaceOnUse">
<stop stop-color="#EDB936"/>
<stop offset="1" stop-color="#F78F94"/>
</linearGradient>
<linearGradient id="paint52_linear_341_6923" x1="1670.95" y1="294.703" x2="1317.57" y2="838.866" gradientUnits="userSpaceOnUse">
<stop stop-color="#EDB936"/>
<stop offset="1" stop-color="#F78F94"/>
</linearGradient>
<linearGradient id="paint53_linear_341_6923" x1="1676.72" y1="290.935" x2="1357.59" y2="843.681" gradientUnits="userSpaceOnUse">
<stop stop-color="#EDB936"/>
<stop offset="1" stop-color="#F78F94"/>
</linearGradient>
<linearGradient id="paint54_linear_341_6923" x1="1682.53" y1="288.164" x2="1397.58" y2="847.423" gradientUnits="userSpaceOnUse">
<stop stop-color="#EDB936"/>
<stop offset="1" stop-color="#F78F94"/>
</linearGradient>
<linearGradient id="paint55_linear_341_6923" x1="1688.44" y1="286.373" x2="1437.45" y2="850.11" gradientUnits="userSpaceOnUse">
<stop stop-color="#EDB936"/>
<stop offset="1" stop-color="#F78F94"/>
</linearGradient>
<linearGradient id="paint56_linear_341_6923" x1="1694.51" y1="285.544" x2="1477.16" y2="851.763" gradientUnits="userSpaceOnUse">
<stop stop-color="#EDB936"/>
<stop offset="1" stop-color="#F78F94"/>
</linearGradient>
<linearGradient id="paint57_linear_341_6923" x1="1700.79" y1="285.656" x2="1516.64" y2="852.407" gradientUnits="userSpaceOnUse">
<stop stop-color="#EDB936"/>
<stop offset="1" stop-color="#F78F94"/>
</linearGradient>
<linearGradient id="paint58_linear_341_6923" x1="1707.33" y1="286.68" x2="1555.83" y2="852.068" gradientUnits="userSpaceOnUse">
<stop stop-color="#EDB936"/>
<stop offset="1" stop-color="#F78F94"/>
</linearGradient>
<linearGradient id="paint59_linear_341_6923" x1="1714.19" y1="288.59" x2="1594.69" y2="850.778" gradientUnits="userSpaceOnUse">
<stop stop-color="#EDB936"/>
<stop offset="1" stop-color="#F78F94"/>
</linearGradient>
<linearGradient id="paint60_linear_341_6923" x1="1721.41" y1="291.353" x2="1633.16" y2="848.571" gradientUnits="userSpaceOnUse">
<stop stop-color="#EDB936"/>
<stop offset="1" stop-color="#F78F94"/>
</linearGradient>
<linearGradient id="paint61_linear_341_6923" x1="1729.04" y1="294.936" x2="1671.18" y2="845.482" gradientUnits="userSpaceOnUse">
<stop stop-color="#EDB936"/>
<stop offset="1" stop-color="#F78F94"/>
</linearGradient>
<linearGradient id="paint62_linear_341_6923" x1="1737.13" y1="299.302" x2="1708.71" y2="841.551" gradientUnits="userSpaceOnUse">
<stop stop-color="#EDB936"/>
<stop offset="1" stop-color="#F78F94"/>
</linearGradient>
<linearGradient id="paint63_linear_341_6923" x1="1745.71" y1="304.412" x2="1745.71" y2="836.821" gradientUnits="userSpaceOnUse">
<stop stop-color="#EDB936"/>
<stop offset="1" stop-color="#F78F94"/>
</linearGradient>
<linearGradient id="paint64_linear_341_6923" x1="1754.83" y1="310.225" x2="1782.14" y2="831.335" gradientUnits="userSpaceOnUse">
<stop stop-color="#EDB936"/>
<stop offset="1" stop-color="#F78F94"/>
</linearGradient>
<linearGradient id="paint65_linear_341_6923" x1="1764.52" y1="316.699" x2="1817.96" y2="825.138" gradientUnits="userSpaceOnUse">
<stop stop-color="#EDB936"/>
<stop offset="1" stop-color="#F78F94"/>
</linearGradient>
<linearGradient id="paint66_linear_341_6923" x1="1774.8" y1="323.788" x2="1853.12" y2="818.28" gradientUnits="userSpaceOnUse">
<stop stop-color="#EDB936"/>
<stop offset="1" stop-color="#F78F94"/>
</linearGradient>
<linearGradient id="paint67_linear_341_6923" x1="1785.72" y1="331.448" x2="1887.61" y2="810.809" gradientUnits="userSpaceOnUse">
<stop stop-color="#EDB936"/>
<stop offset="1" stop-color="#F78F94"/>
</linearGradient>
<linearGradient id="paint68_linear_341_6923" x1="1797.3" y1="339.629" x2="1921.4" y2="802.777" gradientUnits="userSpaceOnUse">
<stop stop-color="#EDB936"/>
<stop offset="1" stop-color="#F78F94"/>
</linearGradient>
</defs>
</svg>
