<svg width="2596" height="1973" viewBox="0 0 2596 1973" fill="none" xmlns="http://www.w3.org/2000/svg">
<g opacity="0.6">
<path opacity="0.0144928" d="M702.128 1669.4C692.484 1674.52 680.616 1672.64 673.026 1664.79L441.713 1425.56C437.224 1420.92 434.75 1414.69 434.828 1408.23L440.564 932.379C440.625 927.301 442.262 922.368 445.25 918.262L690.526 581.103C695.942 573.658 705.076 569.877 714.17 571.318L1000.9 616.731C1009.99 618.172 1017.51 624.589 1020.36 633.345L1149.45 1029.8C1151.02 1034.62 1151.05 1039.82 1149.54 1044.67L1007.95 1499.01C1006.03 1505.17 1001.75 1510.33 996.048 1513.36L702.128 1669.4Z" stroke="url(#paint0_linear_341_6925)" stroke-opacity="0.5"/>
<path opacity="0.0289855" d="M754.394 1667.86C745.047 1673.45 733.134 1672.19 725.153 1664.79L483.019 1439.99C478.28 1435.59 475.472 1429.5 475.209 1423.04L455.984 951.912C455.776 946.822 457.16 941.795 459.942 937.529L685.749 591.307C690.773 583.605 699.686 579.364 708.832 580.325L995.83 610.49C1004.98 611.451 1012.81 617.452 1016.12 626.031L1165.01 1011.63C1166.85 1016.39 1167.16 1021.59 1165.9 1026.53L1049.14 1483.36C1047.54 1489.63 1043.52 1495 1037.97 1498.32L754.394 1667.86Z" stroke="url(#paint1_linear_341_6925)" stroke-opacity="0.5"/>
<path opacity="0.0434783" d="M806.256 1664.73C797.229 1670.77 785.304 1670.14 776.958 1663.2L524.878 1453.32C519.901 1449.18 516.767 1443.23 516.162 1436.78L472.486 971.679C472.009 966.592 473.133 961.483 475.703 957.067L681.768 602.886C686.386 594.948 695.056 590.26 704.227 590.74L990.69 605.753C999.861 606.234 1007.99 611.803 1011.76 620.18L1179.67 993.961C1181.76 998.621 1182.35 1003.82 1181.34 1008.83L1089.29 1466.82C1088.01 1473.17 1084.28 1478.75 1078.89 1482.35L806.256 1664.73Z" stroke="url(#paint2_linear_341_6925)" stroke-opacity="0.5"/>
<path opacity="0.057971" d="M857.629 1660.05C848.944 1666.52 837.041 1666.52 828.356 1660.05L567.224 1465.51C562.022 1461.64 558.57 1455.86 557.623 1449.44L490.075 991.619C489.327 986.549 490.188 981.372 492.536 976.817L678.649 615.784C682.851 607.633 691.255 602.51 700.426 602.51L985.559 602.51C994.731 602.51 1003.13 607.632 1007.34 615.784L1193.45 976.817C1195.8 981.372 1196.66 986.549 1195.91 991.619L1128.36 1449.44C1127.42 1455.86 1123.96 1461.64 1118.76 1465.51L857.629 1660.05Z" stroke="url(#paint3_linear_341_6925)" stroke-opacity="0.5"/>
<path opacity="0.0724638" d="M908.435 1653.87C900.112 1660.75 888.263 1661.37 879.266 1655.4L609.991 1476.56C604.58 1472.97 600.817 1467.37 599.531 1461L508.752 1011.67C507.734 1006.63 508.327 1001.4 510.447 996.718L676.457 629.941C680.234 621.598 688.349 616.057 697.495 615.578L980.519 600.745C989.665 600.266 998.315 604.928 1002.94 612.831L1206.38 960.245C1208.98 964.681 1210.12 969.822 1209.63 974.94L1166.32 1431.3C1165.7 1437.77 1162.55 1443.72 1157.54 1447.86L908.435 1653.87Z" stroke="url(#paint4_linear_341_6925)" stroke-opacity="0.5"/>
<path opacity="0.0869565" d="M958.595 1646.23C950.654 1653.5 938.893 1654.74 929.613 1649.27L653.117 1486.45C647.511 1483.15 643.448 1477.75 641.825 1471.45L528.517 1031.78C527.23 1026.78 527.552 1021.51 529.437 1016.71L675.256 645.296C678.598 636.782 686.405 630.84 695.5 629.884L975.648 600.439C984.744 599.483 993.615 603.673 998.654 611.305L1218.51 944.286C1221.35 948.59 1222.76 953.681 1222.54 958.833L1203.12 1412.46C1202.84 1418.96 1199.99 1425.08 1195.19 1429.47L958.595 1646.23Z" stroke="url(#paint5_linear_341_6925)" stroke-opacity="0.5"/>
<path opacity="0.101449" d="M1008.04 1637.17C1000.5 1644.82 988.855 1646.66 979.32 1641.72L696.538 1495.17C690.753 1492.17 686.4 1486.99 684.442 1480.78L549.367 1051.88C547.812 1046.94 547.86 1041.64 549.504 1036.74L675.103 661.782C678.003 653.121 685.481 646.794 694.501 645.365L971.025 601.568C980.045 600.139 989.112 603.847 994.547 611.187L1229.87 928.977C1232.94 933.136 1234.63 938.162 1234.68 943.335L1238.75 1392.98C1238.81 1399.5 1236.27 1405.77 1231.69 1410.41L1008.04 1637.17Z" stroke="url(#paint6_linear_341_6925)" stroke-opacity="0.5"/>
<path opacity="0.115942" d="M1056.69 1626.76C1049.56 1634.75 1038.08 1637.19 1028.32 1632.79L740.187 1502.72C734.239 1500.03 729.607 1495.09 727.321 1488.97L571.291 1071.91C569.472 1067.05 569.244 1061.73 570.641 1056.74L676.049 679.329C678.503 670.545 685.632 663.851 694.552 661.955L966.723 604.103C975.643 602.207 984.879 605.423 990.693 612.449L1240.49 914.354C1243.8 918.353 1245.76 923.3 1246.07 928.481L1273.17 1372.95C1273.56 1379.47 1271.35 1385.87 1267 1390.74L1056.69 1626.76Z" stroke="url(#paint7_linear_341_6925)" stroke-opacity="0.5"/>
<path opacity="0.130435" d="M1104.48 1615.04C1097.79 1623.36 1086.49 1626.39 1076.53 1622.53L784.001 1509.1C777.906 1506.74 773.009 1502.03 770.398 1496.04L594.28 1091.82C592.199 1087.05 591.695 1081.73 592.839 1076.65L678.146 697.869C680.146 688.985 686.91 681.944 695.706 679.587L962.815 608.015C971.611 605.658 980.989 608.374 987.164 615.068L1250.43 900.45C1253.96 904.278 1256.18 909.132 1256.77 914.307L1306.36 1352.43C1307.09 1358.93 1305.2 1365.45 1301.11 1370.54L1104.48 1615.04Z" stroke="url(#paint8_linear_341_6925)" stroke-opacity="0.5"/>
<path opacity="0.144928" d="M1151.36 1602.09C1145.12 1610.71 1134.02 1614.31 1123.9 1611.01L827.916 1514.31C821.693 1512.27 816.542 1507.84 813.613 1501.98L618.319 1111.55C615.982 1106.88 615.2 1101.58 616.087 1096.43L681.437 717.328C682.981 708.368 689.362 700.999 698.01 698.189L959.373 613.267C968.021 610.457 977.514 612.668 984.031 619.01L1259.73 887.296C1263.47 890.94 1265.95 895.687 1266.81 900.842L1338.3 1331.5C1339.38 1337.96 1337.82 1344.58 1333.98 1349.88L1151.36 1602.09Z" stroke="url(#paint9_linear_341_6925)" stroke-opacity="0.5"/>
<path opacity="0.15942" d="M1197.25 1587.95C1191.47 1596.85 1180.62 1601.01 1170.37 1598.27L871.87 1518.35C865.535 1516.66 860.145 1512.49 856.905 1506.79L643.393 1131.04C640.802 1126.48 639.743 1121.21 640.37 1116.01L685.962 737.631C687.048 728.617 693.03 720.943 701.506 717.689L956.464 619.82C964.94 616.566 974.521 618.267 981.359 624.239L1268.42 874.919C1272.37 878.368 1275.11 882.993 1276.24 888.115L1368.99 1310.22C1370.4 1316.62 1369.18 1323.33 1365.61 1328.82L1197.25 1587.95Z" stroke="url(#paint10_linear_341_6925)" stroke-opacity="0.5"/>
<path opacity="0.173913" d="M1242.11 1572.7C1236.81 1581.85 1226.23 1586.56 1215.88 1584.39L915.8 1521.24C909.372 1519.89 903.757 1516.01 900.214 1510.48L669.48 1150.24C666.642 1145.81 665.306 1140.58 665.669 1135.33L691.758 758.701C692.384 749.658 697.953 741.7 706.234 738.013L954.153 627.632C962.434 623.945 972.075 625.132 979.215 630.718L1276.56 863.345C1280.71 866.588 1283.7 871.078 1285.09 876.152L1398.41 1288.67C1400.15 1295 1399.28 1301.77 1395.98 1307.45L1242.11 1572.7Z" stroke="url(#paint11_linear_341_6925)" stroke-opacity="0.5"/>
<path opacity="0.188406" d="M1285.89 1556.41C1281.07 1565.79 1270.79 1571.03 1260.37 1569.42L959.647 1522.99C953.144 1521.99 947.319 1518.41 943.482 1513.07L696.558 1169.09C693.479 1164.8 691.868 1159.63 691.965 1154.36L698.856 780.462C699.023 771.413 704.165 763.193 712.229 759.084L952.503 636.658C960.568 632.549 970.24 633.221 977.659 638.405L1284.2 852.599C1288.52 855.623 1291.76 859.965 1293.42 864.978L1426.56 1266.93C1428.63 1273.17 1428.1 1279.99 1425.09 1285.84L1285.89 1556.41Z" stroke="url(#paint12_linear_341_6925)" stroke-opacity="0.5"/>
<path opacity="0.202899" d="M1328.53 1539.15C1324.2 1548.72 1314.25 1554.47 1303.79 1553.43L1003.35 1523.62C996.789 1522.97 990.769 1519.7 986.648 1514.56L724.6 1187.55C721.286 1183.42 719.402 1178.32 719.231 1173.02L707.28 802.833C706.989 793.801 711.692 785.343 719.518 780.825L951.571 646.849C959.396 642.331 969.073 642.487 976.749 647.255L1291.37 842.699C1295.87 845.495 1299.34 849.675 1301.27 854.613L1453.44 1245.06C1455.83 1251.2 1455.65 1258.04 1452.93 1264.05L1328.53 1539.15Z" stroke="url(#paint13_linear_341_6925)" stroke-opacity="0.5"/>
<path opacity="0.217391" d="M1370 1520.98C1366.17 1530.73 1356.57 1536.97 1346.11 1536.5L1046.85 1523.13C1040.25 1522.84 1034.06 1519.9 1029.66 1514.97L753.58 1205.56C750.039 1201.59 747.886 1196.58 747.445 1191.28L717.057 825.734C716.31 816.744 720.563 808.07 728.129 803.157L951.415 658.153C958.981 653.24 968.635 652.882 976.544 657.221L1298.13 833.663C1302.79 836.221 1306.49 840.228 1308.68 845.077L1479.04 1223.14C1481.76 1229.15 1481.93 1236.01 1479.51 1242.16L1370 1520.98Z" stroke="url(#paint14_linear_341_6925)" stroke-opacity="0.5"/>
<path opacity="0.231884" d="M1410.26 1501.99C1406.94 1511.88 1397.71 1518.59 1387.27 1518.69L1090.09 1521.56C1083.48 1521.63 1077.12 1519.02 1072.46 1514.32L783.466 1223.08C779.706 1219.29 777.286 1214.37 776.575 1209.08L728.199 849.085C727 840.159 730.794 831.295 738.08 826.001L952.086 670.517C959.372 665.223 968.975 664.353 977.094 668.252L1304.52 825.506C1309.33 827.817 1313.26 831.636 1315.7 836.383L1503.39 1201.23C1506.41 1207.11 1506.93 1213.97 1504.83 1220.24L1410.26 1501.99Z" stroke="url(#paint15_linear_341_6925)" stroke-opacity="0.5"/>
<path opacity="0.246377" d="M1449.27 1482.24C1446.46 1492.26 1437.63 1499.41 1427.25 1500.07L1133.01 1518.93C1126.4 1519.36 1119.9 1517.09 1114.99 1512.64L814.223 1240.05C810.253 1236.45 807.571 1231.65 806.59 1226.38L740.72 872.805C739.073 863.966 742.4 854.936 749.387 849.278L953.633 683.883C960.62 678.225 970.145 676.848 978.448 680.297L1310.6 818.24C1315.55 820.295 1319.69 823.916 1322.38 828.547L1526.48 1179.42C1529.81 1185.15 1530.68 1191.98 1528.89 1198.36L1449.27 1482.24Z" stroke="url(#paint16_linear_341_6925)" stroke-opacity="0.5"/>
<path opacity="0.26087" d="M1487.01 1461.82C1484.71 1471.93 1476.3 1479.5 1466.01 1480.73L1175.57 1515.27C1168.98 1516.06 1162.36 1514.13 1157.21 1509.94L845.818 1256.44C841.647 1253.04 838.709 1248.37 837.458 1243.13L754.629 896.814C752.541 888.085 755.393 878.913 762.063 872.908L956.102 698.195C962.771 692.189 972.191 690.311 980.654 693.3L1316.42 811.875C1321.49 813.667 1325.83 817.077 1328.77 821.58L1548.34 1157.77C1551.97 1163.32 1553.19 1170.11 1551.72 1176.59L1487.01 1461.82Z" stroke="url(#paint17_linear_341_6925)" stroke-opacity="0.5"/>
<path opacity="0.275362" d="M1523.45 1440.8C1521.67 1450.98 1513.7 1458.95 1503.52 1460.73L1217.71 1510.61C1211.17 1511.75 1204.43 1510.18 1199.06 1506.26L878.209 1272.2C873.847 1269.01 870.658 1264.48 869.138 1259.3L769.925 921.031C767.403 912.434 769.775 903.146 776.11 896.811L959.531 713.391C965.866 707.056 975.153 704.684 983.75 707.205L1322.02 806.419C1327.2 807.938 1331.73 811.127 1334.91 815.489L1568.98 1136.34C1572.9 1141.71 1574.47 1148.45 1573.33 1154.99L1523.45 1440.8Z" stroke="url(#paint18_linear_341_6925)" stroke-opacity="0.5"/>
<path opacity="0.289855" d="M1558.57 1419.27C1557.31 1429.48 1549.8 1437.82 1539.77 1440.14L1259.39 1504.97C1252.9 1506.47 1246.08 1505.26 1240.5 1501.63L911.36 1287.29C906.818 1284.33 903.385 1279.95 901.598 1274.83L786.611 945.375C783.664 936.931 785.551 927.553 791.535 920.907L963.962 729.408C969.946 722.762 979.075 719.905 987.781 721.953L1327.45 801.873C1332.73 803.114 1337.44 806.071 1340.86 810.279L1588.43 1115.21C1592.63 1120.38 1594.54 1127.04 1593.73 1133.65L1558.57 1419.27Z" stroke="url(#paint19_linear_341_6925)" stroke-opacity="0.5"/>
<path opacity="0.304348" d="M1592.35 1397.29C1591.61 1407.52 1584.58 1416.21 1574.73 1419.06L1300.55 1498.4C1294.14 1500.25 1287.25 1499.41 1281.48 1496.07L945.228 1301.68C940.517 1298.95 936.846 1294.74 934.796 1289.7L804.679 969.767C801.316 961.498 802.716 952.055 808.334 945.118L969.428 746.184C975.045 739.247 983.991 735.914 992.778 737.484L1332.77 798.24C1338.13 799.198 1343.01 801.912 1346.66 805.954L1606.71 1094.44C1611.18 1099.39 1613.43 1105.96 1612.95 1112.61L1592.35 1397.29Z" stroke="url(#paint20_linear_341_6925)" stroke-opacity="0.5"/>
<path opacity="0.318841" d="M1624.8 1374.96C1624.57 1385.17 1618.03 1394.17 1608.38 1397.55L1341.15 1490.93C1334.84 1493.13 1327.91 1492.66 1321.95 1489.63L979.769 1315.33C974.9 1312.85 971 1308.81 968.688 1303.86L824.118 994.129C820.35 986.055 821.261 976.573 826.498 969.365L975.957 763.652C981.194 756.445 989.931 752.648 998.773 753.737L1338.02 795.519C1343.44 796.187 1348.49 798.649 1352.35 802.513L1623.86 1074.09C1628.58 1078.81 1631.17 1085.26 1631.03 1091.95L1624.8 1374.96Z" stroke="url(#paint21_linear_341_6925)" stroke-opacity="0.5"/>
<path opacity="0.333333" d="M1655.89 1352.34C1656.18 1362.51 1650.14 1371.81 1640.73 1375.68L1381.15 1482.59C1374.96 1485.14 1368 1485.05 1361.88 1482.33L1014.94 1328.21C1009.92 1325.98 1005.8 1322.14 1003.23 1317.29L844.912 1018.38C840.75 1010.53 841.173 1001.03 846.015 993.573L983.576 781.749C988.418 774.291 996.922 770.043 1005.79 770.649L1343.25 793.706C1348.73 794.08 1353.92 796.28 1357.99 799.955L1639.9 1054.22C1644.87 1058.7 1647.79 1065.03 1647.98 1071.72L1655.89 1352.34Z" stroke="url(#paint22_linear_341_6925)" stroke-opacity="0.5"/>
<path opacity="0.347826" d="M1685.64 1329.52C1686.43 1339.63 1680.91 1349.18 1671.76 1353.55L1420.52 1473.45C1414.46 1476.34 1407.49 1476.62 1401.22 1474.22L1050.69 1340.3C1045.54 1338.33 1041.2 1334.69 1038.38 1329.95L867.045 1042.46C862.502 1034.83 862.436 1025.35 866.873 1017.66L992.307 800.406C996.744 792.72 1004.99 788.035 1013.86 788.158L1348.51 792.794C1354.02 792.87 1359.34 794.802 1363.62 798.276L1654.87 1034.89C1660.08 1039.12 1663.32 1045.3 1663.85 1051.98L1685.64 1329.52Z" stroke="url(#paint23_linear_341_6925)" stroke-opacity="0.5"/>
<path opacity="0.362319" d="M1714.03 1306.57C1715.33 1316.59 1710.34 1326.37 1701.48 1331.21L1459.21 1463.52C1453.31 1466.74 1446.34 1467.4 1439.95 1465.34L1086.97 1351.55C1081.7 1349.86 1077.16 1346.43 1074.1 1341.82L890.492 1066.27C885.581 1058.9 885.03 1049.46 889.05 1041.56L1002.17 819.556C1006.19 811.665 1014.16 806.558 1023.01 806.199L1353.85 792.775C1359.38 792.55 1364.82 794.204 1369.29 797.467L1668.82 1016.15C1674.25 1020.12 1677.81 1026.13 1678.67 1032.8L1714.03 1306.57Z" stroke="url(#paint24_linear_341_6925)" stroke-opacity="0.5"/>
<path opacity="0.376812" d="M1741.09 1283.58C1742.88 1293.48 1738.43 1303.46 1729.88 1308.76L1497.18 1452.87C1491.46 1456.41 1484.53 1457.45 1478.02 1455.72L1123.73 1361.97C1118.36 1360.54 1113.63 1357.34 1110.32 1352.87L915.224 1089.76C909.96 1082.66 908.927 1073.28 912.522 1065.2L1013.18 839.132C1016.77 831.058 1024.43 825.546 1033.23 824.708L1359.31 793.637C1364.84 793.11 1370.39 794.479 1375.04 797.52L1681.78 998.067C1687.41 1001.75 1691.29 1007.6 1692.48 1014.22L1741.09 1283.58Z" stroke="url(#paint25_linear_341_6925)" stroke-opacity="0.5"/>
<path opacity="0.391304" d="M1766.82 1260.61C1769.09 1270.37 1765.2 1280.52 1756.98 1286.26L1534.42 1441.53C1528.89 1445.39 1522.01 1446.79 1515.4 1445.42L1160.93 1371.51C1155.47 1370.37 1150.56 1367.4 1147.01 1363.09L941.21 1112.85C935.608 1106.04 934.099 1096.74 937.26 1088.51L1025.33 859.065C1028.5 850.832 1035.84 844.932 1044.56 843.619L1364.94 795.365C1370.46 794.534 1376.1 795.612 1380.92 798.422L1693.8 980.681C1699.63 984.078 1703.8 989.728 1705.33 996.299L1766.82 1260.61Z" stroke="url(#paint26_linear_341_6925)" stroke-opacity="0.5"/>
<path opacity="0.405797" d="M1791.24 1237.74C1793.99 1247.33 1790.64 1257.63 1782.78 1263.78L1570.89 1429.55C1565.56 1433.71 1558.75 1435.49 1552.07 1434.47L1198.51 1380.16C1192.97 1379.31 1187.89 1376.59 1184.11 1372.44L968.416 1135.47C962.492 1128.97 960.513 1119.78 963.233 1111.41L1038.65 879.289C1041.37 870.919 1048.37 864.651 1056.99 862.868L1370.78 797.945C1376.27 796.809 1381.98 797.59 1386.97 800.159L1704.92 964.042C1710.93 967.139 1715.39 972.582 1717.25 979.081L1791.24 1237.74Z" stroke="url(#paint27_linear_341_6925)" stroke-opacity="0.5"/>
<path opacity="0.42029" d="M1814.37 1215.05C1817.58 1224.45 1814.79 1234.86 1807.31 1241.4L1606.56 1416.98C1601.46 1421.44 1594.74 1423.59 1588 1422.92L1236.42 1387.92C1230.82 1387.36 1225.58 1384.89 1221.58 1380.92L996.803 1157.57C990.574 1151.38 988.133 1142.33 990.406 1133.85L1053.14 899.736C1055.41 891.254 1062.05 884.637 1070.54 882.391L1376.88 801.357C1382.32 799.916 1388.1 800.396 1393.23 802.715L1715.2 948.194C1721.38 950.983 1726.12 956.203 1728.31 962.614L1814.37 1215.05Z" stroke="url(#paint28_linear_341_6925)" stroke-opacity="0.5"/>
<path opacity="0.434783" d="M1836.24 1192.6C1839.89 1201.79 1837.66 1212.28 1830.58 1219.18L1641.41 1403.87C1636.56 1408.61 1629.95 1411.12 1623.17 1410.81L1274.61 1394.76C1268.96 1394.5 1263.57 1392.29 1259.36 1388.51L1026.33 1179.07C1019.81 1173.22 1016.92 1164.33 1018.74 1155.76L1068.78 920.338C1070.6 911.768 1076.86 904.824 1085.19 902.124L1383.27 805.58C1388.65 803.837 1394.47 804.01 1399.74 806.071L1724.69 933.177C1731.02 935.65 1736.03 940.633 1738.54 946.94L1836.24 1192.6Z" stroke="url(#paint29_linear_341_6925)" stroke-opacity="0.5"/>
<path opacity="0.449275" d="M1856.86 1170.46C1860.95 1179.42 1859.28 1189.95 1852.63 1197.21L1675.43 1390.27C1670.83 1395.28 1664.36 1398.15 1657.56 1398.2L1313.03 1400.68C1307.35 1400.72 1301.82 1398.78 1297.41 1395.2L1056.95 1199.92C1050.16 1194.41 1046.83 1185.71 1048.19 1177.07L1085.58 941.031C1086.95 932.398 1092.81 925.147 1100.97 922.004L1390 810.594C1395.31 808.549 1401.16 808.413 1406.55 810.209L1733.45 919.032C1739.9 921.18 1745.17 925.913 1748 932.099L1856.86 1170.46Z" stroke="url(#paint30_linear_341_6925)" stroke-opacity="0.5"/>
<path opacity="0.463768" d="M1876.28 1148.71C1880.79 1157.41 1879.68 1167.96 1873.46 1175.53L1708.59 1376.22C1704.27 1381.49 1697.95 1384.71 1691.14 1385.13L1351.62 1405.67C1345.92 1406.02 1340.27 1404.36 1335.67 1400.98L1088.61 1220.07C1081.58 1214.92 1077.81 1206.41 1078.72 1197.74L1103.53 961.75C1104.44 953.078 1109.89 945.543 1117.84 941.967L1397.11 816.372C1402.32 814.029 1408.19 813.58 1413.69 815.103L1741.52 905.79C1748.09 907.607 1753.61 912.077 1756.74 918.127L1876.28 1148.71Z" stroke="url(#paint31_linear_341_6925)" stroke-opacity="0.5"/>
<path opacity="0.478261" d="M1894.53 1127.39C1899.44 1135.82 1898.89 1146.36 1893.12 1154.23L1740.89 1361.79C1736.85 1367.3 1730.7 1370.87 1723.91 1371.64L1390.33 1409.73C1384.63 1410.38 1378.88 1409.01 1374.08 1405.86L1121.27 1239.46C1114 1234.67 1109.82 1226.4 1110.27 1217.71L1122.6 982.43C1123.06 973.743 1128.09 965.949 1135.81 961.952L1404.63 822.888C1409.73 820.25 1415.59 819.487 1421.2 820.731L1748.97 893.484C1755.64 894.963 1761.39 899.158 1764.83 905.056L1894.53 1127.39Z" stroke="url(#paint32_linear_341_6925)" stroke-opacity="0.5"/>
<path opacity="0.492754" d="M1911.64 1106.58C1916.95 1114.72 1916.95 1125.21 1911.64 1133.35L1772.31 1347.01C1768.57 1352.75 1762.61 1356.65 1755.86 1357.79L1429.11 1412.87C1423.42 1413.82 1417.58 1412.75 1412.6 1409.82L1154.87 1258.03C1147.39 1253.63 1142.8 1245.6 1142.8 1236.92L1142.8 1003.01C1142.8 994.332 1147.39 986.302 1154.87 981.898L1412.6 830.114C1417.58 827.186 1423.42 826.107 1429.11 827.066L1755.86 882.14C1762.61 883.278 1768.57 887.185 1772.31 892.917L1911.64 1106.58Z" stroke="url(#paint33_linear_341_6925)" stroke-opacity="0.5"/>
<path opacity="0.507246" d="M1927.67 1086.34C1933.34 1094.16 1933.89 1104.58 1929.06 1112.96L1802.84 1331.95C1799.41 1337.89 1793.66 1342.13 1786.97 1343.63L1467.9 1415.07C1462.25 1416.34 1456.32 1415.56 1451.19 1412.87L1189.35 1275.76C1181.69 1271.74 1176.71 1263.98 1176.25 1255.34L1164.1 1023.43C1163.65 1014.78 1167.79 1006.54 1174.99 1001.75L1421.06 838.02C1425.89 834.808 1431.7 833.412 1437.46 834.081L1762.24 871.784C1769.05 872.575 1775.22 876.184 1779.24 881.734L1927.67 1086.34Z" stroke="url(#paint34_linear_341_6925)" stroke-opacity="0.5"/>
<path opacity="0.521739" d="M1942.65 1066.71C1948.67 1074.2 1949.76 1084.53 1945.42 1093.11L1832.48 1316.65C1829.38 1322.79 1823.85 1327.34 1817.23 1329.19L1506.67 1416.36C1501.05 1417.93 1495.07 1417.45 1489.77 1415.01L1224.66 1292.59C1216.83 1288.97 1211.47 1281.49 1210.57 1272.9L1186.47 1043.63C1185.57 1035.04 1189.25 1026.61 1196.17 1021.44L1430.03 846.574C1434.7 843.084 1440.46 841.372 1446.27 841.746L1768.17 862.435C1775.03 862.875 1781.39 866.176 1785.69 871.531L1942.65 1066.71Z" stroke="url(#paint35_linear_341_6925)" stroke-opacity="0.5"/>
<path opacity="0.536232" d="M1956.63 1047.75C1962.99 1054.9 1964.6 1065.09 1960.76 1073.86L1861.23 1301.16C1858.46 1307.47 1853.17 1312.33 1846.65 1314.54L1545.34 1416.73C1539.79 1418.61 1533.75 1418.44 1528.32 1416.25L1260.74 1308.48C1252.75 1305.26 1247.04 1298.09 1245.7 1289.58L1209.89 1063.55C1208.55 1055.04 1211.76 1046.45 1218.36 1040.93L1439.54 855.743C1444.04 851.981 1449.73 849.955 1455.59 850.03L1773.73 854.108C1780.61 854.196 1787.14 857.178 1791.72 862.324L1956.63 1047.75Z" stroke="url(#paint36_linear_341_6925)" stroke-opacity="0.5"/>
<path opacity="0.550725" d="M1969.66 1029.51C1976.33 1036.3 1978.46 1046.34 1975.13 1055.25L1889.08 1285.54C1886.66 1292 1881.63 1297.15 1875.22 1299.71L1583.88 1416.2C1578.41 1418.39 1572.34 1418.53 1566.77 1416.6L1297.52 1323.4C1289.41 1320.6 1283.35 1313.74 1281.57 1305.35L1234.34 1083.13C1232.55 1074.74 1235.29 1066.02 1241.56 1060.15L1449.63 865.494C1453.93 861.47 1459.54 859.13 1465.42 858.903L1778.96 846.82C1785.85 846.554 1792.54 849.209 1797.38 854.132L1969.66 1029.51Z" stroke="url(#paint37_linear_341_6925)" stroke-opacity="0.5"/>
<path opacity="0.565217" d="M1981.8 1012.03C1988.76 1018.45 1991.4 1028.3 1988.58 1037.34L1916.04 1269.83C1913.98 1276.43 1909.23 1281.85 1902.95 1284.76L1622.24 1414.78C1616.86 1417.27 1610.77 1417.73 1605.08 1416.07L1334.94 1337.33C1326.72 1334.93 1320.35 1328.42 1318.13 1320.15L1259.77 1102.34C1257.55 1094.07 1259.82 1085.24 1265.74 1079.06L1460.31 875.79C1464.41 871.512 1469.91 868.862 1475.81 868.331L1783.93 840.577C1790.82 839.957 1797.65 842.277 1802.74 846.965L1981.8 1012.03Z" stroke="url(#paint38_linear_341_6925)" stroke-opacity="0.5"/>
<path opacity="0.57971" d="M1993.09 995.365C2000.32 1001.4 2003.46 1011.04 2001.15 1020.17L1942.12 1254.07C1940.43 1260.79 1935.96 1266.48 1929.84 1269.73L1660.36 1412.5C1655.09 1415.29 1649 1416.06 1643.2 1414.68L1372.94 1350.23C1364.63 1348.25 1357.96 1342.09 1355.32 1333.97L1286.16 1121.11C1283.52 1112.99 1285.3 1104.08 1290.85 1097.6L1471.62 886.596C1475.49 882.073 1480.88 879.117 1486.78 878.279L1788.71 835.386C1795.58 834.411 1802.53 836.389 1807.85 840.83L1993.09 995.365Z" stroke="url(#paint39_linear_341_6925)" stroke-opacity="0.5"/>
<path opacity="0.594203" d="M2003.6 979.542C2011.08 985.179 2014.69 994.586 2012.9 1003.78L1967.33 1238.33C1966.01 1245.15 1961.85 1251.09 1955.89 1254.66L1698.2 1409.37C1693.06 1412.45 1686.98 1413.54 1681.09 1412.44L1411.45 1362.08C1403.08 1360.52 1396.12 1354.73 1393.07 1346.78L1313.46 1139.39C1310.41 1131.45 1311.7 1122.49 1316.88 1115.72L1483.56 897.873C1487.2 893.117 1492.46 889.858 1498.34 888.713L1793.36 831.249C1800.18 829.921 1807.24 831.551 1812.79 835.732L2003.6 979.542Z" stroke="url(#paint40_linear_341_6925)" stroke-opacity="0.5"/>
<path opacity="0.608696" d="M2013.39 964.598C2021.09 969.829 2025.16 978.977 2023.89 988.203L1991.67 1222.64C1990.73 1229.54 1986.89 1235.71 1981.12 1239.61L1735.72 1405.4C1730.72 1408.77 1724.67 1410.19 1718.7 1409.38L1450.4 1372.87C1441.99 1371.73 1434.77 1366.31 1431.32 1358.56L1341.65 1157.15C1338.2 1149.4 1339 1140.41 1343.78 1133.4L1496.17 909.583C1499.56 904.604 1504.67 901.049 1510.52 899.596L1797.93 828.164C1804.69 826.485 1811.84 827.76 1817.6 831.672L2013.39 964.598Z" stroke="url(#paint41_linear_341_6925)" stroke-opacity="0.5"/>
<path opacity="0.623188" d="M2022.5 950.565C2030.41 955.382 2034.93 964.246 2034.18 973.475L2015.17 1207.06C2014.6 1214.01 2011.1 1220.4 2005.53 1224.61L1772.86 1400.64C1768.03 1404.29 1762.02 1406.03 1755.98 1405.51L1489.73 1382.58C1481.3 1381.85 1473.84 1376.83 1470 1369.29L1370.67 1174.34C1366.83 1166.8 1367.15 1157.81 1371.51 1150.57L1509.46 921.687C1512.59 916.498 1517.53 912.652 1523.33 910.891L1802.5 826.126C1809.17 824.098 1816.4 825.015 1822.36 828.646L2022.5 950.565Z" stroke="url(#paint42_linear_341_6925)" stroke-opacity="0.5"/>
<path opacity="0.637681" d="M2031.01 937.471C2039.1 941.867 2044.04 950.425 2043.8 959.627L2037.83 1191.62C2037.65 1198.61 2034.49 1205.19 2029.15 1209.7L1809.6 1395.09C1804.95 1399.03 1798.99 1401.08 1792.9 1400.86L1529.37 1391.19C1520.94 1390.88 1513.27 1386.26 1509.05 1378.96L1400.48 1190.92C1396.27 1183.61 1396.1 1174.66 1400.05 1167.2L1523.44 934.147C1526.3 928.76 1531.05 924.63 1536.79 922.563L1807.11 825.127C1813.69 822.755 1820.97 823.309 1827.12 826.649L2031.01 937.471Z" stroke="url(#paint43_linear_341_6925)" stroke-opacity="0.5"/>
<path opacity="0.652174" d="M2038.98 925.337C2047.22 929.306 2052.57 937.538 2052.84 946.683L2059.68 1176.36C2059.89 1183.37 2057.08 1190.13 2051.98 1194.94L1845.89 1388.8C1841.42 1393 1835.54 1395.38 1829.41 1395.45L1569.25 1398.71C1560.85 1398.81 1552.98 1394.6 1548.4 1387.55L1431.05 1206.85C1426.47 1199.8 1425.83 1190.9 1429.34 1183.26L1538.13 946.92C1540.7 941.349 1545.26 936.943 1550.91 934.571L1811.84 825.153C1818.3 822.441 1825.62 822.63 1831.94 825.671L2038.98 925.337Z" stroke="url(#paint44_linear_341_6925)" stroke-opacity="0.5"/>
<path opacity="0.666667" d="M2046.46 914.185C2054.84 917.721 2060.57 925.607 2061.35 934.668L2080.73 1161.34C2081.33 1168.35 2078.9 1175.27 2074.04 1180.35L1881.69 1381.79C1877.43 1386.25 1871.64 1388.94 1865.48 1389.32L1609.31 1405.12C1600.95 1405.64 1592.91 1401.85 1587.98 1395.07L1462.32 1222.11C1457.39 1215.33 1456.27 1206.51 1459.35 1198.71L1553.53 959.969C1555.8 954.228 1560.15 949.553 1565.71 946.879L1816.73 826.19C1823.06 823.145 1830.4 822.966 1836.87 825.7L2046.46 914.185Z" stroke="url(#paint45_linear_341_6925)" stroke-opacity="0.5"/>
<path opacity="0.681159" d="M2053.53 904.028C2062.02 907.129 2068.11 914.651 2069.38 923.597L2101.02 1146.59C2102.01 1153.57 2099.95 1160.63 2095.36 1165.98L1916.96 1374.1C1912.92 1378.81 1907.24 1381.82 1901.07 1382.5L1649.48 1410.44C1641.19 1411.36 1632.99 1408 1627.74 1401.51L1494.24 1236.65C1488.99 1230.16 1487.4 1221.45 1490.02 1213.52L1569.66 973.249C1571.62 967.354 1575.74 962.421 1581.19 959.448L1821.85 828.219C1828.03 824.846 1835.37 824.299 1841.99 826.717L2053.53 904.028Z" stroke="url(#paint46_linear_341_6925)" stroke-opacity="0.5"/>
<path opacity="0.695652" d="M2060.24 894.879C2068.82 897.543 2075.24 904.684 2077 913.489L2120.56 1132.15C2121.93 1139.08 2120.26 1146.26 2115.96 1151.86L1951.68 1365.75C1947.87 1370.71 1942.31 1374.02 1936.14 1375.02L1689.7 1414.67C1681.49 1415.99 1673.17 1413.06 1667.6 1406.87L1526.77 1250.46C1521.2 1244.28 1519.15 1235.7 1521.32 1227.67L1586.52 986.724C1588.15 980.689 1592.03 975.508 1597.36 972.239L1827.25 831.217C1833.27 827.525 1840.59 826.609 1847.33 828.705L2060.24 894.879Z" stroke="url(#paint47_linear_341_6925)" stroke-opacity="0.5"/>
<path opacity="0.710145" d="M2066.66 886.745C2075.3 888.972 2082.04 895.715 2084.27 904.351L2139.37 1118.05C2141.14 1124.91 2139.86 1132.19 2135.85 1138.03L1985.8 1356.79C1982.24 1361.98 1976.82 1365.6 1970.66 1366.9L1729.9 1417.81C1721.79 1419.53 1713.36 1417.03 1707.5 1411.17L1559.85 1263.51C1553.99 1257.65 1551.49 1249.22 1553.2 1241.12L1604.11 1000.35C1605.41 994.193 1609.03 988.773 1614.22 985.214L1832.99 835.159C1838.82 831.155 1846.11 829.872 1852.96 831.639L2066.66 886.745Z" stroke="url(#paint48_linear_341_6925)" stroke-opacity="0.5"/>
<path opacity="0.724638" d="M2072.85 879.631C2081.53 881.421 2088.56 887.754 2091.25 896.194L2157.5 1104.33C2159.65 1111.09 2158.77 1118.46 2155.07 1124.51L2019.3 1347.26C2016 1352.67 2010.74 1356.59 2004.61 1358.2L1770.01 1419.89C1762.02 1421.98 1753.52 1419.92 1747.38 1414.4L1593.43 1275.78C1587.29 1270.25 1584.35 1262.01 1585.61 1253.85L1622.43 1014.09C1623.39 1007.83 1626.74 1002.18 1631.78 998.334L1839.11 840.019C1844.75 835.712 1851.98 834.062 1858.93 835.496L2072.85 879.631Z" stroke="url(#paint49_linear_341_6925)" stroke-opacity="0.5"/>
<path opacity="0.73913" d="M2078.88 873.536C2087.57 874.891 2094.86 880.8 2098 889.02L2174.97 1091.02C2177.5 1097.67 2177.02 1105.09 2173.65 1111.35L2052.15 1337.19C2049.13 1342.8 2044.03 1347.02 2037.95 1348.94L1809.97 1420.9C1802.13 1423.38 1793.57 1421.76 1787.18 1416.58L1627.47 1287.25C1621.07 1282.07 1617.71 1274.03 1618.5 1265.85L1641.49 1027.9C1642.1 1021.55 1645.17 1015.69 1650.04 1011.56L1845.67 845.763C1851.1 841.164 1858.26 839.151 1865.29 840.246L2078.88 873.536Z" stroke="url(#paint50_linear_341_6925)" stroke-opacity="0.5"/>
<path opacity="0.753623" d="M2084.8 868.457C2093.48 869.38 2101.02 874.856 2104.58 882.83L2191.8 1078.15C2194.71 1084.66 2194.64 1092.12 2191.6 1098.57L2084.32 1326.62C2081.59 1332.43 2076.68 1336.94 2070.65 1339.17L1849.73 1420.89C1842.05 1423.73 1833.46 1422.55 1826.83 1417.73L1661.9 1297.9C1655.27 1293.09 1651.49 1285.28 1651.82 1277.1L1661.27 1041.74C1661.53 1035.32 1664.3 1029.26 1668.99 1024.86L1852.72 852.36C1857.92 847.479 1864.99 845.105 1872.08 845.859L2084.8 868.457Z" stroke="url(#paint51_linear_341_6925)" stroke-opacity="0.5"/>
<path opacity="0.768116" d="M2090.67 864.387C2099.33 864.882 2107.08 869.914 2111.05 877.62L2208.04 1065.75C2211.32 1072.11 2211.66 1079.58 2208.97 1086.2L2115.8 1315.6C2113.36 1321.59 2108.66 1326.38 2102.7 1328.92L1889.23 1419.87C1881.72 1423.07 1873.12 1422.32 1866.28 1417.88L1696.68 1307.74C1689.84 1303.3 1685.66 1295.74 1685.53 1287.59L1681.78 1055.57C1681.68 1049.1 1684.14 1042.85 1688.63 1038.19L1860.3 859.772C1865.26 854.621 1872.22 851.891 1879.35 852.299L2090.67 864.387Z" stroke="url(#paint52_linear_341_6925)" stroke-opacity="0.5"/>
<path opacity="0.782609" d="M2096.57 861.314C2105.17 861.387 2113.11 865.969 2117.47 873.383L2223.72 1053.85C2227.36 1060.03 2228.11 1067.48 2225.77 1074.26L2146.56 1304.17C2144.43 1310.33 2139.94 1315.39 2134.08 1318.24L1928.39 1417.87C1921.09 1421.41 1912.5 1421.09 1905.46 1417.03L1731.76 1316.74C1724.72 1312.68 1720.16 1305.4 1719.57 1297.3L1703.01 1069.36C1702.54 1062.86 1704.68 1056.44 1708.95 1051.52L1868.45 867.962C1873.15 862.552 1879.99 859.472 1887.15 859.533L2096.57 861.314Z" stroke="url(#paint53_linear_341_6925)" stroke-opacity="0.5"/>
<path opacity="0.797101" d="M2102.54 859.225C2111.07 858.883 2119.16 863.007 2123.9 870.11L2238.87 1042.46C2242.86 1048.44 2244.02 1055.87 2242.05 1062.78L2176.58 1292.37C2174.78 1298.68 2170.52 1304.01 2164.75 1307.16L1967.19 1414.91C1960.09 1418.78 1951.54 1418.9 1944.33 1415.23L1767.07 1324.91C1759.87 1321.24 1754.94 1314.25 1753.9 1306.24L1724.95 1083.07C1724.1 1076.55 1725.91 1069.97 1729.96 1064.8L1877.22 876.888C1881.65 871.232 1888.34 867.807 1895.52 867.52L2102.54 859.225Z" stroke="url(#paint54_linear_341_6925)" stroke-opacity="0.5"/>
<path opacity="0.811594" d="M2108.64 858.1C2117.08 857.351 2125.31 861.013 2130.39 867.784L2253.53 1031.62C2257.86 1037.38 2259.43 1044.75 2257.83 1051.77L2205.86 1280.24C2204.39 1286.7 2200.37 1292.28 2194.72 1295.73L2005.55 1411.04C1998.68 1415.23 1990.18 1415.77 1982.83 1412.5L1802.58 1332.25C1795.23 1328.97 1789.95 1322.3 1788.47 1314.39L1747.58 1096.65C1746.36 1090.14 1747.82 1083.42 1751.63 1078.01L1886.64 886.507C1890.79 880.619 1897.32 876.856 1904.5 876.219L2108.64 858.1Z" stroke="url(#paint55_linear_341_6925)" stroke-opacity="0.5"/>
<path opacity="0.826087" d="M2114.94 857.919C2123.26 856.772 2131.59 859.97 2137.01 866.391L2267.73 1021.33C2272.39 1026.85 2274.37 1034.14 2273.15 1041.26L2234.37 1267.84C2233.24 1274.42 2229.48 1280.25 2223.96 1283.99L2043.43 1406.28C2036.8 1410.77 2028.39 1411.74 2020.91 1408.87L1838.23 1338.74C1830.75 1335.87 1825.15 1329.53 1823.22 1321.75L1770.89 1110.08C1769.29 1103.6 1770.4 1096.75 1773.96 1091.11L1896.75 896.774C1900.61 890.668 1906.96 886.575 1914.12 885.59L2114.94 857.919Z" stroke="url(#paint56_linear_341_6925)" stroke-opacity="0.5"/>
<path opacity="0.84058" d="M2121.47 858.66C2129.66 857.125 2138.07 859.857 2143.79 865.911L2281.51 1011.62C2286.49 1016.88 2288.88 1024.07 2288.05 1031.27L2262.1 1255.21C2261.33 1261.89 2257.84 1267.96 2252.46 1271.99L2080.78 1400.68C2074.4 1405.46 2066.1 1406.84 2058.51 1404.38L1873.96 1344.42C1866.38 1341.95 1860.47 1335.95 1858.12 1328.34L1794.87 1123.31C1792.89 1116.89 1793.64 1109.93 1796.94 1104.07L1907.58 907.644C1911.13 901.335 1917.29 896.921 1924.41 895.587L2121.47 858.66Z" stroke="url(#paint57_linear_341_6925)" stroke-opacity="0.5"/>
<path opacity="0.855072" d="M2128.31 860.291C2136.34 858.38 2144.8 860.646 2150.8 866.318L2294.92 1002.49C2300.19 1007.48 2302.99 1014.55 2302.54 1021.8L2289.06 1242.39C2288.64 1249.16 2285.44 1255.45 2280.22 1259.77L2117.56 1394.28C2111.45 1399.34 2103.26 1401.12 2095.6 1399.07L1909.73 1349.26C1902.07 1347.21 1895.88 1341.58 1893.11 1334.14L1819.5 1136.32C1817.14 1129.97 1817.51 1122.92 1820.54 1116.85L1919.15 919.067C1922.39 912.569 1928.35 907.844 1935.41 906.164L2128.31 860.291Z" stroke="url(#paint58_linear_341_6925)" stroke-opacity="0.5"/>
<path opacity="0.869565" d="M2135.48 862.786C2143.35 860.511 2151.83 862.313 2158.09 867.59L2307.98 993.972C2313.54 998.664 2316.73 1005.59 2316.69 1012.87L2315.23 1229.42C2315.18 1236.26 2312.28 1242.77 2307.22 1247.37L2153.72 1387.13C2147.89 1392.44 2139.85 1394.61 2132.14 1392.97L1945.5 1353.3C1937.78 1351.66 1931.33 1346.41 1928.16 1339.18L1844.77 1149.08C1842.02 1142.81 1842.02 1135.69 1844.75 1129.42L1931.51 930.995C1934.42 924.325 1940.15 919.298 1947.15 917.275L2135.48 862.786Z" stroke="url(#paint59_linear_341_6925)" stroke-opacity="0.5"/>
<path opacity="0.884058" d="M2143.05 866.11C2150.73 863.484 2159.2 864.826 2165.69 869.695L2320.74 986.061C2326.57 990.442 2330.15 997.198 2330.5 1004.49L2340.61 1216.36C2340.94 1223.25 2338.35 1229.96 2333.48 1234.85L2189.23 1379.26C2183.69 1384.81 2175.82 1387.37 2168.07 1386.14L1981.2 1356.54C1973.45 1355.32 1966.76 1350.45 1963.2 1343.46L1870.64 1161.54C1867.51 1155.39 1867.12 1148.21 1869.56 1141.76L1944.66 943.376C1947.24 936.55 1952.73 931.232 1959.64 928.869L2143.05 866.11Z" stroke="url(#paint60_linear_341_6925)" stroke-opacity="0.5"/>
<path opacity="0.898551" d="M2151.06 870.228C2158.53 867.265 2166.97 868.153 2173.66 872.604L2333.23 978.769C2339.32 982.822 2343.28 989.387 2344.03 996.667L2365.21 1203.25C2365.92 1210.18 2363.65 1217.08 2358.97 1222.23L2224.05 1370.72C2218.81 1376.5 2211.12 1379.43 2203.36 1378.61L2016.81 1359.01C2009.04 1358.19 2002.14 1353.73 1998.2 1346.99L1897.11 1173.68C1893.6 1167.67 1892.82 1160.45 1894.95 1153.83L1958.62 956.159C1960.87 949.194 1966.11 943.596 1972.91 940.898L2151.06 870.228Z" stroke="url(#paint61_linear_341_6925)" stroke-opacity="0.5"/>
<path opacity="0.913043" d="M2159.54 875.102C2166.79 871.817 2175.18 872.257 2182.05 876.281L2345.49 972.099C2351.82 975.81 2356.15 982.163 2357.3 989.41L2389.03 1190.14C2390.12 1197.07 2388.19 1204.15 2383.72 1209.56L2258.15 1361.58C2253.21 1367.56 2245.73 1370.85 2237.98 1370.44L2052.26 1360.71C2044.51 1360.3 2037.42 1356.25 2033.13 1349.78L1924.14 1185.48C1920.26 1179.63 1919.07 1172.39 1920.89 1165.6L1973.42 969.292C1975.32 962.204 1980.29 956.339 1986.98 953.31L2159.54 875.102Z" stroke="url(#paint62_linear_341_6925)" stroke-opacity="0.5"/>
<path opacity="0.927536" d="M2168.55 880.693C2175.56 877.102 2183.87 877.102 2190.88 880.693L2357.57 966.056C2364.12 969.409 2368.81 975.528 2370.35 982.721L2412.06 1177.06C2413.55 1183.99 2411.96 1191.23 2407.71 1196.9L2291.5 1351.87C2286.87 1358.04 2279.61 1361.67 2271.9 1361.67L2087.53 1361.67C2079.81 1361.67 2072.55 1358.04 2067.93 1351.87L1951.72 1196.9C1947.46 1191.23 1945.87 1183.99 1947.36 1177.06L1989.07 982.721C1990.62 975.528 1995.31 969.409 2001.86 966.056L2168.55 880.693Z" stroke="url(#paint63_linear_341_6925)" stroke-opacity="0.5"/>
<path opacity="0.942029" d="M2178.1 886.958C2184.86 883.077 2193.07 882.647 2200.2 885.8L2369.49 960.638C2376.24 963.621 2381.28 969.485 2383.22 976.602L2434.33 1164.07C2436.21 1170.97 2434.98 1178.36 2430.96 1184.28L2324.07 1341.65C2319.76 1347.99 2312.74 1351.95 2305.09 1352.35L2122.56 1361.91C2114.91 1362.31 2107.51 1359.11 2102.56 1353.26L1979.81 1207.92C1975.19 1202.45 1973.19 1195.24 1974.34 1188.17L2005.58 996.393C2006.76 989.113 2011.17 982.754 2017.56 979.082L2178.1 886.958Z" stroke="url(#paint64_linear_341_6925)" stroke-opacity="0.5"/>
<path opacity="0.956522" d="M2188.25 893.853C2194.75 889.7 2202.83 888.851 2210.05 891.562L2381.3 955.846C2388.22 958.445 2393.6 964.034 2395.94 971.052L2455.84 1151.2C2458.12 1158.06 2457.26 1165.58 2453.48 1171.74L2355.84 1330.97C2351.86 1337.46 2345.09 1341.73 2337.52 1342.53L2157.33 1361.47C2149.75 1362.26 2142.24 1359.49 2137 1353.97L2008.39 1218.52C2003.41 1213.28 2001 1206.1 2001.81 1198.92L2022.95 1010.25C2023.77 1002.9 2027.87 996.319 2034.1 992.337L2188.25 893.853Z" stroke="url(#paint65_linear_341_6925)" stroke-opacity="0.5"/>
<path opacity="0.971014" d="M2199.01 901.334C2205.24 896.925 2213.16 895.67 2220.45 897.938L2393.03 951.672C2400.11 953.877 2405.81 959.171 2408.54 966.069L2476.6 1138.5C2479.28 1145.29 2478.8 1152.93 2475.27 1159.32L2386.8 1319.89C2383.15 1326.51 2376.64 1331.08 2369.17 1332.26L2191.78 1360.36C2184.31 1361.54 2176.72 1359.21 2171.2 1354.04L2037.43 1228.67C2032.11 1223.68 2029.28 1216.57 2029.73 1209.28L2041.18 1024.25C2041.64 1016.85 2045.43 1010.05 2051.48 1005.77L2199.01 901.334Z" stroke="url(#paint66_linear_341_6925)" stroke-opacity="0.5"/>
<path opacity="0.985507" d="M2210.42 909.353C2216.36 904.707 2224.12 903.06 2231.44 904.886L2404.72 948.114C2411.93 949.914 2417.94 954.894 2421.05 961.65L2496.64 1126.02C2499.72 1132.72 2499.62 1140.45 2496.36 1147.07L2416.92 1308.47C2413.6 1315.2 2407.37 1320.05 2400.03 1321.61L2225.9 1358.62C2218.55 1360.18 2210.9 1358.29 2205.13 1353.48L2066.91 1238.36C2061.24 1233.63 2058 1226.61 2058.09 1219.23L2060.29 1038.33C2060.38 1030.9 2063.84 1023.9 2069.7 1019.32L2210.42 909.353Z" stroke="url(#paint67_linear_341_6925)" stroke-opacity="0.5"/>
<path d="M2222.5 917.861C2228.15 912.998 2235.71 910.973 2243.04 912.359L2416.4 945.162C2423.73 946.548 2430.02 951.194 2433.51 957.786L2515.95 1113.78C2519.44 1120.37 2519.73 1128.19 2516.75 1135.03L2446.19 1296.75C2443.21 1303.58 2437.28 1308.69 2430.08 1310.62L2259.65 1356.28C2252.44 1358.21 2244.76 1356.76 2238.76 1352.33L2096.79 1247.56C2090.79 1243.13 2087.14 1236.21 2086.86 1228.76L2080.26 1052.44C2079.98 1044.99 2083.11 1037.82 2088.76 1032.95L2222.5 917.861Z" stroke="url(#paint68_linear_341_6925)" stroke-opacity="0.5"/>
</g>
<defs>
<linearGradient id="paint0_linear_341_6925" x1="685.745" y1="1678.67" x2="873.348" y2="494.188" gradientUnits="userSpaceOnUse">
<stop stop-color="#EDB936"/>
<stop offset="1" stop-color="#F78F94"/>
</linearGradient>
<linearGradient id="paint1_linear_341_6925" x1="738.555" y1="1677.91" x2="862.804" y2="495.763" gradientUnits="userSpaceOnUse">
<stop stop-color="#EDB936"/>
<stop offset="1" stop-color="#F78F94"/>
</linearGradient>
<linearGradient id="paint2_linear_341_6925" x1="791" y1="1675.54" x2="852.656" y2="499.077" gradientUnits="userSpaceOnUse">
<stop stop-color="#EDB936"/>
<stop offset="1" stop-color="#F78F94"/>
</linearGradient>
<linearGradient id="paint3_linear_341_6925" x1="842.993" y1="1671.58" x2="842.993" y2="504.092" gradientUnits="userSpaceOnUse">
<stop stop-color="#EDB936"/>
<stop offset="1" stop-color="#F78F94"/>
</linearGradient>
<linearGradient id="paint4_linear_341_6925" x1="894.45" y1="1666.08" x2="833.903" y2="510.765" gradientUnits="userSpaceOnUse">
<stop stop-color="#EDB936"/>
<stop offset="1" stop-color="#F78F94"/>
</linearGradient>
<linearGradient id="paint5_linear_341_6925" x1="945.295" y1="1659.09" x2="825.472" y2="519.048" gradientUnits="userSpaceOnUse">
<stop stop-color="#EDB936"/>
<stop offset="1" stop-color="#F78F94"/>
</linearGradient>
<linearGradient id="paint6_linear_341_6925" x1="995.452" y1="1650.64" x2="817.784" y2="528.891" gradientUnits="userSpaceOnUse">
<stop stop-color="#EDB936"/>
<stop offset="1" stop-color="#F78F94"/>
</linearGradient>
<linearGradient id="paint7_linear_341_6925" x1="1044.85" y1="1640.8" x2="810.914" y2="540.235" gradientUnits="userSpaceOnUse">
<stop stop-color="#EDB936"/>
<stop offset="1" stop-color="#F78F94"/>
</linearGradient>
<linearGradient id="paint8_linear_341_6925" x1="1093.41" y1="1629.61" x2="804.937" y2="553.024" gradientUnits="userSpaceOnUse">
<stop stop-color="#EDB936"/>
<stop offset="1" stop-color="#F78F94"/>
</linearGradient>
<linearGradient id="paint9_linear_341_6925" x1="1141.07" y1="1617.14" x2="799.924" y2="567.193" gradientUnits="userSpaceOnUse">
<stop stop-color="#EDB936"/>
<stop offset="1" stop-color="#F78F94"/>
</linearGradient>
<linearGradient id="paint10_linear_341_6925" x1="1187.78" y1="1603.45" x2="795.942" y2="582.675" gradientUnits="userSpaceOnUse">
<stop stop-color="#EDB936"/>
<stop offset="1" stop-color="#F78F94"/>
</linearGradient>
<linearGradient id="paint11_linear_341_6925" x1="1233.47" y1="1588.6" x2="793.052" y2="599.401" gradientUnits="userSpaceOnUse">
<stop stop-color="#EDB936"/>
<stop offset="1" stop-color="#F78F94"/>
</linearGradient>
<linearGradient id="paint12_linear_341_6925" x1="1278.09" y1="1572.66" x2="791.313" y2="617.299" gradientUnits="userSpaceOnUse">
<stop stop-color="#EDB936"/>
<stop offset="1" stop-color="#F78F94"/>
</linearGradient>
<linearGradient id="paint13_linear_341_6925" x1="1321.6" y1="1555.7" x2="790.774" y2="636.292" gradientUnits="userSpaceOnUse">
<stop stop-color="#EDB936"/>
<stop offset="1" stop-color="#F78F94"/>
</linearGradient>
<linearGradient id="paint14_linear_341_6925" x1="1363.94" y1="1537.8" x2="791.488" y2="656.305" gradientUnits="userSpaceOnUse">
<stop stop-color="#EDB936"/>
<stop offset="1" stop-color="#F78F94"/>
</linearGradient>
<linearGradient id="paint15_linear_341_6925" x1="1405.07" y1="1519.02" x2="793.496" y2="677.256" gradientUnits="userSpaceOnUse">
<stop stop-color="#EDB936"/>
<stop offset="1" stop-color="#F78F94"/>
</linearGradient>
<linearGradient id="paint16_linear_341_6925" x1="1444.97" y1="1499.44" x2="796.836" y2="699.064" gradientUnits="userSpaceOnUse">
<stop stop-color="#EDB936"/>
<stop offset="1" stop-color="#F78F94"/>
</linearGradient>
<linearGradient id="paint17_linear_341_6925" x1="1483.59" y1="1479.14" x2="801.544" y2="721.649" gradientUnits="userSpaceOnUse">
<stop stop-color="#EDB936"/>
<stop offset="1" stop-color="#F78F94"/>
</linearGradient>
<linearGradient id="paint18_linear_341_6925" x1="1520.92" y1="1458.2" x2="807.645" y2="744.925" gradientUnits="userSpaceOnUse">
<stop stop-color="#EDB936"/>
<stop offset="1" stop-color="#F78F94"/>
</linearGradient>
<linearGradient id="paint19_linear_341_6925" x1="1556.92" y1="1436.69" x2="815.166" y2="768.808" gradientUnits="userSpaceOnUse">
<stop stop-color="#EDB936"/>
<stop offset="1" stop-color="#F78F94"/>
</linearGradient>
<linearGradient id="paint20_linear_341_6925" x1="1591.59" y1="1414.7" x2="824.124" y2="793.212" gradientUnits="userSpaceOnUse">
<stop stop-color="#EDB936"/>
<stop offset="1" stop-color="#F78F94"/>
</linearGradient>
<linearGradient id="paint21_linear_341_6925" x1="1624.92" y1="1392.3" x2="834.533" y2="818.053" gradientUnits="userSpaceOnUse">
<stop stop-color="#EDB936"/>
<stop offset="1" stop-color="#F78F94"/>
</linearGradient>
<linearGradient id="paint22_linear_341_6925" x1="1656.88" y1="1369.57" x2="846.401" y2="843.245" gradientUnits="userSpaceOnUse">
<stop stop-color="#EDB936"/>
<stop offset="1" stop-color="#F78F94"/>
</linearGradient>
<linearGradient id="paint23_linear_341_6925" x1="1687.48" y1="1346.6" x2="859.734" y2="868.703" gradientUnits="userSpaceOnUse">
<stop stop-color="#EDB936"/>
<stop offset="1" stop-color="#F78F94"/>
</linearGradient>
<linearGradient id="paint24_linear_341_6925" x1="1716.72" y1="1323.46" x2="874.53" y2="894.343" gradientUnits="userSpaceOnUse">
<stop stop-color="#EDB936"/>
<stop offset="1" stop-color="#F78F94"/>
</linearGradient>
<linearGradient id="paint25_linear_341_6925" x1="1744.61" y1="1300.23" x2="890.781" y2="920.081" gradientUnits="userSpaceOnUse">
<stop stop-color="#EDB936"/>
<stop offset="1" stop-color="#F78F94"/>
</linearGradient>
<linearGradient id="paint26_linear_341_6925" x1="1771.15" y1="1276.98" x2="908.478" y2="945.834" gradientUnits="userSpaceOnUse">
<stop stop-color="#EDB936"/>
<stop offset="1" stop-color="#F78F94"/>
</linearGradient>
<linearGradient id="paint27_linear_341_6925" x1="1796.35" y1="1253.8" x2="927.605" y2="971.521" gradientUnits="userSpaceOnUse">
<stop stop-color="#EDB936"/>
<stop offset="1" stop-color="#F78F94"/>
</linearGradient>
<linearGradient id="paint28_linear_341_6925" x1="1820.25" y1="1230.74" x2="948.144" y2="997.064" gradientUnits="userSpaceOnUse">
<stop stop-color="#EDB936"/>
<stop offset="1" stop-color="#F78F94"/>
</linearGradient>
<linearGradient id="paint29_linear_341_6925" x1="1842.86" y1="1207.9" x2="970.069" y2="1022.38" gradientUnits="userSpaceOnUse">
<stop stop-color="#EDB936"/>
<stop offset="1" stop-color="#F78F94"/>
</linearGradient>
<linearGradient id="paint30_linear_341_6925" x1="1864.2" y1="1185.33" x2="993.355" y2="1047.41" gradientUnits="userSpaceOnUse">
<stop stop-color="#EDB936"/>
<stop offset="1" stop-color="#F78F94"/>
</linearGradient>
<linearGradient id="paint31_linear_341_6925" x1="1884.31" y1="1163.11" x2="1017.97" y2="1072.06" gradientUnits="userSpaceOnUse">
<stop stop-color="#EDB936"/>
<stop offset="1" stop-color="#F78F94"/>
</linearGradient>
<linearGradient id="paint32_linear_341_6925" x1="1903.22" y1="1141.3" x2="1043.87" y2="1096.27" gradientUnits="userSpaceOnUse">
<stop stop-color="#EDB936"/>
<stop offset="1" stop-color="#F78F94"/>
</linearGradient>
<linearGradient id="paint33_linear_341_6925" x1="1920.97" y1="1119.97" x2="1071.02" y2="1119.97" gradientUnits="userSpaceOnUse">
<stop stop-color="#EDB936"/>
<stop offset="1" stop-color="#F78F94"/>
</linearGradient>
<linearGradient id="paint34_linear_341_6925" x1="1937.59" y1="1099.16" x2="1099.38" y2="1143.09" gradientUnits="userSpaceOnUse">
<stop stop-color="#EDB936"/>
<stop offset="1" stop-color="#F78F94"/>
</linearGradient>
<linearGradient id="paint35_linear_341_6925" x1="1953.13" y1="1078.95" x2="1128.89" y2="1165.58" gradientUnits="userSpaceOnUse">
<stop stop-color="#EDB936"/>
<stop offset="1" stop-color="#F78F94"/>
</linearGradient>
<linearGradient id="paint36_linear_341_6925" x1="1967.65" y1="1059.38" x2="1159.52" y2="1187.38" gradientUnits="userSpaceOnUse">
<stop stop-color="#EDB936"/>
<stop offset="1" stop-color="#F78F94"/>
</linearGradient>
<linearGradient id="paint37_linear_341_6925" x1="1981.17" y1="1040.51" x2="1191.21" y2="1208.43" gradientUnits="userSpaceOnUse">
<stop stop-color="#EDB936"/>
<stop offset="1" stop-color="#F78F94"/>
</linearGradient>
<linearGradient id="paint38_linear_341_6925" x1="1993.77" y1="1022.39" x2="1223.9" y2="1228.67" gradientUnits="userSpaceOnUse">
<stop stop-color="#EDB936"/>
<stop offset="1" stop-color="#F78F94"/>
</linearGradient>
<linearGradient id="paint39_linear_341_6925" x1="2005.48" y1="1005.05" x2="1257.53" y2="1248.08" gradientUnits="userSpaceOnUse">
<stop stop-color="#EDB936"/>
<stop offset="1" stop-color="#F78F94"/>
</linearGradient>
<linearGradient id="paint40_linear_341_6925" x1="2016.37" y1="988.543" x2="1292.05" y2="1266.59" gradientUnits="userSpaceOnUse">
<stop stop-color="#EDB936"/>
<stop offset="1" stop-color="#F78F94"/>
</linearGradient>
<linearGradient id="paint41_linear_341_6925" x1="2026.5" y1="972.9" x2="1327.39" y2="1284.16" gradientUnits="userSpaceOnUse">
<stop stop-color="#EDB936"/>
<stop offset="1" stop-color="#F78F94"/>
</linearGradient>
<linearGradient id="paint42_linear_341_6925" x1="2035.92" y1="958.155" x2="1363.49" y2="1300.78" gradientUnits="userSpaceOnUse">
<stop stop-color="#EDB936"/>
<stop offset="1" stop-color="#F78F94"/>
</linearGradient>
<linearGradient id="paint43_linear_341_6925" x1="2044.7" y1="944.34" x2="1400.29" y2="1316.39" gradientUnits="userSpaceOnUse">
<stop stop-color="#EDB936"/>
<stop offset="1" stop-color="#F78F94"/>
</linearGradient>
<linearGradient id="paint44_linear_341_6925" x1="2052.89" y1="931.478" x2="1437.71" y2="1330.98" gradientUnits="userSpaceOnUse">
<stop stop-color="#EDB936"/>
<stop offset="1" stop-color="#F78F94"/>
</linearGradient>
<linearGradient id="paint45_linear_341_6925" x1="2060.56" y1="919.592" x2="1475.69" y2="1344.52" gradientUnits="userSpaceOnUse">
<stop stop-color="#EDB936"/>
<stop offset="1" stop-color="#F78F94"/>
</linearGradient>
<linearGradient id="paint46_linear_341_6925" x1="2067.77" y1="908.699" x2="1514.17" y2="1356.99" gradientUnits="userSpaceOnUse">
<stop stop-color="#EDB936"/>
<stop offset="1" stop-color="#F78F94"/>
</linearGradient>
<linearGradient id="paint47_linear_341_6925" x1="2074.59" y1="898.813" x2="1553.07" y2="1368.38" gradientUnits="userSpaceOnUse">
<stop stop-color="#EDB936"/>
<stop offset="1" stop-color="#F78F94"/>
</linearGradient>
<linearGradient id="paint48_linear_341_6925" x1="2081.07" y1="889.944" x2="1592.33" y2="1378.68" gradientUnits="userSpaceOnUse">
<stop stop-color="#EDB936"/>
<stop offset="1" stop-color="#F78F94"/>
</linearGradient>
<linearGradient id="paint49_linear_341_6925" x1="2087.28" y1="882.098" x2="1631.88" y2="1387.88" gradientUnits="userSpaceOnUse">
<stop stop-color="#EDB936"/>
<stop offset="1" stop-color="#F78F94"/>
</linearGradient>
<linearGradient id="paint50_linear_341_6925" x1="2093.3" y1="875.277" x2="1671.64" y2="1395.97" gradientUnits="userSpaceOnUse">
<stop stop-color="#EDB936"/>
<stop offset="1" stop-color="#F78F94"/>
</linearGradient>
<linearGradient id="paint51_linear_341_6925" x1="2099.16" y1="869.481" x2="1711.56" y2="1402.97" gradientUnits="userSpaceOnUse">
<stop stop-color="#EDB936"/>
<stop offset="1" stop-color="#F78F94"/>
</linearGradient>
<linearGradient id="paint52_linear_341_6925" x1="2104.95" y1="864.703" x2="1751.57" y2="1408.87" gradientUnits="userSpaceOnUse">
<stop stop-color="#EDB936"/>
<stop offset="1" stop-color="#F78F94"/>
</linearGradient>
<linearGradient id="paint53_linear_341_6925" x1="2110.72" y1="860.935" x2="1791.59" y2="1413.68" gradientUnits="userSpaceOnUse">
<stop stop-color="#EDB936"/>
<stop offset="1" stop-color="#F78F94"/>
</linearGradient>
<linearGradient id="paint54_linear_341_6925" x1="2116.53" y1="858.164" x2="1831.58" y2="1417.42" gradientUnits="userSpaceOnUse">
<stop stop-color="#EDB936"/>
<stop offset="1" stop-color="#F78F94"/>
</linearGradient>
<linearGradient id="paint55_linear_341_6925" x1="2122.44" y1="856.373" x2="1871.45" y2="1420.11" gradientUnits="userSpaceOnUse">
<stop stop-color="#EDB936"/>
<stop offset="1" stop-color="#F78F94"/>
</linearGradient>
<linearGradient id="paint56_linear_341_6925" x1="2128.51" y1="855.544" x2="1911.16" y2="1421.76" gradientUnits="userSpaceOnUse">
<stop stop-color="#EDB936"/>
<stop offset="1" stop-color="#F78F94"/>
</linearGradient>
<linearGradient id="paint57_linear_341_6925" x1="2134.79" y1="855.656" x2="1950.64" y2="1422.41" gradientUnits="userSpaceOnUse">
<stop stop-color="#EDB936"/>
<stop offset="1" stop-color="#F78F94"/>
</linearGradient>
<linearGradient id="paint58_linear_341_6925" x1="2141.33" y1="856.68" x2="1989.83" y2="1422.07" gradientUnits="userSpaceOnUse">
<stop stop-color="#EDB936"/>
<stop offset="1" stop-color="#F78F94"/>
</linearGradient>
<linearGradient id="paint59_linear_341_6925" x1="2148.19" y1="858.59" x2="2028.69" y2="1420.78" gradientUnits="userSpaceOnUse">
<stop stop-color="#EDB936"/>
<stop offset="1" stop-color="#F78F94"/>
</linearGradient>
<linearGradient id="paint60_linear_341_6925" x1="2155.41" y1="861.353" x2="2067.16" y2="1418.57" gradientUnits="userSpaceOnUse">
<stop stop-color="#EDB936"/>
<stop offset="1" stop-color="#F78F94"/>
</linearGradient>
<linearGradient id="paint61_linear_341_6925" x1="2163.04" y1="864.936" x2="2105.18" y2="1415.48" gradientUnits="userSpaceOnUse">
<stop stop-color="#EDB936"/>
<stop offset="1" stop-color="#F78F94"/>
</linearGradient>
<linearGradient id="paint62_linear_341_6925" x1="2171.13" y1="869.302" x2="2142.71" y2="1411.55" gradientUnits="userSpaceOnUse">
<stop stop-color="#EDB936"/>
<stop offset="1" stop-color="#F78F94"/>
</linearGradient>
<linearGradient id="paint63_linear_341_6925" x1="2179.71" y1="874.412" x2="2179.71" y2="1406.82" gradientUnits="userSpaceOnUse">
<stop stop-color="#EDB936"/>
<stop offset="1" stop-color="#F78F94"/>
</linearGradient>
<linearGradient id="paint64_linear_341_6925" x1="2188.83" y1="880.225" x2="2216.14" y2="1401.33" gradientUnits="userSpaceOnUse">
<stop stop-color="#EDB936"/>
<stop offset="1" stop-color="#F78F94"/>
</linearGradient>
<linearGradient id="paint65_linear_341_6925" x1="2198.52" y1="886.699" x2="2251.96" y2="1395.14" gradientUnits="userSpaceOnUse">
<stop stop-color="#EDB936"/>
<stop offset="1" stop-color="#F78F94"/>
</linearGradient>
<linearGradient id="paint66_linear_341_6925" x1="2208.8" y1="893.788" x2="2287.12" y2="1388.28" gradientUnits="userSpaceOnUse">
<stop stop-color="#EDB936"/>
<stop offset="1" stop-color="#F78F94"/>
</linearGradient>
<linearGradient id="paint67_linear_341_6925" x1="2219.72" y1="901.448" x2="2321.61" y2="1380.81" gradientUnits="userSpaceOnUse">
<stop stop-color="#EDB936"/>
<stop offset="1" stop-color="#F78F94"/>
</linearGradient>
<linearGradient id="paint68_linear_341_6925" x1="2231.3" y1="909.629" x2="2355.4" y2="1372.78" gradientUnits="userSpaceOnUse">
<stop stop-color="#EDB936"/>
<stop offset="1" stop-color="#F78F94"/>
</linearGradient>
</defs>
</svg>
