<svg width="122" height="122" viewBox="0 0 122 122" fill="none" xmlns="http://www.w3.org/2000/svg">
<g id="Group 1261154468">
<circle id="Ellipse 2" cx="61" cy="61" r="61" fill="url(#paint0_linear_94_343)"/>
<g id="Group 1261154471">
<circle id="Ellipse 18" cx="61" cy="61" r="34" fill="#F0B90B"/>
<g id="Clip path group">
<mask id="mask0_94_343"  style={{ maskType: 'luminance' }} maskUnits="userSpaceOnUse" x="41" y="41" width="40" height="40">
<g id="a">
<path id="Vector" d="M41 41H81V81H41V41Z" fill="white"/>
</g>
</mask>
<g mask="url(#mask0_94_343)">
<g id="Group">
<g id="Clip path group_2">
<mask id="mask1_94_343"  style={{ maskType: 'luminance' }} maskUnits="userSpaceOnUse" x="41" y="41" width="40" height="40">
<g id="b">
<path id="Vector_2" d="M41 41H81V81H41V41Z" fill="white"/>
</g>
</mask>
<g mask="url(#mask1_94_343)">
<g id="Group_2">
<g id="Group_3">
<path id="Vector_3" d="M74.7496 55.9979H67.6685V47.2496C67.6685 46.5581 67.108 45.9976 66.4164 45.9976H47.25C46.5585 45.9976 45.998 46.5581 45.998 47.2496V70.5832C45.998 73.5709 48.4287 76.0016 51.4164 76.0016H70.5829C73.5708 76.0016 76.0016 73.5708 76.0016 70.583V57.2498C76.0016 56.5584 75.4411 55.9979 74.7496 55.9979ZM48.502 70.5832V48.5016H65.1644V57.2468L65.1643 57.2498V70.583C65.1643 71.6555 65.4788 72.6553 66.0185 73.4976H51.4164C49.8094 73.4976 48.502 72.1901 48.502 70.5832ZM73.4976 70.583C73.4976 72.1901 72.1901 73.4976 70.5829 73.4976C68.9758 73.4976 67.6683 72.1901 67.6683 70.583V58.5018H73.4976V70.583Z" fill="white"/>
<path id="Vector_4" d="M61.4168 50.9976H52.25C51.5585 50.9976 50.998 51.5581 50.998 52.2496V58.0828C50.998 58.7743 51.5585 59.3348 52.25 59.3348H61.4168C62.1083 59.3348 62.6688 58.7743 62.6688 58.0828V52.2496C62.6688 51.5581 62.1083 50.9976 61.4168 50.9976ZM60.1647 56.8308H53.5021V53.5016H60.1647V56.8308ZM61.4168 61.8309H52.25C51.5585 61.8309 50.998 62.3915 50.998 63.0829C50.998 63.7744 51.5585 64.3349 52.25 64.3349H61.4168C62.1083 64.3349 62.6688 63.7744 62.6688 63.0829C62.6688 62.3915 62.1083 61.8309 61.4168 61.8309ZM61.4168 66.9353H52.25C51.5585 66.9353 50.998 67.4959 50.998 68.1873C50.998 68.8788 51.5585 69.4393 52.25 69.4393H61.4168C62.1083 69.4393 62.6688 68.8788 62.6688 68.1873C62.6688 67.4959 62.1083 66.9353 61.4168 66.9353Z" fill="white"/>
</g>
</g>
</g>
</g>
</g>
</g>
</g>
</g>
</g>
<defs>
<linearGradient id="paint0_linear_94_343" x1="0" y1="0" x2="89.8019" y2="142.317" gradientUnits="userSpaceOnUse">
<stop stop-color="white" stop-opacity="0.1"/>
<stop offset="1" stop-color="white" stop-opacity="0.05"/>
</linearGradient>
</defs>
</svg>
