<svg width="219" height="191" viewBox="0 0 219 191" fill="none" xmlns="http://www.w3.org/2000/svg">
<path d="M214.679 188H4.32058L109.5 5.01663L214.679 188Z" fill="#D9D9D9" stroke="#FE0000" stroke-width="5"/>
<path d="M98.368 107.078C98.5966 107.202 99.0128 107.225 99.1124 107.125C99.1652 107.072 99.2179 107.09 99.3351 107.184C99.4231 107.249 99.5168 107.29 99.5462 107.272C99.5755 107.261 99.6634 107.29 99.7454 107.343C99.8685 107.426 99.9271 107.432 100.044 107.373C100.25 107.278 100.367 107.29 100.455 107.408C100.519 107.497 100.548 107.503 100.648 107.438C100.718 107.402 100.783 107.367 100.801 107.367C100.824 107.367 100.818 107.402 100.795 107.438C100.771 107.479 100.812 107.461 100.883 107.402C101.006 107.29 101.017 107.29 101.176 107.385C101.387 107.508 101.533 107.514 101.533 107.396C101.533 107.272 101.621 107.284 101.721 107.432C101.762 107.503 101.926 107.603 102.078 107.662C102.324 107.756 102.354 107.756 102.354 107.674C102.354 107.626 102.307 107.532 102.248 107.467C102.149 107.349 102.149 107.349 102.336 107.455C102.524 107.567 102.53 107.567 102.612 107.455C102.694 107.343 102.705 107.343 102.881 107.438C102.987 107.497 103.116 107.544 103.174 107.544C103.233 107.544 103.297 107.567 103.321 107.597C103.368 107.679 103.708 107.839 103.761 107.809C103.79 107.792 103.819 107.839 103.831 107.909C103.843 107.998 103.884 108.039 103.954 108.039C104.03 108.033 104.054 108.075 104.054 108.204C104.054 108.358 104.065 108.375 104.142 108.311C104.212 108.252 104.229 108.257 104.229 108.358C104.229 108.511 104.335 108.588 104.564 108.594C104.745 108.6 104.757 108.588 104.757 108.387C104.757 108.175 104.757 108.175 104.874 108.281C104.968 108.37 104.986 108.434 104.956 108.57C104.921 108.753 104.921 108.753 105.038 108.647C105.202 108.499 105.349 108.541 105.425 108.759C105.46 108.859 105.566 109.012 105.666 109.095C105.83 109.237 105.836 109.254 105.771 109.431C105.701 109.614 105.707 109.62 105.841 109.59C105.97 109.567 105.988 109.585 105.988 109.738C105.988 109.868 105.941 109.933 105.783 110.027C105.572 110.151 105.513 110.257 105.654 110.257C105.771 110.257 106.047 110.398 106.047 110.457C106.047 110.487 106.088 110.475 106.134 110.434C106.187 110.393 106.24 110.375 106.263 110.398C106.328 110.463 106.105 110.658 105.918 110.693C105.777 110.723 105.748 110.752 105.771 110.841C105.789 110.912 105.765 110.971 105.712 110.988C105.589 111.035 105.666 111.124 105.871 111.165C106.029 111.195 106.047 111.212 105.988 111.313C105.894 111.501 105.918 111.549 106.134 111.59C106.246 111.608 106.357 111.649 106.375 111.678C106.392 111.708 106.457 111.731 106.527 111.731C106.627 111.731 106.639 111.755 106.603 111.861C106.457 112.286 106.627 112.693 107.025 112.882C107.148 112.941 107.289 113.023 107.336 113.064C107.723 113.412 107.77 113.442 107.998 113.442C108.174 113.442 108.268 113.477 108.368 113.589C108.467 113.696 108.561 113.737 108.719 113.737C108.848 113.737 108.989 113.778 109.053 113.837C109.141 113.92 109.276 113.943 109.681 113.943C109.98 113.949 110.232 113.979 110.279 114.014C110.331 114.061 110.431 114.067 110.589 114.032C110.718 114.002 110.917 113.973 111.035 113.973C111.152 113.973 111.281 113.931 111.322 113.884C111.38 113.813 111.416 113.808 111.474 113.861C111.533 113.908 111.58 113.908 111.632 113.867C111.685 113.819 111.738 113.855 111.844 114.008C111.996 114.232 112.588 114.61 113.11 114.828C113.291 114.899 113.45 114.975 113.473 114.999C113.491 115.017 113.573 115.034 113.643 115.034C113.719 115.034 113.795 115.058 113.813 115.093C113.831 115.123 113.913 115.152 113.995 115.152C114.094 115.152 114.153 115.2 114.194 115.3C114.229 115.388 114.294 115.447 114.37 115.447C114.434 115.447 114.487 115.477 114.487 115.512C114.487 115.542 114.552 115.671 114.634 115.789C114.716 115.907 114.78 116.061 114.78 116.126C114.78 116.22 114.88 116.297 115.22 116.45C115.906 116.763 116.087 117.04 115.607 117.04C115.366 117.04 115.149 117.164 115.214 117.264C115.272 117.364 115.636 117.352 115.841 117.24C116.075 117.122 116.117 117.169 115.952 117.376C115.841 117.517 115.835 117.541 115.923 117.559C115.976 117.571 116.04 117.647 116.07 117.724C116.111 117.824 116.169 117.865 116.275 117.865C116.357 117.865 116.421 117.901 116.421 117.948C116.421 117.989 116.527 118.095 116.656 118.184C116.785 118.267 116.89 118.361 116.89 118.396C116.89 118.485 116.644 118.632 116.492 118.632C116.322 118.632 116.269 118.774 116.38 118.945C116.427 119.016 116.662 119.275 116.896 119.517C117.131 119.759 117.476 120.142 117.664 120.372C117.846 120.596 118.162 120.98 118.356 121.216C118.549 121.452 118.737 121.711 118.766 121.794C118.801 121.888 118.86 121.935 118.907 121.917C118.959 121.894 118.977 121.917 118.959 121.994C118.924 122.13 119.147 122.289 119.364 122.289C119.487 122.289 119.528 122.319 119.528 122.407C119.528 122.484 119.581 122.537 119.686 122.56C119.979 122.625 120.302 122.808 120.378 122.95C120.413 123.026 120.477 123.079 120.513 123.073C120.554 123.062 120.583 123.091 120.583 123.138C120.583 123.327 120.788 123.587 120.935 123.587C121.122 123.587 121.228 123.687 121.228 123.864C121.228 123.97 121.263 123.999 121.368 123.999C121.445 123.999 121.521 124.041 121.544 124.088C121.562 124.135 121.626 124.176 121.685 124.176C121.744 124.176 121.925 124.271 122.084 124.383C122.242 124.495 122.412 124.589 122.464 124.589C122.599 124.589 122.992 124.76 123.115 124.867C123.215 124.961 123.414 125.002 123.871 125.026C124.035 125.038 124.205 125.091 124.293 125.161C124.422 125.262 124.516 125.279 124.92 125.268C125.184 125.256 125.413 125.232 125.43 125.214C125.454 125.197 125.677 125.179 125.929 125.179C126.192 125.179 126.386 125.156 126.386 125.12C126.386 125.085 126.532 125.061 126.708 125.061C126.954 125.061 127.019 125.043 126.995 124.979C126.972 124.925 127.036 124.89 127.206 124.861L127.453 124.819L127.353 124.672L127.253 124.519L127.435 124.56C127.664 124.607 127.851 124.513 127.81 124.353C127.787 124.259 127.81 124.235 127.939 124.235C128.056 124.235 128.174 124.165 128.332 123.994C128.455 123.864 128.578 123.769 128.607 123.787C128.672 123.828 129.234 122.849 129.287 122.602C129.305 122.495 129.352 122.395 129.381 122.378C129.41 122.354 129.434 122.295 129.434 122.242C129.434 122.189 129.504 122.077 129.592 121.982C129.768 121.799 129.733 121.682 129.551 121.847C129.352 122.024 129.34 121.888 129.516 121.546C129.639 121.31 129.75 121.186 129.914 121.104L130.143 120.986L130.014 120.809C129.844 120.567 129.897 120.343 130.125 120.36C130.331 120.378 130.342 120.213 130.137 120.16L129.991 120.124L130.155 120.054C130.249 120.018 130.36 119.989 130.407 119.989C130.46 119.989 130.489 119.924 130.489 119.788C130.489 119.493 130.536 119.405 130.782 119.281C131.034 119.151 131.339 118.727 131.433 118.367C131.55 117.942 131.55 117.942 131.62 118.084C131.649 118.16 131.696 118.219 131.726 118.219C131.802 118.219 132.007 117.724 132.089 117.335C132.136 117.122 132.212 116.869 132.265 116.768C132.312 116.668 132.423 116.367 132.499 116.09C132.581 115.819 132.693 115.471 132.751 115.317C132.869 115.011 132.833 114.911 132.658 115.023C132.523 115.105 132.306 115.117 132.306 115.04C132.306 115.011 132.347 114.958 132.394 114.916C132.441 114.875 132.482 114.81 132.482 114.769C132.482 114.722 132.552 114.61 132.634 114.509C132.746 114.374 132.769 114.309 132.722 114.22C132.675 114.132 132.704 114.085 132.857 113.961C132.962 113.872 133.109 113.684 133.179 113.536C133.244 113.389 133.326 113.265 133.349 113.265C133.472 113.265 133.554 112.887 133.59 112.186C133.625 111.478 133.636 111.419 133.765 111.313C133.918 111.189 134.047 111.171 134.264 111.254C134.375 111.301 134.439 111.289 134.551 111.195C134.762 111.03 135.031 111.053 135.436 111.283C135.934 111.56 136.057 111.578 136.45 111.437C136.638 111.372 136.866 111.319 136.96 111.319C137.112 111.319 138.853 111.897 139.135 112.038C139.199 112.074 139.381 112.233 139.539 112.392C140.342 113.206 141.503 113.696 142.821 113.772C143.296 113.802 143.46 113.837 143.66 113.949C143.794 114.026 144.152 114.156 144.451 114.238C144.75 114.321 145.248 114.48 145.553 114.598C146.086 114.804 146.133 114.84 146.702 115.412C147.212 115.931 147.305 116.061 147.429 116.391C147.505 116.603 147.663 117.016 147.792 117.311C147.915 117.606 148.015 117.913 148.015 117.989C148.015 118.196 147.856 118.396 147.692 118.396C147.364 118.396 146.936 118.538 146.614 118.756C146.426 118.88 146.209 118.986 146.133 118.986C146.057 118.986 145.682 118.892 145.301 118.774L144.615 118.55L144.099 118.715C143.818 118.803 143.548 118.898 143.501 118.921C143.378 118.986 143.337 120.001 143.39 121.463C143.419 122.094 143.437 123.634 143.437 124.884C143.443 129.514 143.232 130.942 142.393 131.856L142.112 132.162L141.954 132.062C141.772 131.938 141.76 131.85 141.913 131.661C141.971 131.584 142.153 131.26 142.317 130.947C142.657 130.299 142.745 129.909 142.862 128.482C142.933 127.656 142.968 121.853 142.903 121.788C142.886 121.77 142.798 121.799 142.704 121.847C142.587 121.906 142.37 121.929 142.036 121.923C141.59 121.917 141.444 121.941 140.659 122.195C139.826 122.46 139.603 122.56 139.193 122.82C139.093 122.879 138.947 122.95 138.859 122.967C138.718 123.003 138.689 122.979 138.525 122.69C138.425 122.519 138.273 122.201 138.191 121.976C138.103 121.752 138.015 121.599 137.98 121.617C137.951 121.64 137.857 121.794 137.781 121.959C137.663 122.218 137.646 122.319 137.675 122.649C137.704 122.914 137.693 123.05 137.646 123.079C137.605 123.109 137.581 123.062 137.581 122.944C137.581 122.725 137.511 122.708 137.405 122.908C137.341 123.032 137.341 123.068 137.423 123.156C137.493 123.233 137.499 123.292 137.452 123.368C137.4 123.475 137.394 123.475 137.271 123.368C137.153 123.268 137.153 123.268 137.194 123.374C137.218 123.445 137.194 123.528 137.124 123.61C137.001 123.746 136.878 124.07 136.878 124.259C136.878 124.33 136.79 124.513 136.679 124.666C136.444 124.996 135.835 126.223 135.623 126.772C135.401 127.367 134.785 128.647 134.504 129.101C134.334 129.384 133.947 129.815 133.32 130.428C132.171 131.561 131.767 131.915 131.134 132.345C130.454 132.805 128.707 133.666 127.998 133.891C127.119 134.174 125.266 134.439 124.158 134.439C123.033 134.439 120.741 134.156 119.909 133.908C119.68 133.843 119.364 133.761 119.206 133.731C119.041 133.696 118.795 133.631 118.649 133.584C117.805 133.313 116.808 133.024 116.72 133.024C116.662 133.024 116.404 133.295 116.093 133.684C115.314 134.675 115.167 134.822 114.423 135.33C114.047 135.589 113.707 135.837 113.666 135.884C113.584 135.979 113.192 137.606 112.846 139.258C112.717 139.883 112.529 140.668 112.43 140.998C112.06 142.248 111.926 143.115 111.791 145.126C111.756 145.64 111.703 146.212 111.668 146.395C111.597 146.748 111.609 147.15 111.738 149.898C111.808 151.449 111.808 151.473 111.685 151.667C111.545 151.903 111.058 153.384 110.97 153.844C110.835 154.563 110.794 155.537 110.853 156.911C110.929 158.645 110.988 159.317 111.205 160.656C111.398 161.877 111.474 162.107 111.797 162.614C112.125 163.116 112.254 163.499 112.348 164.207C112.447 164.991 112.594 165.198 113.45 165.782C113.825 166.035 114.176 166.171 114.68 166.259C114.927 166.301 115.155 166.56 115.401 167.085C115.648 167.61 115.577 167.704 114.921 167.704C114.733 167.704 114.645 167.734 114.587 167.822C114.464 167.999 114.159 168.017 112.348 167.946C110.255 167.858 109.745 167.763 109.399 167.392C109.276 167.262 109.27 167.227 109.329 166.967C109.364 166.814 109.429 166.613 109.475 166.525C109.558 166.366 109.558 166.36 109.376 166.324C109.276 166.307 108.907 166.289 108.555 166.289C107.541 166.289 106.738 166.041 106.48 165.652C106.369 165.487 106.357 165.428 106.41 165.239C106.498 164.926 106.609 164.72 106.85 164.455C107.049 164.236 107.061 164.195 107.066 163.818C107.066 163.428 107.055 163.393 106.82 163.057C106.685 162.862 106.556 162.62 106.539 162.52C106.515 162.42 106.545 162.095 106.597 161.795C106.779 160.709 106.885 159.559 106.984 157.566C107.102 155.206 107.049 153.289 106.803 150.688C106.633 148.872 106.639 148.488 106.832 147.975C107.266 146.861 107.729 144.236 107.951 141.664C108.004 141.08 108.11 140.072 108.186 139.423C108.415 137.542 108.426 137.317 108.309 136.899C108.25 136.698 108.168 136.444 108.121 136.338L108.034 136.138L107.828 136.297C107.172 136.804 105.947 136.857 103.983 136.468C103.35 136.338 103.21 136.327 103.016 136.391C102.864 136.439 102.002 136.468 100.302 136.486C98.0163 136.509 97.7291 136.503 96.844 136.385C96.3106 136.321 95.6365 136.209 95.3493 136.15C95.0563 136.085 94.6694 136.002 94.476 135.967C94.2884 135.931 93.9836 135.849 93.8019 135.784C93.6202 135.725 93.3037 135.636 93.0927 135.589C91.7563 135.312 89.4175 133.926 87.1784 132.098C85.8889 131.036 85.3907 130.664 85.3438 130.712C85.3204 130.735 85.3262 131.231 85.3614 131.809C85.4259 132.841 85.4259 132.876 85.2969 133.183C85.2266 133.36 85.1797 133.56 85.1973 133.631C85.2149 133.702 85.3028 134.014 85.3848 134.321C85.4728 134.634 85.5431 135.053 85.549 135.265C85.5548 135.619 85.5314 135.695 85.25 136.25C85.08 136.586 84.8339 137.182 84.7049 137.577C84.4177 138.426 84.107 139.128 83.8257 139.541C83.7143 139.706 83.4974 140.095 83.345 140.402C83.0637 140.968 83.0637 140.974 83.0637 141.552C83.0637 141.877 83.0813 142.337 83.1047 142.579C83.1575 143.263 83.0285 145.64 82.8878 146.477C82.8175 146.884 82.7589 147.498 82.7589 147.857C82.753 148.553 82.9641 150.517 83.093 150.954C83.263 151.526 83.4271 152.381 83.5385 153.284C83.6909 154.546 84.0074 155.79 84.7401 158.002C85.5431 160.432 85.7776 161.028 86.0765 161.399C86.4458 161.853 86.6744 162.196 86.9792 162.738C87.3426 163.387 87.7587 163.77 88.4387 164.071C88.8255 164.248 89.0717 164.313 89.4058 164.342C89.8806 164.384 90.1209 164.496 90.4081 164.797C90.6367 165.038 90.6953 165.233 90.6191 165.499C90.5253 165.811 90.4843 165.858 90.2323 165.894C89.5992 166 87.917 166.13 87.1726 166.136C86.4165 166.141 86.2992 166.13 86.1175 166.018C85.7717 165.817 85.7072 165.593 85.7951 164.891L85.842 164.531L85.3438 164.036L84.8456 163.546L84.6287 162.797C84.5115 162.384 84.3356 161.853 84.236 161.618C84.1363 161.382 83.8315 160.603 83.5561 159.889C82.3251 156.693 80.8129 153.472 79.752 151.791C79.5644 151.491 79.3651 151.172 79.3182 151.084C79.2713 150.995 79.2127 150.913 79.1834 150.907C79.16 150.895 79.1424 150.848 79.1424 150.806C79.1424 150.759 79.0955 150.688 79.0369 150.647C78.9079 150.553 78.5562 149.869 78.5562 149.715C78.5562 149.656 78.609 149.379 78.6676 149.114C79.0486 147.45 79.4179 141.812 79.1482 141.812C79.0662 141.812 78.9138 142.431 78.5855 144.041C78.2807 145.539 77.9466 146.689 77.4484 147.963C77.4074 148.076 77.3839 148.96 77.3839 150.706C77.3839 152.753 77.3663 153.354 77.296 153.637C77.1553 154.239 77.1846 155.065 77.4484 157.737C77.4777 158.079 77.5832 158.857 77.677 159.477C77.7708 160.09 77.8704 160.851 77.9056 161.163C77.9935 161.942 78.2104 162.656 78.6148 163.487C78.8083 163.877 79.0017 164.36 79.0486 164.561C79.1541 165.027 79.2948 165.257 79.7227 165.652C80.1095 166.012 80.5726 166.218 81.1294 166.289C81.4694 166.336 81.528 166.366 81.7918 166.625C82.12 166.944 82.2489 167.156 82.2489 167.374C82.2489 167.557 82.0497 167.704 81.7976 167.704C81.6745 167.704 81.5807 167.746 81.5221 167.834C81.399 168.011 81.0708 168.052 79.7285 168.052C78.5035 168.058 77.6711 167.988 77.3546 167.858C77.0264 167.716 76.9678 167.244 77.2022 166.625C77.3605 166.206 77.2667 165.929 76.7333 165.286L76.5164 165.015L76.4754 164.048C76.4051 162.137 76.2878 161.252 75.8013 158.916C75.6782 158.315 75.5493 157.613 75.5141 157.359C75.4379 156.822 75.18 155.696 74.9221 154.776C74.6525 153.797 73.9257 151.538 73.8026 151.284C73.744 151.154 73.6912 151.007 73.6912 150.954C73.6912 150.901 73.6267 150.771 73.5447 150.659C73.4626 150.547 73.3981 150.435 73.3981 150.411C73.3981 150.382 73.3043 150.222 73.1871 150.051C72.9995 149.78 72.982 149.715 73.0054 149.479C73.023 149.332 73.1813 148.878 73.363 148.465C73.7967 147.468 74.0488 146.672 74.3067 145.516C74.4297 144.985 74.5997 144.277 74.6877 143.935C75.0921 142.437 75.1624 141.723 75.1214 139.517C75.0921 137.807 75.0686 137.459 74.9983 137.53C74.9456 137.577 74.8635 138.043 74.799 138.644C74.7697 138.928 74.6818 139.346 74.6056 139.57C74.4708 139.96 74.4649 140.001 74.547 140.196C74.6642 140.473 74.629 140.496 74.4239 140.278C74.3301 140.178 74.2187 140.101 74.1777 140.101C74.0839 140.101 74.0781 140.019 74.1718 139.865C74.2246 139.783 74.2246 139.724 74.1718 139.618C74.1367 139.541 74.0898 139.417 74.0781 139.335C74.0663 139.252 74.0077 139.069 73.955 138.922C73.9022 138.774 73.8436 138.432 73.826 138.155C73.8084 137.866 73.7615 137.618 73.7146 137.565C73.6678 137.512 73.6502 137.412 73.6736 137.335C73.6912 137.258 73.6795 137.182 73.6385 137.152C73.5798 137.123 73.5798 137.052 73.6326 136.851C73.6912 136.651 73.6853 136.503 73.6326 136.197C73.5447 135.749 73.5857 135.53 73.8436 135.011C73.9198 134.852 73.9843 134.699 73.9843 134.663C73.9843 134.634 74.0956 134.333 74.2246 133.997C74.4004 133.56 74.4591 133.342 74.4297 133.23C74.377 133.029 74.2656 133.071 74.1777 133.324C74.1191 133.501 74.1074 133.507 74.1074 133.377C74.1015 133.23 74.1367 133.165 74.4766 132.67C74.6583 132.416 74.6759 132.239 74.7052 130.576C74.7052 130.399 74.5821 129.266 74.4473 128.305C74.3829 127.833 74.3301 127.261 74.3242 127.037C74.3125 126.5 74.4415 124.218 74.5177 123.634C74.6408 122.702 75.01 121.906 75.7603 120.997C76.0123 120.685 76.2878 120.307 76.364 120.16C76.4344 120.012 76.5926 119.729 76.704 119.541C76.8212 119.352 76.915 119.145 76.915 119.086C76.915 119.033 76.9326 118.986 76.9619 118.986C76.9854 118.986 77.0381 118.904 77.085 118.803C77.126 118.703 77.2901 118.526 77.4484 118.414C77.6067 118.302 77.7356 118.184 77.7356 118.149C77.7356 118.113 77.8001 118.037 77.8822 117.972C77.9642 117.907 78.0287 117.806 78.0287 117.748C78.0287 117.683 78.058 117.565 78.099 117.488C78.1518 117.364 78.1459 117.317 78.0697 117.228C77.9466 117.093 77.9466 116.91 78.058 116.586C78.1049 116.45 78.1283 116.297 78.1107 116.255C78.0756 116.161 78.609 115.648 78.8493 115.542C78.9314 115.506 79.1131 115.406 79.2596 115.317C79.4061 115.235 79.6816 115.111 79.8751 115.04C80.4495 114.846 80.9243 114.633 80.9946 114.539C81.0298 114.486 81.1411 114.445 81.2408 114.445C81.3404 114.445 81.4401 114.415 81.4576 114.386C81.4752 114.35 81.61 114.327 81.7449 114.327C81.8855 114.327 82.1141 114.285 82.2489 114.238C82.3838 114.191 82.5186 114.161 82.542 114.179C82.5655 114.197 82.6182 114.167 82.6593 114.12C82.712 114.055 82.8527 114.032 83.1633 114.032C83.5326 114.032 83.6088 114.014 83.6674 113.914C83.7085 113.849 83.7847 113.796 83.8315 113.796C83.8843 113.796 83.9781 113.76 84.0367 113.713C84.0953 113.672 84.195 113.648 84.2536 113.666C84.3239 113.684 84.3591 113.66 84.3591 113.595C84.3591 113.471 84.5232 113.412 84.9745 113.359C85.3145 113.318 85.8948 113.094 85.971 112.964C85.9944 112.935 86.0706 112.876 86.1351 112.846C86.2054 112.817 86.434 112.699 86.6451 112.587C86.8561 112.475 87.0612 112.38 87.1022 112.38C87.1433 112.38 87.1902 112.333 87.2136 112.274C87.2312 112.221 87.284 112.133 87.325 112.085C87.366 112.038 87.3953 111.967 87.3895 111.938C87.3836 111.902 87.4598 111.873 87.5653 111.861C87.6884 111.849 87.7646 111.802 87.788 111.731C87.8232 111.613 88.5618 111.083 88.679 111.083C88.7962 111.083 88.9838 110.758 88.9486 110.623C88.9252 110.516 88.9369 110.499 89.0131 110.528C89.142 110.575 89.4586 110.44 89.4586 110.339C89.4586 110.292 89.4996 110.257 89.5465 110.257C89.6696 110.257 89.6578 110.198 89.4996 110.033L89.3706 109.891L89.6051 109.933C89.7985 109.968 89.8278 109.962 89.7634 109.897C89.652 109.773 89.6813 109.667 89.822 109.685C89.9275 109.697 89.9626 109.661 89.9744 109.531C89.9861 109.425 90.0271 109.372 90.0975 109.372C90.1502 109.372 90.3026 109.319 90.4257 109.248C90.5781 109.172 90.7246 109.142 90.8477 109.16C91.047 109.189 91.088 109.148 90.9767 109.036C90.9356 108.995 91.0529 108.965 91.387 108.948C91.7738 108.924 91.8911 108.894 92.0024 108.788C92.0786 108.718 92.2369 108.647 92.3541 108.623C92.6472 108.576 92.6706 108.505 92.4245 108.387C92.3072 108.334 92.2135 108.269 92.2135 108.252C92.2135 108.228 92.3131 108.187 92.4303 108.157C92.612 108.116 92.6531 108.075 92.6472 107.968C92.6413 107.845 92.6648 107.833 92.7937 107.868C93.0341 107.933 93.5557 107.968 93.6554 107.933C93.7316 107.904 93.714 107.862 93.5557 107.715C93.3095 107.479 93.3857 107.408 93.9074 107.379C94.2239 107.361 94.306 107.337 94.2825 107.272C94.2474 107.172 94.4174 107.16 94.646 107.249C94.7632 107.296 94.8218 107.29 94.8863 107.219C95.1032 107.007 95.1442 107.001 96.4396 107.031C96.8675 107.042 97.0961 107.072 97.1664 107.131C97.3247 107.261 97.7818 107.243 97.987 107.096C98.1628 106.972 98.1687 106.972 98.368 107.078ZM106.047 111.785C106.047 111.849 106.275 111.908 106.31 111.849C106.322 111.826 106.322 111.79 106.299 111.767C106.24 111.714 106.047 111.726 106.047 111.785ZM140.676 119.688C139.562 120.136 138.994 120.408 138.824 120.561C138.783 120.602 138.718 120.638 138.683 120.638C138.548 120.638 138.953 121.9 139.135 122.053C139.193 122.106 139.428 122.053 140.172 121.817C141.479 121.404 141.62 121.334 141.813 121.021C141.966 120.767 141.971 120.75 141.936 119.995C141.919 119.57 141.884 119.222 141.866 119.222C141.843 119.222 141.309 119.434 140.676 119.688ZM130.7 119.765C130.501 120.042 130.665 120.219 130.928 120.024C131.028 119.953 131.034 119.918 130.969 119.788C130.887 119.6 130.817 119.594 130.7 119.765ZM141.919 121.109C141.919 121.28 142.188 121.794 142.3 121.841C142.435 121.888 142.417 121.894 142.651 121.693C142.798 121.564 142.857 121.463 142.857 121.339C142.857 121.174 142.845 121.168 142.575 121.168C142.417 121.168 142.241 121.133 142.177 121.08C142.018 120.962 141.919 120.974 141.919 121.109ZM74.8342 136.916C74.7814 137.081 74.7756 137.211 74.8049 137.27C74.8518 137.347 74.8576 137.347 74.8635 137.258C74.8635 137.205 74.8928 137.152 74.9221 137.14C74.9573 137.129 74.9983 136.922 75.01 136.68C75.0393 136.209 75.0452 136.197 74.8342 136.916ZM74.3184 138.155C74.2832 138.839 74.3418 138.839 74.4532 138.143C74.5118 137.772 74.5118 137.665 74.4532 137.595C74.4122 137.542 74.3711 137.512 74.3653 137.518C74.3594 137.53 74.336 137.813 74.3184 138.155ZM74.2774 139.211C74.2774 139.34 74.4297 139.553 74.4825 139.5C74.506 139.476 74.506 139.352 74.4825 139.217C74.4473 139.016 74.4297 138.987 74.3594 139.046C74.3125 139.081 74.2774 139.158 74.2774 139.211ZM108.69 155.495C108.655 155.867 108.608 156.958 108.59 157.914C108.544 160.072 108.59 160.633 108.913 161.57C109.036 161.948 109.177 162.455 109.218 162.709C109.259 162.956 109.317 163.163 109.347 163.163C109.417 163.163 109.364 159.477 109.276 158.444C109.241 158.008 109.188 157.265 109.153 156.793C109.118 156.321 109.036 155.672 108.971 155.348C108.913 155.023 108.86 154.746 108.86 154.729C108.86 154.717 108.837 154.729 108.807 154.758C108.778 154.793 108.725 155.124 108.69 155.495Z" fill="black"/>
<path d="M106.269 110.145C106.257 110.186 106.21 110.233 106.169 110.245C106.123 110.263 106.099 110.239 106.117 110.192C106.128 110.151 106.175 110.104 106.216 110.092C106.263 110.074 106.287 110.098 106.269 110.145Z" fill="black"/>
<path d="M129.316 122.171C129.316 122.201 129.287 122.23 129.252 122.23C129.223 122.23 129.211 122.201 129.228 122.171C129.246 122.136 129.275 122.113 129.293 122.113C129.305 122.113 129.316 122.136 129.316 122.171Z" fill="black"/>
<path d="M129.199 122.466C129.199 122.496 129.17 122.525 129.135 122.525C129.105 122.525 129.094 122.496 129.111 122.466C129.129 122.431 129.158 122.407 129.176 122.407C129.187 122.407 129.199 122.431 129.199 122.466Z" fill="black"/>
</svg>
