<svg width="68" height="68" viewBox="0 0 68 68" fill="none" xmlns="http://www.w3.org/2000/svg">
<circle cx="34" cy="34" r="34" fill="#F0B90B"/>
<mask id="mask0_94_423"  style={{ maskType: 'luminance' }} maskUnits="userSpaceOnUse" x="14" y="14" width="40" height="40">
<path d="M14 14H54V54H14V14Z" fill="white"/>
</mask>
<g mask="url(#mask0_94_423)">
</g>
<g clipPath="url(#clip0_94_423)">
<mask id="mask1_94_423"  style={{ maskType: 'luminance' }} maskUnits="userSpaceOnUse" x="12" y="12" width="44" height="44">
<path d="M12 12H56V56H12V12Z" fill="white"/>
</mask>
<g mask="url(#mask1_94_423)">
<mask id="mask2_94_423"  style={{ maskType: 'luminance' }} maskUnits="userSpaceOnUse" x="12" y="12" width="44" height="44">
<path d="M12 12H56V56H12V12Z" fill="white"/>
</mask>
<g mask="url(#mask2_94_423)">
<path d="M50.958 19.3313C50.1974 19.3313 49.5808 19.9479 49.5808 20.7085V30.6411C49.5808 31.4016 50.1974 32.0183 50.958 32.0183C51.7187 32.0183 52.3352 31.4016 52.3352 30.6411V20.7085C52.3352 19.9479 51.7187 19.3313 50.958 19.3313ZM45.5201 19.3313H36.7202C35.1224 19.3313 33.7351 20.4685 33.4217 22.0355L32.23 27.9948C32.0316 28.9868 32.2858 30.0046 32.9272 30.787C33.5686 31.5693 34.5168 32.0181 35.5285 32.0181H37.254V34.2195C37.2541 35.3562 37.6968 36.4248 38.5006 37.2284C39.3044 38.0319 40.3726 38.4743 41.509 38.4743H41.5098C41.744 38.4743 41.9743 38.4145 42.1789 38.3007C42.3836 38.1869 42.5558 38.0228 42.6794 37.8239L46.6906 31.3679C46.8262 31.1496 46.8981 30.8978 46.8981 30.6409L46.8973 20.7084C46.8972 19.9478 46.2807 19.3313 45.5201 19.3313ZM40.841 35.5638C40.6955 35.4912 40.5629 35.3956 40.4481 35.2805C40.3083 35.1415 40.1974 34.9761 40.122 34.794C40.0465 34.6118 40.0079 34.4165 40.0085 34.2193L40.0084 30.6408C40.0083 29.8802 39.3918 29.2637 38.6311 29.2637H35.5285C35.2775 29.2637 35.1255 29.1239 35.0572 29.0407C34.989 28.9574 34.8818 28.7809 34.931 28.5349L36.1227 22.5756C36.1506 22.4376 36.2253 22.3135 36.3342 22.2242C36.443 22.135 36.5794 22.086 36.7202 22.0857H44.143L44.1436 30.2481L40.841 35.5638ZM17.0413 35.9822C16.2806 35.9822 15.6641 36.5988 15.6641 37.3594V47.292C15.6641 48.0526 16.2806 48.6692 17.0413 48.6692C17.8019 48.6692 18.4185 48.0526 18.4185 47.292V37.3594C18.4185 36.5988 17.8019 35.9822 17.0413 35.9822ZM32.4709 35.9825H30.7453L30.7452 33.7812C30.7452 32.6445 30.3025 31.5758 29.4986 30.7721C28.6949 29.9686 27.6267 29.5262 26.4903 29.5262H26.4894C26.2552 29.5262 26.0249 29.586 25.8203 29.6998C25.6157 29.8136 25.4434 29.9777 25.3199 30.1766L21.3086 36.6326C21.173 36.8509 21.1012 37.1027 21.1011 37.3596L21.1019 47.2921C21.102 48.0527 21.7186 48.6692 22.4792 48.6692H31.2792C32.877 48.6692 34.2642 47.532 34.5776 45.965L35.7692 40.0058C35.9676 39.0137 35.7135 37.9961 35.0721 37.2137C34.4308 36.4312 33.4827 35.9825 32.4709 35.9825ZM33.0683 39.4656L31.8767 45.425C31.8488 45.5629 31.7741 45.687 31.6652 45.7763C31.5563 45.8655 31.42 45.9145 31.2792 45.9148H23.8562L23.8556 37.7524L27.1583 32.4367C27.3037 32.5092 27.4364 32.6049 27.5512 32.72C27.691 32.859 27.8018 33.0244 27.8773 33.2066C27.9528 33.3887 27.9913 33.5841 27.9908 33.7813L27.9909 37.3597C27.991 38.1203 28.6076 38.7369 29.3682 38.7369H32.4709C32.7218 38.7369 32.8738 38.8766 32.9421 38.9599C33.0103 39.0431 33.1175 39.2196 33.0683 39.4656Z" fill="white"/>
</g>
</g>
</g>
<defs>
<clipPath id="clip0_94_423">
<rect width="44" height="44" fill="white" transform="translate(12 12)"/>
</clipPath>
</defs>
</svg>
