<svg width="122" height="122" viewBox="0 0 122 122" fill="none" xmlns="http://www.w3.org/2000/svg">
<circle cx="61" cy="61" r="61" fill="url(#paint0_linear_94_443)"/>
<circle cx="61" cy="61" r="34" fill="#F0B90B"/>
<g clipPath="url(#clip0_94_443)">
<mask id="mask0_94_443"  style={{ maskType: 'luminance' }} maskUnits="userSpaceOnUse" x="41" y="41" width="40" height="40">
<path d="M41 41H81V81H41V41Z" fill="white"/>
</mask>
<g mask="url(#mask0_94_443)">
<mask id="mask1_94_443"  style={{ maskType: 'luminance' }} maskUnits="userSpaceOnUse" x="41" y="41" width="40" height="40">
<path d="M41 41H81V81H41V41Z" fill="white"/>
</mask>
<g mask="url(#mask1_94_443)">
<path d="M71.8332 56.835H68.2447C65.857 56.835 63.9145 54.8925 63.9145 52.5049V50.3277C63.9145 47.94 65.857 45.9976 68.2447 45.9976H68.7552C71.1428 45.9976 73.0852 47.94 73.0852 50.3277V55.583C73.0852 56.2744 72.5247 56.835 71.8332 56.835ZM68.2447 48.5016C67.2377 48.5016 66.4186 49.3208 66.4186 50.3277V52.5049C66.4186 53.5118 67.2377 54.331 68.2447 54.331H70.5811V50.3277C70.5811 49.3208 69.7621 48.5016 68.7552 48.5016H68.2447ZM56.4165 56.835H52.8279C50.4403 56.835 48.4978 54.8925 48.4978 52.5049V50.3277C48.4978 47.94 50.4403 45.9976 52.8279 45.9976H53.3384C55.726 45.9976 57.6685 47.94 57.6685 50.3277V55.583C57.6685 56.2744 57.108 56.835 56.4165 56.835ZM52.8279 48.5016C51.821 48.5016 51.0018 49.3208 51.0018 50.3277V52.5049C51.0018 53.5118 51.821 54.331 52.8279 54.331H55.1645V50.3277C55.1645 49.3208 54.3453 48.5016 53.3384 48.5016H52.8279ZM64.3332 67.6684H60.7447C58.357 67.6684 56.4145 65.726 56.4145 63.3384V61.1612C56.4145 58.7735 58.357 56.8311 60.7447 56.8311H61.2551C63.6427 56.8311 65.5852 58.7735 65.5852 61.1612V66.4164C65.5852 67.1078 65.0247 67.6684 64.3332 67.6684ZM60.7447 59.335C59.7377 59.335 58.9185 60.1543 58.9185 61.1612V63.3384C58.9185 64.3452 59.7377 65.1644 60.7447 65.1644H63.0812V61.1612C63.0812 60.1543 62.262 59.335 61.2551 59.335H60.7447ZM69.7499 77.6683H52.2499C51.5584 77.6683 50.9979 77.1077 50.9979 76.4163V75.5828C50.9979 72.1354 53.8026 69.3307 57.2499 69.3307H64.7499C68.1973 69.3307 71.0019 72.1354 71.0019 75.5828V76.4163C71.0019 77.1077 70.4415 77.6683 69.7499 77.6683ZM53.5251 75.1643H68.4747C68.2661 73.2938 66.6751 71.8347 64.7499 71.8347H57.2499C55.3247 71.8347 53.7338 73.2938 53.5251 75.1643ZM53.0831 66.8351H45.5831C44.8916 66.8351 44.3311 66.2745 44.3311 65.5831V64.7498C44.3311 61.3024 47.1357 58.4978 50.5831 58.4978H53.0831C53.7747 58.4978 54.3352 59.0584 54.3352 59.7498C54.3352 60.4412 53.7747 61.0017 53.0831 61.0017H50.5831C48.658 61.0017 47.0671 62.4608 46.8583 64.3312H53.0831C53.7747 64.3312 54.3352 64.8916 54.3352 65.5831C54.3352 66.2745 53.7747 66.8351 53.0831 66.8351ZM76.4166 66.8348H68.9166C68.2251 66.8348 67.6645 66.2743 67.6645 65.5828C67.6645 64.8914 68.2251 64.3309 68.9166 64.3309H75.1414C74.9326 62.4606 73.3417 61.0015 71.4166 61.0015H68.9166C68.2251 61.0015 67.6645 60.441 67.6645 59.7496C67.6645 59.0581 68.2251 58.4976 68.9166 58.4976H71.4166C74.8639 58.4976 77.6687 61.3022 77.6687 64.7496V65.5828C77.6687 66.2743 77.1081 66.8348 76.4166 66.8348Z" fill="white"/>
</g>
</g>
</g>
<defs>
<linearGradient id="paint0_linear_94_443" x1="0" y1="0" x2="89.8019" y2="142.317" gradientUnits="userSpaceOnUse">
<stop stop-color="white" stop-opacity="0.1"/>
<stop offset="1" stop-color="white" stop-opacity="0.05"/>
</linearGradient>
<clipPath id="clip0_94_443">
<rect width="40" height="40" fill="white" transform="translate(41 41)"/>
</clipPath>
</defs>
</svg>
