<svg width="68" height="68" viewBox="0 0 68 68" fill="none" xmlns="http://www.w3.org/2000/svg">
<circle cx="34" cy="34" r="34" fill="#F0B90B"/>
<g clipPath="url(#clip0_94_385)">
<mask id="mask0_94_385" style="mask-type:luminance" maskUnits="userSpaceOnUse" x="9" y="9" width="50" height="50">
<path d="M9 9H59V59H9V9Z" fill="white"/>
</mask>
<g mask="url(#mask0_94_385)">
<mask id="mask1_94_385" style="mask-type:luminance" maskUnits="userSpaceOnUse" x="9" y="9" width="50" height="50">
<path d="M9 9H59V59H9V9Z" fill="white"/>
</mask>
<g mask="url(#mask1_94_385)">
<path d="M34.0205 37.1249C33.3956 37.1249 32.8749 37.3539 32.4583 37.6873L27.5423 36.375C26.6883 36.1458 25.8552 36.6458 25.626 37.479C25.3969 38.3122 25.8968 39.1662 26.73 39.3953L31.625 40.7076C32.0208 41.6658 32.9582 42.3324 34.0414 42.3324C35.4786 42.3324 36.6451 41.1659 36.6451 39.7286C36.6451 38.2913 35.4578 37.1249 34.0205 37.1249Z" fill="white"/>
<path d="M53.6842 34.4793C53.6634 34.4168 53.6426 34.396 53.6218 34.3335C50.7264 26.2515 43.0401 20.4607 33.9998 20.4607C24.918 20.4607 17.2109 26.314 14.3572 34.4168C14.3572 34.4377 14.3364 34.4377 14.3364 34.4585V34.4793C13.5864 36.6248 13.1699 38.9161 13.1699 41.2907V47.019C13.1699 47.873 13.8781 48.5812 14.7321 48.5812H53.2677C54.1217 48.5812 54.83 47.873 54.83 47.019V41.2907C54.83 38.9161 54.4134 36.6457 53.6843 34.5418V34.4793H53.6842ZM51.7054 45.4567H16.2944V41.2907C16.2944 39.7285 16.5235 38.2287 16.8984 36.7707L19.0231 37.333C19.1481 37.3747 19.2939 37.3955 19.4189 37.3955C20.1063 37.3955 20.7312 36.9373 20.9187 36.2291C21.1477 35.3959 20.6479 34.5418 19.8147 34.3127L17.9607 33.8336C20.5854 28.2512 26.022 24.231 32.4377 23.6686V26.3348C32.4377 27.1888 33.1459 27.8971 33.9999 27.8971C34.8539 27.8971 35.5621 27.1888 35.5621 26.3348V23.6894C41.9778 24.2518 47.4144 28.272 50.0181 33.8544L48.1643 34.3544C47.3311 34.5834 46.8312 35.4375 47.0603 36.2707C47.2478 36.9789 47.8727 37.4372 48.5601 37.4372C48.6851 37.4372 48.8309 37.4164 48.9558 37.3747L51.0597 36.8123C51.4346 38.2496 51.6637 39.7702 51.6637 41.3324V45.4567H51.7054Z" fill="white"/>
</g>
</g>
</g>
<defs>
<clipPath id="clip0_94_385">
<rect width="50" height="50" fill="white" transform="translate(9 9)"/>
</clipPath>
</defs>
</svg>
