<svg width="68" height="68" viewBox="0 0 68 68" fill="none" xmlns="http://www.w3.org/2000/svg">
<circle cx="34" cy="34" r="34" fill="#F0B90B"/>
<g clipPath="url(#clip0_94_405)">
<mask id="mask0_94_405" style="mask-type:luminance" maskUnits="userSpaceOnUse" x="12" y="12" width="44" height="44">
<path d="M12 12H56V56H12V12Z" fill="white"/>
</mask>
<g mask="url(#mask0_94_405)">
<mask id="mask1_94_405" style="mask-type:luminance" maskUnits="userSpaceOnUse" x="12" y="12" width="44" height="44">
<path d="M12 12H56V56H12V12Z" fill="white"/>
</mask>
<g mask="url(#mask1_94_405)">
<path d="M37.4647 27.3284C37.4647 26.9618 37.3181 26.6136 37.0615 26.3569L30.4442 19.7397C29.8942 19.2082 29.0327 19.2082 28.5012 19.7397C27.9696 20.2713 27.9513 21.1512 28.5012 21.6827L32.7722 25.9537H18.8778C18.1262 25.9537 17.5029 26.577 17.5029 27.3285C17.5029 28.08 18.1261 28.7033 18.8778 28.7033H32.7722L28.5012 32.9743C27.9513 33.5058 27.9513 34.3857 28.5012 34.9173C28.7762 35.1922 29.1244 35.3205 29.4727 35.3205C29.821 35.3205 30.1692 35.1922 30.4442 34.9173L37.0615 28.3C37.1892 28.1725 37.2906 28.0211 37.3598 27.8544C37.429 27.6877 37.4647 27.509 37.4648 27.3285L37.4647 27.3284ZM49.1229 39.2982H35.2283L39.4993 35.0272C40.0308 34.4957 40.0308 33.6157 39.4993 33.0842C38.9678 32.5527 38.0878 32.5527 37.5563 33.0842L30.939 39.7014C30.4075 40.2331 30.4075 41.113 30.939 41.6445L37.5563 48.2617C37.8313 48.5367 38.1795 48.665 38.5278 48.665C38.8761 48.665 39.2243 48.5367 39.4993 48.2617C40.0308 47.7302 40.0308 46.8503 39.4993 46.3187L35.2283 42.0478H49.1227C49.8743 42.0478 50.4976 41.4245 50.4976 40.673C50.4976 39.9214 49.8743 39.2982 49.1227 39.2982H49.1229Z" fill="white"/>
</g>
</g>
</g>
<defs>
<clipPath id="clip0_94_405">
<rect width="44" height="44" fill="white" transform="translate(12 12)"/>
</clipPath>
</defs>
</svg>
