<svg width="68" height="68" viewBox="0 0 68 68" fill="none" xmlns="http://www.w3.org/2000/svg">
<circle cx="34" cy="34" r="34" fill="#F0B90B"/>
<g clipPath="url(#clip0_94_364)">
<mask id="mask0_94_364"  style={{ maskType: 'luminance' }} maskUnits="userSpaceOnUse" x="12" y="12" width="44" height="44">
<path d="M12 12H56V56H12V12Z" fill="white"/>
</mask>
<g mask="url(#mask0_94_364)">
<mask id="mask1_94_364"  style={{ maskType: 'luminance' }} maskUnits="userSpaceOnUse" x="12" y="12" width="44" height="44">
<path d="M12 12H56V56H12V12Z" fill="white"/>
</mask>
<g mask="url(#mask1_94_364)">
<path d="M46.965 21.0353C39.8158 13.8863 28.1835 13.8864 21.0344 21.0353C17.5713 24.4985 15.6641 29.103 15.6641 34.0006C15.6641 38.8983 17.5713 43.5027 21.0344 46.9658C24.609 50.5404 29.3044 52.3276 33.9997 52.3276C38.695 52.3276 43.3904 50.5404 46.965 46.9658C50.4281 43.5027 52.3353 38.8983 52.3353 34.0006C52.3353 29.103 50.4281 24.4985 46.965 21.0353ZM45.0173 45.0181C38.9423 51.0933 29.0573 51.0934 22.9821 45.0181C20.0392 42.0752 18.4185 38.1625 18.4185 34.0006C18.4185 29.8388 20.0392 25.9259 22.9821 22.983C26.0197 19.9454 30.0096 18.4267 33.9997 18.4267C37.9897 18.4267 41.9797 19.9454 45.0173 22.983C47.9601 25.9259 49.5809 29.8388 49.5809 34.0006C49.5809 38.1625 47.9601 42.0752 45.0173 45.0181Z" fill="white"/>
<path d="M35.3795 33.4343V26.2864C35.3795 25.5258 34.7629 24.9092 34.0022 24.9092C33.2415 24.9092 32.625 25.5258 32.625 26.2864V34.0058C32.625 34.3927 32.785 34.7417 33.0419 34.9919L40.8201 42.7705C40.9478 42.8986 41.0996 43.0002 41.2667 43.0694C41.4339 43.1387 41.613 43.1742 41.7939 43.1739C42.1463 43.1739 42.4989 43.0396 42.7678 42.7706C43.3056 42.2329 43.3056 41.3608 42.7678 40.8229L35.3795 33.4343Z" fill="white"/>
</g>
</g>
</g>
<defs>
<clipPath id="clip0_94_364">
<rect width="44" height="44" fill="white" transform="translate(12 12)"/>
</clipPath>
</defs>
</svg>
