<svg width="24" height="24" viewBox="0 0 24 24" fill="none" xmlns="http://www.w3.org/2000/svg">
<g id="teih516py0elrori4f1 1" clip-path="url(#clip0_94_473)">
<g id="Clip path group">
<mask id="mask0_94_473" style="mask-type:luminance" maskUnits="userSpaceOnUse" x="0" y="0" width="24" height="24">
<g id="__lottie_element_44173">
<path id="Vector" d="M24 0H0V24H24V0Z" fill="white"/>
</g>
</mask>
<g mask="url(#mask0_94_473)">
<g id="Group">
<g id="Clip path group_2">
<mask id="mask1_94_473" style="mask-type:luminance" maskUnits="userSpaceOnUse" x="0" y="0" width="24" height="24">
<g id="__lottie_element_44196">
<path id="Vector_2" d="M0 0H24V24H0V0Z" fill="white"/>
</g>
</mask>
<g mask="url(#mask1_94_473)">
<g id="Group_2">
<g id="Clip path group_3">
<mask id="mask2_94_473" style="mask-type:luminance" maskUnits="userSpaceOnUse" x="0" y="0" width="24" height="24">
<g id="__lottie_element_44228">
<path id="Vector_3" d="M0 0H24V24H0V0Z" fill="white"/>
</g>
</mask>
<g mask="url(#mask2_94_473)">
<g id="Group_3">
<g id="Group_4">
<g id="Group_5">
<path id="Vector_4" d="M8.52462 14.7081C8.45144 14.6556 8.43297 14.5544 8.48382 14.4801C9.37293 13.0327 10.8435 12.5159 12.0009 12.5159C12.8507 12.5159 14.4541 12.8007 15.522 14.4868C15.5702 14.5629 15.5449 14.6573 15.4718 14.7099L13.8262 15.8921C13.7487 15.9478 13.6243 15.9226 13.5782 15.8391C13.3023 15.3389 12.7714 14.8801 12.0009 14.8801C11.4522 14.8801 10.7978 15.1327 10.4299 15.8324C10.387 15.9139 10.2566 15.9503 10.182 15.8977L8.52462 14.7081Z" fill="#E8392F"/>
</g>
</g>
<g id="Group_6">
<g id="Group_7">
<path id="Vector_5" d="M5.16618 12.1272C5.09301 12.0746 5.07459 11.9735 5.12544 11.8991C6.76804 9.35556 9.57788 8.21021 12.0008 8.21021C13.6439 8.21021 16.7375 8.76427 18.8778 11.8944C18.9286 11.9687 18.9102 12.0698 18.837 12.1224L17.1899 13.3111C17.1124 13.3668 17.0041 13.3465 16.9506 13.2675C15.7382 11.4788 13.9141 10.5745 12.0008 10.5745C11.2104 10.5745 8.78203 10.7152 7.05241 13.2671C6.99889 13.346 6.89061 13.3664 6.81314 13.3106L5.16618 12.1272Z" fill="#E8392F"/>
</g>
</g>
<g id="Group_8" opacity="0.417398">
<g id="Group_9">
<path id="Vector_6" d="M1.80583 10.327C1.73266 10.2744 1.71424 10.1733 1.76508 10.0989C3.99809 6.83318 7.74934 4.69043 12.0004 4.69043C16.2514 4.69043 20.0026 6.83318 22.2356 10.0989C22.2865 10.1733 22.2681 10.2744 22.1949 10.327L20.5485 11.5106C20.471 11.5663 20.3627 11.5459 20.3092 11.467C18.5044 8.80414 15.4564 7.05465 12.0004 7.05465C8.5443 7.05465 5.49636 8.80414 3.6915 11.467C3.63798 11.5459 3.5297 11.5663 3.45223 11.5106L1.80583 10.327Z" fill="#E8392F"/>
</g>
</g>
</g>
</g>
</g>
<g id="Mask group">
<mask id="mask3_94_473" style="mask-type:alpha" maskUnits="userSpaceOnUse" x="1" y="4" width="22" height="12">
<g id="Group_10">
<g id="__lottie_element_44202">
<g id="Clip path group_4">
<mask id="mask4_94_473" style="mask-type:luminance" maskUnits="userSpaceOnUse" x="0" y="0" width="24" height="24">
<g id="__lottie_element_44203">
<path id="Vector_7" d="M0 0H24V24H0V0Z" fill="white"/>
</g>
</mask>
<g mask="url(#mask4_94_473)">
<g id="Group_11">
<g id="Group_12">
<g id="Group_13">
<path id="Vector_8" d="M8.52462 14.7081C8.45144 14.6556 8.43297 14.5544 8.48382 14.4801C9.37293 13.0327 10.8435 12.5159 12.0009 12.5159C12.8507 12.5159 14.4541 12.8007 15.522 14.4868C15.5702 14.5629 15.5449 14.6573 15.4718 14.7099L13.8262 15.8921C13.7487 15.9478 13.6243 15.9226 13.5782 15.8391C13.3023 15.3389 12.7714 14.8801 12.0009 14.8801C11.4522 14.8801 10.7978 15.1327 10.4299 15.8324C10.387 15.9139 10.2566 15.9503 10.182 15.8977L8.52462 14.7081Z" fill="#E8392F"/>
</g>
</g>
<g id="Group_14">
<g id="Group_15">
<path id="Vector_9" d="M5.16618 12.1272C5.09301 12.0746 5.07459 11.9735 5.12544 11.8991C6.76804 9.35556 9.57788 8.21021 12.0008 8.21021C13.6439 8.21021 16.7375 8.76427 18.8778 11.8944C18.9286 11.9687 18.9102 12.0698 18.837 12.1224L17.1899 13.3111C17.1124 13.3668 17.0041 13.3465 16.9506 13.2675C15.7382 11.4788 13.9141 10.5745 12.0008 10.5745C11.2104 10.5745 8.78203 10.7152 7.05241 13.2671C6.99889 13.346 6.89061 13.3664 6.81314 13.3106L5.16618 12.1272Z" fill="#E8392F"/>
</g>
</g>
<g id="Group_16" opacity="0.417398">
<g id="Group_17">
<path id="Vector_10" d="M1.80583 10.327C1.73266 10.2744 1.71424 10.1733 1.76508 10.0989C3.99809 6.83318 7.74934 4.69043 12.0004 4.69043C16.2514 4.69043 20.0026 6.83318 22.2356 10.0989C22.2865 10.1733 22.2681 10.2744 22.1949 10.327L20.5485 11.5106C20.471 11.5663 20.3627 11.5459 20.3092 11.467C18.5044 8.80414 15.4564 7.05465 12.0004 7.05465C8.5443 7.05465 5.49636 8.80414 3.6915 11.467C3.63798 11.5459 3.5297 11.5663 3.45223 11.5106L1.80583 10.327Z" fill="#E8392F"/>
</g>
</g>
</g>
</g>
</g>
</g>
</g>
</mask>
<g mask="url(#mask3_94_473)">
<g id="Group_18" style="mix-blend-mode:multiply">
<g id="Group_19">
<g id="Group_20">
<path id="Vector_11" d="M11.9721 -1.06055V17.0241H-0.920898V-1.06055H11.9721Z" fill="#E8392F" fill-opacity="0.5"/>
</g>
</g>
</g>
</g>
</g>
<g id="Group_21">
<g id="Group_22">
<path id="Vector_12" d="M11.2246 17.2583C11.4541 17.105 11.7239 17.0232 11.9998 17.0232C12.3698 17.0236 12.7245 17.1707 12.9861 17.4323C13.2477 17.6939 13.3948 18.0486 13.3952 18.4185C13.3952 18.6945 13.3133 18.9643 13.16 19.1937C13.0067 19.4232 12.7888 19.6021 12.5338 19.7077C12.2788 19.8133 11.9983 19.8409 11.7276 19.787C11.457 19.7332 11.2083 19.6003 11.0132 19.4052C10.8181 19.21 10.6852 18.9614 10.6313 18.6907C10.5775 18.4201 10.6051 18.1395 10.7107 17.8846C10.8163 17.6296 10.9952 17.4117 11.2246 17.2583Z" fill="#E8392F"/>
</g>
<g id="Group_23" style="mix-blend-mode:multiply" opacity="0.5">
<path id="Vector_13" d="M11.2246 17.2583C11.4541 17.105 11.7239 17.0232 11.9998 17.0232C11.9998 17.2604 11.9964 19.3744 11.9964 19.8139C11.9964 19.9037 11.8165 19.8047 11.7276 19.787C11.457 19.7332 11.2083 19.6003 11.0132 19.4052C10.8181 19.21 10.6852 18.9614 10.6313 18.6907C10.5775 18.4201 10.6051 18.1395 10.7107 17.8846C10.8163 17.6296 10.9952 17.4117 11.2246 17.2583Z" fill="#E8392F"/>
</g>
</g>
</g>
</g>
</g>
</g>
</g>
</g>
</g>
<defs>
<clipPath id="clip0_94_473">
<rect width="24" height="24" fill="white"/>
</clipPath>
</defs>
</svg>
